Bitter Pro-Black.ufo
<glyph name="numbersign" format="2">
	<advance width="676"/>
	<unicode hex="0023"/>
	<outline>
		<contour>
			<point x="55" y="550" type="line"/>
			<point x="55" y="430" type="line"/>
			<point x="660" y="430" type="line"/>
			<point x="660" y="550" type="line"/>
		</contour>
		<contour>
			<point x="16" y="280" type="line"/>
			<point x="16" y="160" type="line"/>
			<point x="621" y="160" type="line"/>
			<point x="621" y="280" type="line"/>
		</contour>
		<contour>
			<point x="178" y="710" type="line"/>
			<point x="78" y="0" type="line"/>
			<point x="238" y="0" type="line"/>
			<point x="338" y="710" type="line"/>
		</contour>
		<contour>
			<point x="438" y="710" type="line"/>
			<point x="338" y="0" type="line"/>
			<point x="498" y="0" type="line"/>
			<point x="598" y="710" type="line"/>
		</contour>
	</outline>
</glyph>
<glyph name="percent" format="2">
	<advance width="891"/>
	<unicode hex="0025"/>
	<outline>
		<contour>
			<point x="124" y="-16" type="line"/>
			<point x="284" y="-16" type="line"/>
			<point x="762" y="724" type="line"/>
			<point x="602" y="724" type="line"/>
		</contour>
		<contour>
			<point x="206" y="346" type="curve" smooth="yes"/>
			<point x="326" y="346"/>
			<point x="397" y="426"/>
			<point x="397" y="542" type="curve" smooth="yes"/>
			<point x="397" y="647"/>
			<point x="334" y="725"/>
			<point x="212" y="725" type="curve" smooth="yes"/>
			<point x="89" y="725"/>
			<point x="20" y="647"/>
			<point x="20" y="535" type="curve" smooth="yes"/>
			<point x="20" y="420"/>
			<point x="92" y="346"/>
		</contour>
		<contour>
			<point x="209" y="451" type="curve" smooth="yes"/>
			<point x="174" y="451"/>
			<point x="165" y="478"/>
			<point x="165" y="533" type="curve" smooth="yes"/>
			<point x="165" y="594"/>
			<point x="175" y="620"/>
			<point x="210" y="620" type="curve" smooth="yes"/>
			<point x="243" y="620"/>
			<point x="252" y="595"/>
			<point x="252" y="536" type="curve" smooth="yes"/>
			<point x="252" y="477"/>
			<point x="243" y="451"/>
		</contour>
		<contour>
			<point x="680" y="-15" type="curve" smooth="yes"/>
			<point x="800" y="-15"/>
			<point x="871" y="65"/>
			<point x="871" y="181" type="curve" smooth="yes"/>
			<point x="871" y="286"/>
			<point x="808" y="364"/>
			<point x="686" y="364" type="curve" smooth="yes"/>
			<point x="563" y="364"/>
			<point x="494" y="286"/>
			<point x="494" y="174" type="curve" smooth="yes"/>
			<point x="494" y="59"/>
			<point x="566" y="-15"/>
		</contour>
		<contour>
			<point x="683" y="90" type="curve" smooth="yes"/>
			<point x="648" y="90"/>
			<point x="639" y="117"/>
			<point x="639" y="172" type="curve" smooth="yes"/>
			<point x="639" y="233"/>
			<point x="649" y="259"/>
			<point x="684" y="259" type="curve" smooth="yes"/>
			<point x="717" y="259"/>
			<point x="726" y="234"/>
			<point x="726" y="175" type="curve" smooth="yes"/>
			<point x="726" y="116"/>
			<point x="717" y="90"/>
		</contour>
	</outline>
</glyph>
<glyph name="asterisk" format="2">
	<advance width="431"/>
	<unicode hex="002A"/>
	<outline>
		<contour>
			<point x="274" y="404" type="line"/>
			<point x="362" y="470" type="line"/>
			<point x="282" y="561" type="line"/>
			<point x="226" y="567" type="line"/>
			<point x="213" y="513" type="line"/>
		</contour>
		<contour>
			<point x="158" y="404" type="line"/>
			<point x="213" y="513" type="line"/>
			<point x="200" y="567" type="line"/>
			<point x="145" y="563" type="line"/>
			<point x="64" y="470" type="line"/>
		</contour>
		<contour>
			<point x="145" y="563" type="line"/>
			<point x="193" y="590" type="line"/>
			<point x="170" y="644" type="line"/>
			<point x="61" y="688" type="line"/>
			<point x="25" y="580" type="line"/>
		</contour>
		<contour>
			<point x="212" y="607" type="line"/>
			<point x="257" y="643" type="line"/>
			<point x="268" y="760" type="line"/>
			<point x="155" y="758" type="line"/>
			<point x="170" y="644" type="line"/>
		</contour>
		<contour>
			<point x="282" y="561" type="line"/>
			<point x="401" y="582" type="line"/>
			<point x="364" y="692" type="line"/>
			<point x="257" y="643" type="line"/>
			<point x="237" y="594" type="line"/>
		</contour>
	</outline>
</glyph>
<glyph name="zero" format="2">
	<advance width="628"/>
	<unicode hex="0030"/>
	<outline>
		<contour>
			<point x="311" y="-15" type="curve" smooth="yes"/>
			<point x="522" y="-15"/>
			<point x="602" y="119"/>
			<point x="602" y="364" type="curve" smooth="yes"/>
			<point x="602" y="600"/>
			<point x="542" y="725"/>
			<point x="321" y="725" type="curve" smooth="yes"/>
			<point x="102" y="725"/>
			<point x="26" y="595"/>
			<point x="26" y="349" type="curve" smooth="yes"/>
			<point x="26" y="110"/>
			<point x="102" y="-15"/>
		</contour>
		<contour>
			<point x="314" y="138" type="curve" smooth="yes"/>
			<point x="243" y="138"/>
			<point x="237" y="210"/>
			<point x="237" y="354" type="curve" smooth="yes"/>
			<point x="237" y="499"/>
			<point x="244" y="572"/>
			<point x="315" y="572" type="curve" smooth="yes"/>
			<point x="385" y="572"/>
			<point x="390" y="502"/>
			<point x="390" y="359" type="curve" smooth="yes"/>
			<point x="390" y="210"/>
			<point x="384" y="138"/>
		</contour>
	</outline>
</glyph>
<glyph name="two" format="2">
	<advance width="582"/>
	<unicode hex="0032"/>
	<outline>
		<contour>
			<point x="28" y="0" type="line"/>
			<point x="558" y="0" type="line"/>
			<point x="558" y="158" type="line"/>
			<point x="263" y="158" type="line"/>
			<point x="262" y="136" type="line"/>
			<point x="433" y="258"/>
			<point x="547" y="366"/>
			<point x="547" y="521" type="curve" smooth="yes"/>
			<point x="547" y="669"/>
			<point x="438" y="725"/>
			<point x="283" y="725" type="curve" smooth="yes"/>
			<point x="207" y="725"/>
			<point x="120" y="712"/>
			<point x="30" y="688" type="curve"/>
			<point x="43" y="486" type="line"/>
			<point x="164" y="486" type="line"/>
			<point x="185" y="589" type="line"/>
			<point x="164" y="557" type="line"/>
			<point x="194" y="568"/>
			<point x="222" y="575"/>
			<point x="248" y="575" type="curve" smooth="yes"/>
			<point x="298" y="575"/>
			<point x="332" y="548"/>
			<point x="332" y="492" type="curve" smooth="yes"/>
			<point x="332" y="402"/>
			<point x="244" y="327"/>
			<point x="28" y="170" type="curve"/>
		</contour>
	</outline>
</glyph>
<glyph name="four" format="2">
	<advance width="633"/>
	<unicode hex="0034"/>
	<outline>
		<contour>
			<point x="336" y="174" type="line"/>
			<point x="336" y="0" type="line"/>
			<point x="541" y="0" type="line"/>
			<point x="541" y="174" type="line"/>
			<point x="491" y="134" type="line"/>
			<point x="627" y="134" type="line"/>
			<point x="627" y="289" type="line"/>
			<point x="491" y="289" type="line"/>
			<point x="541" y="254" type="line"/>
			<point x="541" y="710" type="line"/>
			<point x="301" y="725" type="line"/>
			<point x="3" y="275" type="line"/>
			<point x="23" y="134" type="line"/>
			<point x="386" y="134" type="line"/>
		</contour>
		<contour>
			<point x="390" y="289" type="line"/>
			<point x="121" y="289" type="line"/>
			<point x="161" y="216" type="line"/>
			<point x="411" y="601" type="line"/>
			<point x="340" y="613" type="line"/>
			<point x="340" y="254" type="line"/>
		</contour>
	</outline>
</glyph>
<glyph name="five" format="2">
	<advance width="559"/>
	<unicode hex="0035"/>
	<outline>
		<contour>
			<point x="263" y="-13" type="curve" smooth="yes"/>
			<point x="419" y="-13"/>
			<point x="540" y="65"/>
			<point x="540" y="235" type="curve" smooth="yes"/>
			<point x="540" y="363"/>
			<point x="471" y="449"/>
			<point x="268" y="449" type="curve" smooth="yes"/>
			<point x="207" y="449" type="line"/>
			<point x="259" y="407" type="line"/>
			<point x="269" y="589" type="line"/>
			<point x="212" y="555" type="line"/>
			<point x="504" y="555" type="line"/>
			<point x="507" y="710" type="line"/>
			<point x="68" y="710" type="line"/>
			<point x="54" y="303" type="line"/>
			<point x="130" y="303" type="line" smooth="yes"/>
			<point x="246" y="303"/>
			<point x="325" y="303"/>
			<point x="325" y="222" type="curve" smooth="yes"/>
			<point x="325" y="166"/>
			<point x="286" y="144"/>
			<point x="230" y="144" type="curve" smooth="yes"/>
			<point x="182" y="144"/>
			<point x="122" y="160"/>
			<point x="65" y="184" type="curve"/>
			<point x="12" y="44" type="line"/>
			<point x="97" y="7"/>
			<point x="185" y="-13"/>
		</contour>
	</outline>
</glyph>
<glyph name="nine" format="2">
	<advance width="596"/>
	<unicode hex="0039"/>
	<outline>
		<contour>
			<point x="389" y="430" type="line"/>
			<point x="358" y="406"/>
			<point x="327" y="396"/>
			<point x="298" y="396" type="curve" smooth="yes"/>
			<point x="250" y="396"/>
			<point x="220" y="425"/>
			<point x="220" y="486" type="curve" smooth="yes"/>
			<point x="220" y="540"/>
			<point x="246" y="570"/>
			<point x="289" y="570" type="curve" smooth="yes"/>
			<point x="348" y="570"/>
			<point x="367" y="514"/>
			<point x="367" y="402" type="curve" smooth="yes"/>
			<point x="367" y="220"/>
			<point x="320" y="138"/>
			<point x="176" y="138" type="curve" smooth="yes"/>
			<point x="149" y="138"/>
			<point x="117" y="141"/>
			<point x="82" y="147" type="curve"/>
			<point x="69" y="4" type="line"/>
			<point x="117" y="-9"/>
			<point x="162" y="-15"/>
			<point x="205" y="-15" type="curve" smooth="yes"/>
			<point x="424" y="-15"/>
			<point x="577" y="137"/>
			<point x="577" y="394" type="curve" smooth="yes"/>
			<point x="577" y="634"/>
			<point x="444" y="725"/>
			<point x="288" y="725" type="curve" smooth="yes"/>
			<point x="132" y="725"/>
			<point x="10" y="634"/>
			<point x="10" y="475" type="curve" smooth="yes"/>
			<point x="10" y="342"/>
			<point x="96" y="257"/>
			<point x="229" y="257" type="curve" smooth="yes"/>
			<point x="294" y="257"/>
			<point x="349" y="277"/>
			<point x="399" y="299" type="curve"/>
		</contour>
	</outline>
</glyph>
<glyph name="less" format="2">
	<advance width="529"/>
	<unicode hex="003C"/>
	<outline>
		<contour>
			<point x="443" y="94" type="line"/>
			<point x="497" y="236" type="line"/>
			<point x="172" y="378" type="line"/>
			<point x="172" y="342" type="line"/>
			<point x="496" y="489" type="line"/>
			<point x="444" y="626" type="line"/>
			<point x="20" y="429" type="line"/>
			<point x="20" y="285" type="line"/>
		</contour>
	</outline>
</glyph>
<glyph name="at" format="2">
	<advance width="862"/>
	<unicode hex="0040"/>
	<outline>
		<contour>
			<point x="383" y="-116" type="curve" smooth="yes"/>
			<point x="446" y="-116"/>
			<point x="515" y="-103"/>
			<point x="585" y="-76" type="curve"/>
			<point x="545" y="30" type="line"/>
			<point x="493" y="12"/>
			<point x="443" y="4"/>
			<point x="401" y="4" type="curve" smooth="yes"/>
			<point x="261" y="4"/>
			<point x="177" y="95"/>
			<point x="177" y="266" type="curve" smooth="yes"/>
			<point x="177" y="460"/>
			<point x="279" y="552"/>
			<point x="440" y="552" type="curve" smooth="yes"/>
			<point x="597" y="552"/>
			<point x="692" y="465"/>
			<point x="692" y="271" type="curve" smooth="yes"/>
			<point x="692" y="211"/>
			<point x="683" y="160"/>
			<point x="651" y="160" type="curve" smooth="yes"/>
			<point x="635" y="160"/>
			<point x="623" y="169"/>
			<point x="623" y="198" type="curve" smooth="yes"/>
			<point x="623" y="337" type="line" smooth="yes"/>
			<point x="623" y="449"/>
			<point x="552" y="495"/>
			<point x="449" y="495" type="curve" smooth="yes"/>
			<point x="395" y="495"/>
			<point x="333" y="483"/>
			<point x="268" y="461" type="curve"/>
			<point x="291" y="363" type="line"/>
			<point x="331" y="374"/>
			<point x="374" y="383"/>
			<point x="408" y="383" type="curve" smooth="yes"/>
			<point x="445" y="383"/>
			<point x="471" y="372"/>
			<point x="471" y="339" type="curve" smooth="yes"/>
			<point x="471" y="296" type="line"/>
			<point x="486" y="318" type="line"/>
			<point x="386" y="318" type="line" smooth="yes"/>
			<point x="285" y="318"/>
			<point x="239" y="269"/>
			<point x="239" y="193" type="curve" smooth="yes"/>
			<point x="239" y="107"/>
			<point x="301" y="61"/>
			<point x="367" y="61" type="curve" smooth="yes"/>
			<point x="420" y="61"/>
			<point x="476" y="91"/>
			<point x="506" y="152" type="curve"/>
			<point x="478" y="151" type="line"/>
			<point x="504" y="87"/>
			<point x="554" y="60"/>
			<point x="632" y="60" type="curve" smooth="yes"/>
			<point x="765" y="60"/>
			<point x="847" y="140"/>
			<point x="847" y="302" type="curve" smooth="yes"/>
			<point x="847" y="544"/>
			<point x="667" y="673"/>
			<point x="445" y="673" type="curve" smooth="yes"/>
			<point x="220" y="673"/>
			<point x="22" y="540"/>
			<point x="22" y="265" type="curve" smooth="yes"/>
			<point x="22" y="18"/>
			<point x="179" y="-116"/>
		</contour>
		<contour>
			<point x="430" y="170" type="curve" smooth="yes"/>
			<point x="413" y="170"/>
			<point x="399" y="182"/>
			<point x="399" y="209" type="curve" smooth="yes"/>
			<point x="399" y="233"/>
			<point x="410" y="246"/>
			<point x="435" y="246" type="curve" smooth="yes"/>
			<point x="486" y="246" type="line"/>
			<point x="471" y="269" type="line"/>
			<point x="471" y="165" type="line"/>
			<point x="483" y="203" type="line"/>
			<point x="465" y="182"/>
			<point x="447" y="170"/>
		</contour>
	</outline>
</glyph>
<glyph name="E" format="2">
	<advance width="596"/>
	<unicode hex="0045"/>
	<anchor x="310" y="0" name="bottom"/>
	<anchor x="561" y="0" name="ogonek"/>
	<anchor x="304" y="710" name="top"/>
	<anchor x="9" y="710" name="topleft"/>
	<outline>
		<contour>
			<point x="443" y="211" type="line"/>
			<point x="419" y="115" type="line"/>
			<point x="456" y="145" type="line"/>
			<point x="259" y="145" type="line"/>
			<point x="289" y="115" type="line"/>
			<point x="289" y="325" type="line"/>
			<point x="259" y="290" type="line"/>
			<point x="468" y="290" type="line"/>
			<point x="468" y="430" type="line"/>
			<point x="259" y="430" type="line"/>
			<point x="289" y="400" type="line"/>
			<point x="289" y="595" type="line"/>
			<point x="259" y="565" type="line"/>
			<point x="444" y="565" type="line"/>
			<point x="408" y="591" type="line"/>
			<point x="431" y="508" type="line"/>
			<point x="551" y="508" type="line"/>
			<point x="551" y="710" type="line"/>
			<point x="284" y="710" type="line"/>
			<point x="24" y="705" type="line"/>
			<point x="24" y="605" type="line"/>
			<point x="108" y="572" type="line"/>
			<point x="84" y="610" type="line"/>
			<point x="84" y="95" type="line"/>
			<point x="109" y="134" type="line"/>
			<point x="24" y="100" type="line"/>
			<point x="24" y="0" type="line"/>
			<point x="561" y="0" type="line"/>
			<point x="563" y="211" type="line"/>
		</contour>
	</outline>
</glyph>
<glyph name="G" format="2">
	<advance width="695"/>
	<unicode hex="0047"/>
	<anchor x="363" y="0" name="bottom"/>
	<anchor x="357" y="710" name="top"/>
	<outline>
		<contour>
			<point x="359" y="-15" type="curve" smooth="yes"/>
			<point x="437" y="-15"/>
			<point x="531" y="4"/>
			<point x="629" y="44" type="curve"/>
			<point x="629" y="277" type="line"/>
			<point x="611" y="244" type="line"/>
			<point x="689" y="272" type="line"/>
			<point x="689" y="377" type="line"/>
			<point x="379" y="372" type="line"/>
			<point x="379" y="268" type="line"/>
			<point x="470" y="244" type="line"/>
			<point x="439" y="277" type="line"/>
			<point x="439" y="114" type="line"/>
			<point x="462" y="154" type="line"/>
			<point x="432" y="144"/>
			<point x="405" y="140"/>
			<point x="383" y="140" type="curve" smooth="yes"/>
			<point x="285" y="140"/>
			<point x="243" y="225"/>
			<point x="243" y="357" type="curve" smooth="yes"/>
			<point x="243" y="506"/>
			<point x="296" y="571"/>
			<point x="395" y="571" type="curve" smooth="yes"/>
			<point x="427" y="571"/>
			<point x="462" y="564"/>
			<point x="501" y="552" type="curve"/>
			<point x="470" y="577" type="line"/>
			<point x="501" y="468" type="line"/>
			<point x="621" y="468" type="line"/>
			<point x="633" y="669" type="line"/>
			<point x="544" y="706"/>
			<point x="456" y="725"/>
			<point x="373" y="725" type="curve" smooth="yes"/>
			<point x="151" y="725"/>
			<point x="23" y="587"/>
			<point x="23" y="353" type="curve" smooth="yes"/>
			<point x="23" y="112"/>
			<point x="158" y="-15"/>
		</contour>
	</outline>
</glyph>
<glyph name="I" format="2">
	<advance width="373"/>
	<unicode hex="0049"/>
	<anchor x="188" y="0" name="bottom"/>
	<anchor x="291" y="0" name="ogonek"/>
	<anchor x="186" y="710" name="top"/>
	<anchor x="9" y="710" name="topleft"/>
	<outline>
		<contour>
			<point x="349" y="610" type="line"/>
			<point x="349" y="710" type="line"/>
			<point x="24" y="705" type="line"/>
			<point x="24" y="605" type="line"/>
			<point x="108" y="571" type="line"/>
			<point x="84" y="600" type="line"/>
			<point x="84" y="105" type="line"/>
			<point x="101" y="131" type="line"/>
			<point x="24" y="100" type="line"/>
			<point x="24" y="0" type="line"/>
			<point x="349" y="0" type="line"/>
			<point x="349" y="100" type="line"/>
			<point x="270" y="132" type="line"/>
			<point x="289" y="105" type="line"/>
			<point x="289" y="600" type="line"/>
			<point x="270" y="572" type="line"/>
		</contour>
	</outline>
</glyph>
<glyph name="J" format="2">
	<advance width="354"/>
	<unicode hex="004A"/>
	<anchor x="177" y="0" name="bottom"/>
	<anchor x="170" y="710" name="top"/>
	<outline>
		<contour>
			<point x="9" y="705" type="line"/>
			<point x="9" y="605" type="line"/>
			<point x="96" y="573" type="line"/>
			<point x="74" y="610" type="line"/>
			<point x="74" y="114" type="line" smooth="yes"/>
			<point x="74" y="12"/>
			<point x="54" y="-37"/>
			<point x="-17" y="-37" type="curve" smooth="yes"/>
			<point x="-27" y="-37"/>
			<point x="-36" y="-36"/>
			<point x="-49" y="-34" type="curve"/>
			<point x="-66" y="-177" type="line"/>
			<point x="-31" y="-183"/>
			<point x="-2" y="-186"/>
			<point x="28" y="-186" type="curve" smooth="yes"/>
			<point x="233" y="-186"/>
			<point x="279" y="-48"/>
			<point x="279" y="158" type="curve" smooth="yes"/>
			<point x="279" y="610" type="line"/>
			<point x="259" y="570" type="line"/>
			<point x="339" y="612" type="line"/>
			<point x="339" y="710" type="line"/>
		</contour>
	</outline>
</glyph>
<glyph name="P" format="2">
	<advance width="625"/>
	<unicode hex="0050"/>
	<anchor x="187" y="0" name="bottom"/>
	<anchor x="308" y="710" name="top"/>
	<outline>
		<contour>
			<point x="315" y="231" type="line" smooth="yes"/>
			<point x="527" y="231"/>
			<point x="614" y="345"/>
			<point x="614" y="480" type="curve" smooth="yes"/>
			<point x="614" y="605"/>
			<point x="539" y="710"/>
			<point x="362" y="710" type="curve" smooth="yes"/>
			<point x="293" y="710" type="line"/>
			<point x="24" y="705" type="line"/>
			<point x="24" y="605" type="line"/>
			<point x="119" y="570" type="line"/>
			<point x="84" y="612" type="line"/>
			<point x="84" y="95" type="line"/>
			<point x="114" y="135" type="line"/>
			<point x="24" y="100" type="line"/>
			<point x="24" y="0" type="line"/>
			<point x="369" y="0" type="line"/>
			<point x="369" y="100" type="line"/>
			<point x="262" y="132" type="line"/>
			<point x="289" y="95" type="line"/>
			<point x="289" y="261" type="line"/>
			<point x="249" y="231" type="line"/>
		</contour>
		<contour>
			<point x="329" y="566" type="line" smooth="yes"/>
			<point x="380" y="566"/>
			<point x="406" y="532"/>
			<point x="406" y="476" type="curve" smooth="yes"/>
			<point x="406" y="417"/>
			<point x="376" y="376"/>
			<point x="315" y="376" type="curve" smooth="yes"/>
			<point x="249" y="376" type="line"/>
			<point x="289" y="346" type="line"/>
			<point x="289" y="596" type="line"/>
			<point x="259" y="566" type="line"/>
		</contour>
	</outline>
</glyph>
<glyph name="V" format="2">
	<advance width="725"/>
	<unicode hex="0056"/>
	<anchor x="362" y="0" name="bottom"/>
	<anchor x="382" y="710" name="top"/>
	<outline>
		<contour>
			<point x="249" y="0" type="line"/>
			<point x="467" y="0" type="line"/>
			<point x="684" y="610" type="line"/>
			<point x="639" y="576" type="line"/>
			<point x="724" y="610" type="line"/>
			<point x="724" y="710" type="line"/>
			<point x="439" y="705" type="line"/>
			<point x="439" y="605" type="line"/>
			<point x="515" y="572" type="line"/>
			<point x="499" y="611" type="line"/>
			<point x="362" y="177" type="line"/>
			<point x="390" y="177" type="line"/>
			<point x="269" y="624" type="line"/>
			<point x="245" y="575" type="line"/>
			<point x="330" y="610" type="line"/>
			<point x="330" y="710" type="line"/>
			<point x="3" y="705" type="line"/>
			<point x="3" y="605" type="line"/>
			<point x="89" y="571" type="line"/>
			<point x="43" y="605" type="line"/>
		</contour>
	</outline>
</glyph>
<glyph name="backslash" format="2">
	<advance width="383"/>
	<unicode hex="005C"/>
	<outline>
		<contour>
			<point x="-10" y="813" type="line"/>
			<point x="253" y="-90" type="line"/>
			<point x="393" y="-90" type="line"/>
			<point x="132" y="813" type="line"/>
		</contour>
	</outline>
</glyph>
<glyph name="underscore" format="2">
	<advance width="488"/>
	<unicode hex="005F"/>
	<outline>
		<contour>
			<point x="489" y="-51" type="line"/>
			<point x="-1" y="-51" type="line"/>
			<point x="-1" y="-176" type="line"/>
			<point x="489" y="-176" type="line"/>
		</contour>
	</outline>
</glyph>
<glyph name="a" format="2">
	<advance width="575"/>
	<unicode hex="0061"/>
	<anchor x="287" y="0" name="bottom"/>
	<anchor x="482" y="0" name="ogonek"/>
	<anchor x="287" y="540" name="top"/>
	<outline>
		<contour>
			<point x="517" y="97" type="line"/>
			<point x="517" y="376" type="line" smooth="yes"/>
			<point x="517" y="497"/>
			<point x="448" y="555"/>
			<point x="305" y="555" type="curve" smooth="yes"/>
			<point x="236" y="555"/>
			<point x="150" y="542"/>
			<point x="46" y="515" type="curve"/>
			<point x="54" y="348" type="line"/>
			<point x="174" y="348" type="line"/>
			<point x="190" y="419" type="line"/>
			<point x="175" y="401" type="line"/>
			<point x="203" y="407"/>
			<point x="229" y="410"/>
			<point x="249" y="410" type="curve" smooth="yes"/>
			<point x="297" y="410"/>
			<point x="317" y="390"/>
			<point x="317" y="339" type="curve" smooth="yes"/>
			<point x="317" y="303" type="line"/>
			<point x="327" y="313" type="line"/>
			<point x="239" y="313" type="line" smooth="yes"/>
			<point x="85" y="313"/>
			<point x="15" y="263"/>
			<point x="15" y="154" type="curve" smooth="yes"/>
			<point x="15" y="51"/>
			<point x="77" y="-15"/>
			<point x="174" y="-15" type="curve" smooth="yes"/>
			<point x="244" y="-15"/>
			<point x="303" y="18"/>
			<point x="348" y="81" type="curve"/>
			<point x="336" y="84" type="line"/>
			<point x="361" y="-10" type="line"/>
			<point x="572" y="0" type="line"/>
			<point x="572" y="100" type="line"/>
			<point x="491" y="136" type="line"/>
		</contour>
		<contour>
			<point x="215" y="178" type="curve" smooth="yes"/>
			<point x="215" y="211"/>
			<point x="230" y="223"/>
			<point x="272" y="223" type="curve" smooth="yes"/>
			<point x="328" y="223" type="line"/>
			<point x="317" y="234" type="line"/>
			<point x="317" y="135" type="line"/>
			<point x="323" y="157" type="line"/>
			<point x="304" y="136"/>
			<point x="280" y="124"/>
			<point x="259" y="124" type="curve" smooth="yes"/>
			<point x="234" y="124"/>
			<point x="215" y="141"/>
		</contour>
	</outline>
</glyph>
<glyph name="h" format="2">
	<advance width="640"/>
	<unicode hex="0068"/>
	<anchor x="315" y="0" name="bottom"/>
	<anchor x="162" y="655" name="center"/>
	<anchor x="145" y="710" name="top"/>
	<outline>
		<contour>
			<point x="7" y="0" type="line"/>
			<point x="307" y="0" type="line"/>
			<point x="307" y="100" type="line"/>
			<point x="246" y="126" type="line"/>
			<point x="262" y="99" type="line"/>
			<point x="262" y="395" type="line"/>
			<point x="249" y="368" type="line"/>
			<point x="277" y="392"/>
			<point x="306" y="405"/>
			<point x="329" y="405" type="curve" smooth="yes"/>
			<point x="360" y="405"/>
			<point x="382" y="383"/>
			<point x="382" y="337" type="curve" smooth="yes"/>
			<point x="382" y="99" type="line"/>
			<point x="403" y="127" type="line"/>
			<point x="337" y="100" type="line"/>
			<point x="337" y="0" type="line"/>
			<point x="637" y="0" type="line"/>
			<point x="637" y="100" type="line"/>
			<point x="566" y="129" type="line"/>
			<point x="582" y="103" type="line"/>
			<point x="582" y="380" type="line" smooth="yes"/>
			<point x="582" y="496"/>
			<point x="510" y="555"/>
			<point x="420" y="555" type="curve" smooth="yes"/>
			<point x="355" y="555"/>
			<point x="280" y="523"/>
			<point x="217" y="461" type="curve"/>
			<point x="262" y="453" type="line"/>
			<point x="262" y="785" type="line"/>
			<point x="7" y="775" type="line"/>
			<point x="7" y="675" type="line"/>
			<point x="84" y="645" type="line"/>
			<point x="62" y="675" type="line"/>
			<point x="62" y="103" type="line"/>
			<point x="84" y="130" type="line"/>
			<point x="7" y="100" type="line"/>
		</contour>
	</outline>
</glyph>
<glyph name="o" format="2">
	<advance width="578"/>
	<unicode hex="006F"/>
	<anchor x="289" y="0" name="bottom"/>
	<anchor x="289" y="270" name="center"/>
	<anchor x="383" y="0" name="ogonek"/>
	<anchor x="289" y="540" name="top"/>
	<anchor x="498" y="540" name="topright"/>
	<outline>
		<contour>
			<point x="297" y="555" type="curve" smooth="yes"/>
			<point x="117" y="555"/>
			<point x="14" y="446"/>
			<point x="14" y="261" type="curve" smooth="yes"/>
			<point x="14" y="85"/>
			<point x="107" y="-15"/>
			<point x="278" y="-15" type="curve" smooth="yes"/>
			<point x="456" y="-15"/>
			<point x="564" y="93"/>
			<point x="564" y="280" type="curve" smooth="yes"/>
			<point x="564" y="457"/>
			<point x="467" y="555"/>
		</contour>
		<contour>
			<point x="288" y="415" type="curve" smooth="yes"/>
			<point x="339" y="415"/>
			<point x="356" y="379"/>
			<point x="356" y="272" type="curve" smooth="yes"/>
			<point x="356" y="165"/>
			<point x="339" y="125"/>
			<point x="288" y="125" type="curve" smooth="yes"/>
			<point x="239" y="125"/>
			<point x="222" y="162"/>
			<point x="222" y="270" type="curve" smooth="yes"/>
			<point x="222" y="378"/>
			<point x="239" y="415"/>
		</contour>
	</outline>
</glyph>
<glyph name="dieresis" format="2">
	<advance width="480"/>
	<unicode hex="00A8"/>
	<outline>
		<contour>
			<point x="360" y="604" type="curve" smooth="yes"/>
			<point x="412" y="604"/>
			<point x="453" y="640"/>
			<point x="453" y="701" type="curve" smooth="yes"/>
			<point x="453" y="761"/>
			<point x="418" y="798"/>
			<point x="360" y="798" type="curve" smooth="yes"/>
			<point x="308" y="798"/>
			<point x="267" y="761"/>
			<point x="268" y="701" type="curve" smooth="yes"/>
			<point x="269" y="640"/>
			<point x="301" y="604"/>
		</contour>
		<contour>
			<point x="118" y="604" type="curve" smooth="yes"/>
			<point x="170" y="604"/>
			<point x="212" y="640"/>
			<point x="212" y="701" type="curve" smooth="yes"/>
			<point x="212" y="761"/>
			<point x="177" y="798"/>
			<point x="118" y="798" type="curve" smooth="yes"/>
			<point x="66" y="798"/>
			<point x="26" y="761"/>
			<point x="27" y="701" type="curve" smooth="yes"/>
			<point x="28" y="640"/>
			<point x="60" y="604"/>
		</contour>
	</outline>
</glyph>
<glyph name="degree" format="2">
	<advance width="437"/>
	<unicode hex="00B0"/>
	<outline>
		<contour>
			<point x="206" y="403" type="curve" smooth="yes"/>
			<point x="312" y="403"/>
			<point x="387" y="471"/>
			<point x="387" y="580" type="curve" smooth="yes"/>
			<point x="387" y="682"/>
			<point x="312" y="747"/>
			<point x="206" y="747" type="curve" smooth="yes"/>
			<point x="100" y="747"/>
			<point x="25" y="677"/>
			<point x="25" y="575" type="curve" smooth="yes"/>
			<point x="25" y="466"/>
			<point x="100" y="403"/>
		</contour>
		<contour>
			<point x="206" y="509" type="curve" smooth="yes"/>
			<point x="173" y="509"/>
			<point x="156" y="530"/>
			<point x="156" y="578" type="curve" smooth="yes"/>
			<point x="156" y="624"/>
			<point x="176" y="642"/>
			<point x="206" y="642" type="curve" smooth="yes"/>
			<point x="236" y="642"/>
			<point x="257" y="624"/>
			<point x="257" y="578" type="curve" smooth="yes"/>
			<point x="257" y="530"/>
			<point x="239" y="509"/>
		</contour>
	</outline>
</glyph>
<glyph name="plusminus" format="2">
	<advance width="562"/>
	<unicode hex="00B1"/>
	<guideline x="518" y="635" angle="90"/>
	<guideline x="545" y="54" angle="0"/>
	<guideline x="545" y="648" angle="0"/>
	<guideline x="44" y="365" angle="90"/>
	<outline>
		<contour>
			<point x="236" y="513" type="line"/>
			<point x="43" y="513" type="line"/>
			<point x="44" y="373" type="line"/>
			<point x="236" y="373" type="line"/>
			<point x="206" y="403" type="line"/>
			<point x="206" y="220" type="line"/>
			<point x="356" y="220" type="line"/>
			<point x="356" y="403" type="line"/>
			<point x="326" y="373" type="line"/>
			<point x="518" y="373" type="line"/>
			<point x="518" y="513" type="line"/>
			<point x="326" y="513" type="line"/>
			<point x="356" y="483" type="line"/>
			<point x="356" y="666" type="line"/>
			<point x="206" y="666" type="line"/>
			<point x="206" y="483" type="line"/>
		</contour>
		<contour>
			<point x="518" y="169" type="line"/>
			<point x="44" y="169" type="line"/>
			<point x="44" y="29" type="line"/>
			<point x="518" y="29" type="line"/>
		</contour>
	</outline>
</glyph>
<glyph name="micro" format="2">
	<advance width="663"/>
	<unicode hex="00B5"/>
	<outline>
		<contour>
			<point x="145" y="89" type="line"/>
			<point x="168" y="17"/>
			<point x="209" y="-15"/>
			<point x="258" y="-15" type="curve" smooth="yes"/>
			<point x="308" y="-15"/>
			<point x="367" y="19"/>
			<point x="423" y="79" type="curve"/>
			<point x="403" y="87" type="line"/>
			<point x="429" y="-10" type="line"/>
			<point x="640" y="0" type="line"/>
			<point x="640" y="100" type="line"/>
			<point x="563" y="134" type="line"/>
			<point x="585" y="100" type="line"/>
			<point x="585" y="545" type="line"/>
			<point x="330" y="536" type="line"/>
			<point x="330" y="436" type="line"/>
			<point x="401" y="407" type="line"/>
			<point x="385" y="437" type="line"/>
			<point x="385" y="146" type="line"/>
			<point x="397" y="174" type="line"/>
			<point x="367" y="148"/>
			<point x="336" y="135"/>
			<point x="312" y="135" type="curve" smooth="yes"/>
			<point x="284" y="135"/>
			<point x="265" y="153"/>
			<point x="265" y="190" type="curve" smooth="yes"/>
			<point x="265" y="544" type="line"/>
			<point x="10" y="536" type="line"/>
			<point x="10" y="436" type="line"/>
			<point x="81" y="407" type="line"/>
			<point x="65" y="433" type="line"/>
			<point x="65" y="-230" type="line"/>
			<point x="265" y="-230" type="line"/>
			<point x="265" y="-74"/>
			<point x="212" y="-5"/>
			<point x="189" y="39" type="curve"/>
		</contour>
	</outline>
</glyph>
<glyph name="cedilla" format="2">
	<advance width="322"/>
	<unicode hex="00B8"/>
	<outline>
		<contour>
			<point x="136" y="-275" type="curve" smooth="yes"/>
			<point x="228" y="-275"/>
			<point x="312" y="-232"/>
			<point x="312" y="-146" type="curve" smooth="yes"/>
			<point x="312" y="-89"/>
			<point x="266" y="-49"/>
			<point x="189" y="-39" type="curve"/>
			<point x="189" y="0" type="line"/>
			<point x="74" y="0" type="line"/>
			<point x="66" y="-117" type="line"/>
			<point x="117" y="-119"/>
			<point x="172" y="-129"/>
			<point x="172" y="-151" type="curve" smooth="yes"/>
			<point x="172" y="-166"/>
			<point x="157" y="-172"/>
			<point x="135" y="-172" type="curve" smooth="yes"/>
			<point x="109" y="-172"/>
			<point x="73" y="-164"/>
			<point x="45" y="-154" type="curve"/>
			<point x="9" y="-246" type="line"/>
			<point x="48" y="-266"/>
			<point x="93" y="-275"/>
		</contour>
	</outline>
</glyph>
<glyph name="Eth" format="2">
	<advance width="706"/>
	<unicode hex="00D0"/>
	<guideline x="24" y="241" angle="90"/>
	<anchor x="329" y="0" name="bottom"/>
	<anchor x="204" y="360" name="center"/>
	<anchor x="309" y="710" name="top"/>
	<outline>
		<contour>
			<point x="354" y="710" type="curve" smooth="yes"/>
			<point x="289" y="710" type="line"/>
			<point x="24" y="705" type="line"/>
			<point x="24" y="605" type="line"/>
			<point x="112" y="570" type="line"/>
			<point x="84" y="610" type="line"/>
			<point x="84" y="95" type="line"/>
			<point x="110" y="134" type="line"/>
			<point x="24" y="100" type="line"/>
			<point x="24" y="0" type="line"/>
			<point x="329" y="0" type="line" smooth="yes"/>
			<point x="555" y="0"/>
			<point x="685" y="130"/>
			<point x="685" y="369" type="curve" smooth="yes"/>
			<point x="685" y="590"/>
			<point x="570" y="710"/>
		</contour>
		<contour>
			<point x="339" y="145" type="curve" smooth="yes"/>
			<point x="259" y="145" type="line"/>
			<point x="289" y="115" type="line"/>
			<point x="289" y="595" type="line"/>
			<point x="259" y="565" type="line"/>
			<point x="349" y="565" type="line" smooth="yes"/>
			<point x="395" y="565"/>
			<point x="465" y="565"/>
			<point x="465" y="358" type="curve" smooth="yes"/>
			<point x="465" y="145"/>
			<point x="391" y="145"/>
		</contour>
		<contour>
			<point x="24.455" y="293.6" type="line"/>
			<point x="383.455" y="293.6" type="line"/>
			<point x="383.455" y="425.6" type="line"/>
			<point x="24.455" y="425.6" type="line"/>
		</contour>
	</outline>
</glyph>
<glyph name="Thorn" format="2">
	<advance width="615"/>
	<unicode hex="00DE"/>
	<anchor x="187" y="0" name="bottom"/>
	<anchor x="187" y="710" name="top"/>
	<outline>
		<contour>
			<point x="24" y="0" type="line"/>
			<point x="364" y="0" type="line"/>
			<point x="364" y="100" type="line"/>
			<point x="264" y="134" type="line"/>
			<point x="289" y="97" type="line"/>
			<point x="289" y="191" type="line"/>
			<point x="259" y="156" type="line"/>
			<point x="351" y="156" type="line" smooth="yes"/>
			<point x="504" y="156"/>
			<point x="604" y="222"/>
			<point x="604" y="373" type="curve" smooth="yes"/>
			<point x="604" y="506"/>
			<point x="527" y="559"/>
			<point x="391" y="559" type="curve" smooth="yes"/>
			<point x="259" y="559" type="line"/>
			<point x="289" y="524" type="line"/>
			<point x="289" y="606" type="line"/>
			<point x="268" y="568" type="line"/>
			<point x="349" y="610" type="line"/>
			<point x="349" y="710" type="line"/>
			<point x="24" y="705" type="line"/>
			<point x="24" y="605" type="line"/>
			<point x="108" y="571" type="line"/>
			<point x="84" y="610" type="line"/>
			<point x="84" y="95" type="line"/>
			<point x="108" y="133" type="line"/>
			<point x="24" y="100" type="line"/>
		</contour>
		<contour>
			<point x="289" y="266" type="line"/>
			<point x="289" y="449" type="line"/>
			<point x="259" y="419" type="line"/>
			<point x="320" y="419" type="line" smooth="yes"/>
			<point x="357" y="419"/>
			<point x="399" y="419"/>
			<point x="399" y="360" type="curve" smooth="yes"/>
			<point x="399" y="296"/>
			<point x="351" y="296"/>
			<point x="308" y="296" type="curve" smooth="yes"/>
			<point x="259" y="296" type="line"/>
		</contour>
	</outline>
</glyph>
<glyph name="eth" format="2">
	<advance width="579"/>
	<unicode hex="00F0"/>
	<outline>
		<contour>
			<point x="268" y="-15" type="curve" smooth="yes"/>
			<point x="482" y="-15"/>
			<point x="559" y="143"/>
			<point x="559" y="319" type="curve" smooth="yes"/>
			<point x="559" y="555"/>
			<point x="423" y="795"/>
			<point x="107" y="795" type="curve"/>
			<point x="92" y="655" type="line"/>
			<point x="241" y="650"/>
			<point x="347" y="586"/>
			<point x="372" y="418" type="curve"/>
			<point x="390" y="409" type="line"/>
			<point x="355" y="461"/>
			<point x="296" y="483"/>
			<point x="235" y="483" type="curve" smooth="yes"/>
			<point x="114" y="483"/>
			<point x="9" y="397"/>
			<point x="9" y="235" type="curve" smooth="yes"/>
			<point x="9" y="91"/>
			<point x="93" y="-15"/>
		</contour>
		<contour>
			<point x="283" y="125" type="curve" smooth="yes"/>
			<point x="244" y="125"/>
			<point x="217" y="150"/>
			<point x="217" y="239" type="curve" smooth="yes"/>
			<point x="217" y="336"/>
			<point x="249" y="352"/>
			<point x="284" y="352" type="curve" smooth="yes"/>
			<point x="324" y="352"/>
			<point x="351" y="331"/>
			<point x="351" y="243" type="curve" smooth="yes"/>
			<point x="351" y="146"/>
			<point x="318" y="125"/>
		</contour>
		<contour>
			<point x="206" y="518" type="line"/>
			<point x="479" y="720" type="line"/>
			<point x="418" y="799" type="line"/>
			<point x="145" y="596" type="line"/>
		</contour>
	</outline>
</glyph>
<glyph name="thorn" format="2">
	<advance width="603"/>
	<unicode hex="00FE"/>
	<outline>
		<contour>
			<point x="-4" y="-230" type="line"/>
			<point x="316" y="-230" type="line"/>
			<point x="316" y="-130" type="line"/>
			<point x="234" y="-100" type="line"/>
			<point x="251" y="-128" type="line"/>
			<point x="251" y="6" type="line"/>
			<point x="228" y="-6" type="line"/>
			<point x="258" y="-12"/>
			<point x="287" y="-15"/>
			<point x="315" y="-15" type="curve" smooth="yes"/>
			<point x="476" y="-15"/>
			<point x="588" y="84"/>
			<point x="588" y="288" type="curve" smooth="yes"/>
			<point x="588" y="461"/>
			<point x="508" y="555"/>
			<point x="391" y="555" type="curve" smooth="yes"/>
			<point x="324" y="555"/>
			<point x="269" y="525"/>
			<point x="207" y="470" type="curve"/>
			<point x="251" y="480" type="line"/>
			<point x="251" y="785" type="line"/>
			<point x="-4" y="775" type="line"/>
			<point x="-4" y="675" type="line"/>
			<point x="76" y="640" type="line"/>
			<point x="51" y="672" type="line"/>
			<point x="51" y="-128" type="line"/>
			<point x="74" y="-96" type="line"/>
			<point x="-4" y="-130" type="line"/>
		</contour>
		<contour>
			<point x="287" y="125" type="curve" smooth="yes"/>
			<point x="270" y="125"/>
			<point x="249" y="128"/>
			<point x="228" y="133" type="curve"/>
			<point x="251" y="110" type="line"/>
			<point x="251" y="402" type="line"/>
			<point x="228" y="370" type="line"/>
			<point x="260" y="396"/>
			<point x="286" y="410"/>
			<point x="310" y="410" type="curve" smooth="yes"/>
			<point x="359" y="410"/>
			<point x="380" y="352"/>
			<point x="380" y="267" type="curve" smooth="yes"/>
			<point x="380" y="181"/>
			<point x="359" y="125"/>
		</contour>
	</outline>
</glyph>
<glyph name="Hbar" format="2">
	<advance width="789"/>
	<unicode hex="0126"/>
	<guideline x="29" y="540" angle="90"/>
	<guideline x="760" y="540" angle="90"/>
	<outline>
		<contour>
			<point x="29" y="460" type="line"/>
			<point x="760" y="460" type="line"/>
			<point x="760" y="555" type="line"/>
			<point x="29" y="555" type="line"/>
		</contour>
		<contour>
			<point x="29" y="0" type="line"/>
			<point x="354" y="0" type="line"/>
			<point x="354" y="100" type="line"/>
			<point x="270" y="134" type="line"/>
			<point x="294" y="95" type="line"/>
			<point x="294" y="305" type="line"/>
			<point x="264" y="275" type="line"/>
			<point x="525" y="275" type="line"/>
			<point x="495" y="305" type="line"/>
			<point x="495" y="95" type="line"/>
			<point x="519" y="134" type="line"/>
			<point x="435" y="100" type="line"/>
			<point x="435" y="0" type="line"/>
			<point x="760" y="0" type="line"/>
			<point x="760" y="100" type="line"/>
			<point x="674" y="134" type="line"/>
			<point x="700" y="95" type="line"/>
			<point x="700" y="611" type="line"/>
			<point x="674" y="570" type="line"/>
			<point x="760" y="610" type="line"/>
			<point x="760" y="710" type="line"/>
			<point x="435" y="705" type="line"/>
			<point x="435" y="605" type="line"/>
			<point x="525" y="569" type="line"/>
			<point x="495" y="610" type="line"/>
			<point x="495" y="385" type="line"/>
			<point x="525" y="415" type="line"/>
			<point x="264" y="415" type="line"/>
			<point x="294" y="385" type="line"/>
			<point x="294" y="611" type="line"/>
			<point x="265" y="569" type="line"/>
			<point x="354" y="610" type="line"/>
			<point x="354" y="710" type="line"/>
			<point x="29" y="705" type="line"/>
			<point x="29" y="605" type="line"/>
			<point x="121" y="569" type="line"/>
			<point x="89" y="610" type="line"/>
			<point x="89" y="95" type="line"/>
			<point x="114" y="134" type="line"/>
			<point x="29" y="100" type="line"/>
		</contour>
	</outline>
</glyph>
<glyph name="kgreenlandic" format="2">
	<advance width="634"/>
	<unicode hex="0138"/>
	<guideline x="299" y="227" angle="0"/>
	<guideline x="299" y="357" angle="0"/>
	<guideline x="405" y="357" angle="180"/>
	<outline>
		<contour>
			<point x="21" y="0" type="line"/>
			<point x="326" y="0" type="line"/>
			<point x="326" y="100" type="line"/>
			<point x="258" y="131" type="line"/>
			<point x="276" y="95" type="line"/>
			<point x="276" y="243" type="line"/>
			<point x="245" y="227" type="line"/>
			<point x="347" y="227" type="line"/>
			<point x="319" y="243" type="line"/>
			<point x="427" y="0" type="line"/>
			<point x="626" y="0" type="line"/>
			<point x="626" y="100" type="line"/>
			<point x="557" y="123" type="line"/>
			<point x="583" y="99" type="line"/>
			<point x="470" y="328" type="line"/>
			<point x="464" y="284" type="line"/>
			<point x="586" y="453" type="line"/>
			<point x="530" y="424" type="line"/>
			<point x="612" y="445" type="line"/>
			<point x="612" y="545" type="line"/>
			<point x="345" y="535" type="line"/>
			<point x="345" y="435" type="line"/>
			<point x="398" y="420" type="line"/>
			<point x="389" y="439" type="line"/>
			<point x="318" y="338" type="line"/>
			<point x="363" y="357" type="line"/>
			<point x="245" y="357" type="line"/>
			<point x="276" y="335" type="line"/>
			<point x="276" y="545" type="line"/>
			<point x="21" y="535" type="line"/>
			<point x="21" y="435" type="line"/>
			<point x="88" y="409" type="line"/>
			<point x="76" y="429" type="line"/>
			<point x="76" y="95" type="line"/>
			<point x="98" y="130" type="line"/>
			<point x="21" y="100" type="line"/>
		</contour>
	</outline>
</glyph>
<glyph name="lslash" format="2">
	<advance width="403"/>
	<unicode hex="0142"/>
	<guideline x="202" y="480" angle="90"/>
	<anchor x="202" y="0" name="bottom"/>
	<anchor x="202" y="750" name="top"/>
	<anchor x="342" y="780" name="topright"/>
	<outline>
		<contour>
			<point x="45" y="266" type="line"/>
			<point x="395" y="426" type="line"/>
			<point x="358" y="536" type="line"/>
			<point x="8" y="376" type="line"/>
		</contour>
		<contour>
			<point x="302" y="112" type="line"/>
			<point x="302" y="785" type="line"/>
			<point x="47" y="775" type="line"/>
			<point x="47" y="675" type="line"/>
			<point x="112" y="650" type="line"/>
			<point x="102" y="661" type="line"/>
			<point x="102" y="112" type="line"/>
			<point x="114" y="127" type="line"/>
			<point x="47" y="100" type="line"/>
			<point x="47" y="0" type="line"/>
			<point x="357" y="0" type="line"/>
			<point x="357" y="100" type="line"/>
			<point x="290" y="127" type="line"/>
		</contour>
	</outline>
</glyph>
<glyph name="oe" format="2">
	<advance width="903"/>
	<unicode hex="0153"/>
	<anchor x="451" y="0" name="bottom"/>
	<anchor x="451" y="540" name="top"/>
	<outline>
		<contour>
			<point x="281" y="-15" type="curve" smooth="yes"/>
			<point x="392" y="-15"/>
			<point x="455" y="21"/>
			<point x="494" y="90" type="curve"/>
			<point x="434" y="93" type="line"/>
			<point x="468" y="22"/>
			<point x="532" y="-15"/>
			<point x="627" y="-15" type="curve" smooth="yes"/>
			<point x="708" y="-15"/>
			<point x="795" y="12"/>
			<point x="876" y="68" type="curve"/>
			<point x="811" y="172" type="line"/>
			<point x="759" y="145"/>
			<point x="711" y="131"/>
			<point x="675" y="131" type="curve" smooth="yes"/>
			<point x="605" y="131"/>
			<point x="585" y="182"/>
			<point x="580" y="238" type="curve" smooth="yes"/>
			<point x="579" y="250"/>
			<point x="579" y="255"/>
			<point x="579" y="262" type="curve"/>
			<point x="537" y="222" type="line"/>
			<point x="876" y="222" type="line"/>
			<point x="882" y="253"/>
			<point x="885" y="283"/>
			<point x="885" y="312" type="curve" smooth="yes"/>
			<point x="885" y="449"/>
			<point x="817" y="555"/>
			<point x="651" y="555" type="curve" smooth="yes"/>
			<point x="555" y="555"/>
			<point x="488" y="520"/>
			<point x="449" y="456" type="curve"/>
			<point x="505" y="453" type="line"/>
			<point x="473" y="519"/>
			<point x="406" y="555"/>
			<point x="298" y="555" type="curve" smooth="yes"/>
			<point x="121" y="555"/>
			<point x="14" y="459"/>
			<point x="14" y="260" type="curve" smooth="yes"/>
			<point x="14" y="66"/>
			<point x="115" y="-15"/>
		</contour>
		<contour>
			<point x="293" y="125" type="curve" smooth="yes"/>
			<point x="247" y="125"/>
			<point x="222" y="150"/>
			<point x="222" y="269" type="curve" smooth="yes"/>
			<point x="222" y="399"/>
			<point x="252" y="415"/>
			<point x="293" y="415" type="curve" smooth="yes"/>
			<point x="342" y="415"/>
			<point x="367" y="393"/>
			<point x="367" y="276" type="curve" smooth="yes"/>
			<point x="367" y="147"/>
			<point x="337" y="125"/>
		</contour>
		<contour>
			<point x="577" y="306" type="line"/>
			<point x="579" y="360"/>
			<point x="587" y="415"/>
			<point x="633" y="415" type="curve" smooth="yes"/>
			<point x="671" y="415"/>
			<point x="682" y="378"/>
			<point x="679" y="300" type="curve"/>
			<point x="711" y="325" type="line"/>
			<point x="537" y="325" type="line"/>
		</contour>
	</outline>
</glyph>
<glyph name="florin" format="2">
	<advance width="567"/>
	<unicode hex="0192"/>
	<outline>
		<contour>
			<point x="101" y="-208" type="curve" smooth="yes"/>
			<point x="249" y="-208"/>
			<point x="340" y="-115"/>
			<point x="357" y="64" type="curve" smooth="yes"/>
			<point x="388" y="393" type="line"/>
			<point x="345" y="357" type="line"/>
			<point x="508" y="357" type="line"/>
			<point x="511" y="477" type="line"/>
			<point x="356" y="477" type="line"/>
			<point x="393" y="450" type="line"/>
			<point x="402" y="547" type="line" smooth="yes"/>
			<point x="407" y="606"/>
			<point x="414" y="647"/>
			<point x="494" y="647" type="curve" smooth="yes"/>
			<point x="507" y="647"/>
			<point x="526" y="646"/>
			<point x="547" y="644" type="curve"/>
			<point x="562" y="781" type="line"/>
			<point x="523" y="790"/>
			<point x="486" y="795"/>
			<point x="452" y="795" type="curve" smooth="yes"/>
			<point x="316" y="795"/>
			<point x="221" y="720"/>
			<point x="203" y="528" type="curve" smooth="yes"/>
			<point x="196" y="452" type="line"/>
			<point x="246" y="484" type="line"/>
			<point x="122" y="462" type="line"/>
			<point x="122" y="357" type="line"/>
			<point x="228" y="357" type="line"/>
			<point x="190" y="380" type="line"/>
			<point x="158" y="38" type="line" smooth="yes"/>
			<point x="153" y="-18"/>
			<point x="147" y="-60"/>
			<point x="66" y="-60" type="curve" smooth="yes"/>
			<point x="54" y="-60"/>
			<point x="35" y="-59"/>
			<point x="14" y="-57" type="curve"/>
			<point x="-2" y="-194" type="line"/>
			<point x="35" y="-204"/>
			<point x="71" y="-208"/>
		</contour>
	</outline>
</glyph>
<glyph name="ohorn" format="2">
	<advance width="584"/>
	<unicode hex="01A1"/>
	<anchor x="289" y="0" name="bottom"/>
	<anchor x="256" y="540" name="top"/>
	<outline>
		<contour>
			<point x="275" y="-15" type="curve" smooth="yes"/>
			<point x="459" y="-15"/>
			<point x="564" y="94"/>
			<point x="564" y="283" type="curve" smooth="yes"/>
			<point x="564" y="456"/>
			<point x="467" y="555"/>
			<point x="298" y="555" type="curve" smooth="yes"/>
			<point x="117" y="555"/>
			<point x="14" y="447"/>
			<point x="14" y="259" type="curve" smooth="yes"/>
			<point x="14" y="85"/>
			<point x="109" y="-15"/>
		</contour>
		<contour>
			<point x="288" y="125" type="curve" smooth="yes"/>
			<point x="239" y="125"/>
			<point x="222" y="162"/>
			<point x="222" y="270" type="curve" smooth="yes"/>
			<point x="222" y="378"/>
			<point x="239" y="415"/>
			<point x="288" y="415" type="curve" smooth="yes"/>
			<point x="339" y="415"/>
			<point x="356" y="379"/>
			<point x="356" y="276" type="curve" smooth="yes"/>
			<point x="356" y="164"/>
			<point x="339" y="125"/>
		</contour>
		<contour>
			<point x="386" y="451" type="line"/>
			<point x="515" y="450"/>
			<point x="594" y="497"/>
			<point x="594" y="586" type="curve" smooth="yes"/>
			<point x="594" y="619"/>
			<point x="583" y="657"/>
			<point x="561" y="700" type="curve"/>
			<point x="419" y="670" type="line"/>
			<point x="430" y="640"/>
			<point x="437" y="614"/>
			<point x="437" y="594" type="curve" smooth="yes"/>
			<point x="437" y="563"/>
			<point x="420" y="545"/>
			<point x="379" y="544" type="curve"/>
		</contour>
	</outline>
</glyph>
<glyph name="Uhorn" format="2">
	<advance width="757"/>
	<unicode hex="01AF"/>
	<anchor x="364" y="0" name="bottom"/>
	<anchor x="371" y="710" name="top"/>
	<outline>
		<contour>
			<point x="578" y="609" type="line"/>
			<point x="708" y="604"/>
			<point x="782" y="665"/>
			<point x="782" y="752" type="curve" smooth="yes"/>
			<point x="782" y="786"/>
			<point x="771" y="824"/>
			<point x="749" y="867" type="curve"/>
			<point x="607" y="837" type="line"/>
			<point x="619" y="806"/>
			<point x="626" y="779"/>
			<point x="626" y="759" type="curve" smooth="yes"/>
			<point x="626" y="728"/>
			<point x="608" y="710"/>
			<point x="565" y="709" type="curve" smooth="yes"/>
			<point x="403" y="705" type="line"/>
			<point x="403" y="605" type="line"/>
			<point x="479" y="575" type="line"/>
			<point x="463" y="621" type="line"/>
			<point x="463" y="285" type="line" smooth="yes"/>
			<point x="463" y="183"/>
			<point x="444" y="140"/>
			<point x="365" y="140" type="curve" smooth="yes"/>
			<point x="289" y="140"/>
			<point x="273" y="180"/>
			<point x="273" y="270" type="curve" smooth="yes"/>
			<point x="273" y="620" type="line"/>
			<point x="255" y="572" type="line"/>
			<point x="333" y="610" type="line"/>
			<point x="333" y="710" type="line"/>
			<point x="8" y="705" type="line"/>
			<point x="8" y="605" type="line"/>
			<point x="89" y="573" type="line"/>
			<point x="68" y="620" type="line"/>
			<point x="68" y="270" type="line" smooth="yes"/>
			<point x="68" y="70"/>
			<point x="165" y="-15"/>
			<point x="359" y="-15" type="curve" smooth="yes"/>
			<point x="555" y="-15"/>
			<point x="668" y="73"/>
			<point x="668" y="285" type="curve" smooth="yes"/>
			<point x="668" y="647" type="line"/>
		</contour>
	</outline>
</glyph>
<glyph name="caron" format="2">
	<advance width="408"/>
	<unicode hex="02C7"/>
	<outline>
		<contour>
			<point x="355" y="847" type="line"/>
			<point x="137" y="704" type="line"/>
			<point x="278" y="702" type="line"/>
			<point x="54" y="847" type="line"/>
			<point x="-11" y="776" type="line"/>
			<point x="154" y="608" type="line"/>
			<point x="266" y="619" type="line"/>
			<point x="418" y="776" type="line"/>
		</contour>
	</outline>
</glyph>
<glyph name="hungarumlaut" format="2">
	<advance width="452"/>
	<unicode hex="02DD"/>
	<outline>
		<contour>
			<point x="306" y="592" type="line"/>
			<point x="435" y="804" type="line"/>
			<point x="305" y="872" type="line"/>
			<point x="206" y="641" type="line"/>
		</contour>
		<contour>
			<point x="114" y="592" type="line"/>
			<point x="235" y="809" type="line"/>
			<point x="103" y="872" type="line"/>
			<point x="12" y="639" type="line"/>
		</contour>
	</outline>
</glyph>
<glyph name="hookabovecomb" format="2">
	<advance width="278"/>
	<unicode hex="0309"/>
	<anchor x="127" y="540" name="_top"/>
	<anchor x="127" y="780" name="top"/>
	<outline>
		<contour>
			<point x="54" y="592" type="line"/>
			<point x="177" y="592" type="line"/>
			<point x="177" y="638" type="line"/>
			<point x="247" y="652"/>
			<point x="275" y="692"/>
			<point x="275" y="743" type="curve" smooth="yes"/>
			<point x="275" y="823"/>
			<point x="208" y="858"/>
			<point x="124" y="858" type="curve" smooth="yes"/>
			<point x="84" y="858"/>
			<point x="42" y="850"/>
			<point x="1" y="836" type="curve"/>
			<point x="24" y="749" type="line"/>
			<point x="46" y="755"/>
			<point x="70" y="760"/>
			<point x="90" y="760" type="curve" smooth="yes"/>
			<point x="114" y="760"/>
			<point x="132" y="753"/>
			<point x="132" y="733" type="curve" smooth="yes"/>
			<point x="132" y="709"/>
			<point x="106" y="696"/>
			<point x="54" y="693" type="curve"/>
		</contour>
	</outline>
</glyph>
<glyph name="Dje-cy" format="2">
	<advance width="793"/>
	<unicode hex="0402"/>
	<outline>
		<contour>
			<point x="488" y="-8"/>
			<point x="514" y="-10"/>
			<point x="538" y="-10" type="curve" smooth="yes"/>
			<point x="690" y="-10"/>
			<point x="782" y="80"/>
			<point x="782" y="231" type="curve" smooth="yes"/>
			<point x="782" y="369"/>
			<point x="690" y="428"/>
			<point x="568" y="428" type="curve" smooth="yes"/>
			<point x="514" y="428"/>
			<point x="454" y="416"/>
			<point x="393" y="395" type="curve"/>
			<point x="424" y="375" type="line"/>
			<point x="424" y="595" type="line"/>
			<point x="384" y="565" type="line"/>
			<point x="532" y="565" type="line"/>
			<point x="490" y="595" type="line"/>
			<point x="520" y="477" type="line"/>
			<point x="640" y="477" type="line"/>
			<point x="640" y="710" type="line"/>
			<point x="14" y="710" type="line"/>
			<point x="14" y="477" type="line"/>
			<point x="134" y="477" type="line"/>
			<point x="166" y="603" type="line"/>
			<point x="122" y="565" type="line"/>
			<point x="259" y="565" type="line"/>
			<point x="219" y="595" type="line"/>
			<point x="219" y="85" type="line"/>
			<point x="254" y="135" type="line"/>
			<point x="149" y="100" type="line"/>
			<point x="149" y="0" type="line"/>
			<point x="424" y="0" type="line"/>
			<point x="424" y="293" type="line"/>
			<point x="393" y="257" type="line"/>
			<point x="435" y="273"/>
			<point x="473" y="283"/>
			<point x="503" y="283" type="curve" smooth="yes"/>
			<point x="547" y="283"/>
			<point x="574" y="262"/>
			<point x="574" y="207" type="curve" smooth="yes"/>
			<point x="574" y="155"/>
			<point x="553" y="131"/>
			<point x="476" y="133" type="curve"/>
			<point x="460" y="-3" type="line"/>
		</contour>
	</outline>
</glyph>
<glyph name="Lje-cy" format="2">
	<advance width="1014"/>
	<unicode hex="0409"/>
	<outline>
		<contour>
			<point x="116" y="-17" type="curve" smooth="yes"/>
			<point x="338" y="-17"/>
			<point x="338" y="266"/>
			<point x="365" y="601" type="curve"/>
			<point x="328" y="565" type="line"/>
			<point x="500" y="565" type="line"/>
			<point x="470" y="610" type="line"/>
			<point x="470" y="95" type="line"/>
			<point x="494" y="134" type="line"/>
			<point x="400" y="100" type="line"/>
			<point x="400" y="0" type="line"/>
			<point x="705" y="0" type="line" smooth="yes"/>
			<point x="917" y="0"/>
			<point x="1004" y="101"/>
			<point x="1004" y="233" type="curve" smooth="yes"/>
			<point x="1004" y="364"/>
			<point x="926" y="442"/>
			<point x="749" y="442" type="curve" smooth="yes"/>
			<point x="640" y="442" type="line"/>
			<point x="675" y="407" type="line"/>
			<point x="675" y="611" type="line"/>
			<point x="649" y="570" type="line"/>
			<point x="735" y="610" type="line"/>
			<point x="735" y="710" type="line"/>
			<point x="356" y="710" type="line"/>
			<point x="146" y="705" type="line"/>
			<point x="146" y="605" type="line"/>
			<point x="236" y="569" type="line"/>
			<point x="206" y="600" type="line"/>
			<point x="200" y="398"/>
			<point x="187" y="180"/>
			<point x="69" y="180" type="curve" smooth="yes"/>
			<point x="58" y="180"/>
			<point x="46" y="182"/>
			<point x="33" y="186" type="curve"/>
			<point x="3" y="2" type="line"/>
			<point x="46" y="-11"/>
			<point x="84" y="-17"/>
		</contour>
		<contour>
			<point x="675" y="116" type="line"/>
			<point x="675" y="337" type="line"/>
			<point x="646" y="307" type="line"/>
			<point x="719" y="307" type="line" smooth="yes"/>
			<point x="770" y="307"/>
			<point x="796" y="285"/>
			<point x="796" y="227" type="curve" smooth="yes"/>
			<point x="796" y="168"/>
			<point x="766" y="145"/>
			<point x="705" y="145" type="curve" smooth="yes"/>
			<point x="646" y="145" type="line"/>
		</contour>
	</outline>
</glyph>
<glyph name="Nje-cy" format="2">
	<advance width="1034"/>
	<unicode hex="040A"/>
	<guideline x="556" y="443" angle="0"/>
	<guideline x="556" y="302" angle="0"/>
	<outline>
		<contour>
			<point x="24" y="0" type="line"/>
			<point x="349" y="0" type="line"/>
			<point x="349" y="100" type="line"/>
			<point x="265" y="134" type="line"/>
			<point x="289" y="95" type="line"/>
			<point x="289" y="332" type="line"/>
			<point x="259" y="302" type="line"/>
			<point x="520" y="302" type="line"/>
			<point x="490" y="332" type="line"/>
			<point x="490" y="95" type="line"/>
			<point x="514" y="134" type="line"/>
			<point x="430" y="100" type="line"/>
			<point x="430" y="0" type="line"/>
			<point x="726" y="0" type="line" smooth="yes"/>
			<point x="938" y="0"/>
			<point x="1024" y="101"/>
			<point x="1024" y="232" type="curve" smooth="yes"/>
			<point x="1024" y="364"/>
			<point x="946" y="443"/>
			<point x="769" y="443" type="curve" smooth="yes"/>
			<point x="660" y="443" type="line"/>
			<point x="695" y="407" type="line"/>
			<point x="695" y="611" type="line"/>
			<point x="669" y="570" type="line"/>
			<point x="755" y="610" type="line"/>
			<point x="755" y="710" type="line"/>
			<point x="430" y="705" type="line"/>
			<point x="430" y="605" type="line"/>
			<point x="520" y="569" type="line"/>
			<point x="490" y="610" type="line"/>
			<point x="490" y="413" type="line"/>
			<point x="520" y="443" type="line"/>
			<point x="259" y="443" type="line"/>
			<point x="289" y="413" type="line"/>
			<point x="289" y="611" type="line"/>
			<point x="260" y="569" type="line"/>
			<point x="349" y="610" type="line"/>
			<point x="349" y="710" type="line"/>
			<point x="24" y="705" type="line"/>
			<point x="24" y="605" type="line"/>
			<point x="116" y="569" type="line"/>
			<point x="84" y="610" type="line"/>
			<point x="84" y="95" type="line"/>
			<point x="109" y="134" type="line"/>
			<point x="24" y="100" type="line"/>
		</contour>
		<contour>
			<point x="695" y="115" type="line"/>
			<point x="695" y="333" type="line"/>
			<point x="665" y="302" type="line"/>
			<point x="739" y="302" type="line" smooth="yes"/>
			<point x="790" y="302"/>
			<point x="816" y="278"/>
			<point x="816" y="224" type="curve" smooth="yes"/>
			<point x="816" y="169"/>
			<point x="786" y="145"/>
			<point x="725" y="145" type="curve" smooth="yes"/>
			<point x="655" y="145" type="line"/>
		</contour>
	</outline>
</glyph>
<glyph name="Ii-cy" format="2">
	<advance width="792"/>
	<unicode hex="0418"/>
	<anchor x="768" y="0" name="bottomright"/>
	<anchor x="401" y="710" name="top"/>
	<outline>
		<contour>
			<point x="24" y="0" type="line"/>
			<point x="349" y="0" type="line"/>
			<point x="349" y="100" type="line"/>
			<point x="265" y="134" type="line"/>
			<point x="289" y="95" type="line"/>
			<point x="289" y="165" type="line"/>
			<point x="276" y="129" type="line"/>
			<point x="533" y="388" type="line"/>
			<point x="503" y="408" type="line"/>
			<point x="503" y="95" type="line"/>
			<point x="527" y="134" type="line"/>
			<point x="443" y="100" type="line"/>
			<point x="443" y="0" type="line"/>
			<point x="768" y="0" type="line"/>
			<point x="768" y="100" type="line"/>
			<point x="682" y="134" type="line"/>
			<point x="708" y="95" type="line"/>
			<point x="708" y="611" type="line"/>
			<point x="682" y="570" type="line"/>
			<point x="768" y="610" type="line"/>
			<point x="768" y="710" type="line"/>
			<point x="443" y="705" type="line"/>
			<point x="443" y="605" type="line"/>
			<point x="533" y="569" type="line"/>
			<point x="503" y="610" type="line"/>
			<point x="503" y="532" type="line"/>
			<point x="518" y="573" type="line"/>
			<point x="259" y="313" type="line"/>
			<point x="289" y="298" type="line"/>
			<point x="289" y="611" type="line"/>
			<point x="260" y="569" type="line"/>
			<point x="349" y="610" type="line"/>
			<point x="349" y="710" type="line"/>
			<point x="24" y="705" type="line"/>
			<point x="24" y="605" type="line"/>
			<point x="116" y="569" type="line"/>
			<point x="84" y="610" type="line"/>
			<point x="84" y="95" type="line"/>
			<point x="109" y="134" type="line"/>
			<point x="24" y="100" type="line"/>
		</contour>
	</outline>
</glyph>
<glyph name="U-cy" format="2">
	<advance width="698"/>
	<unicode hex="0423"/>
	<anchor x="361" y="710" name="top"/>
	<outline>
		<contour>
			<point x="73" y="-4" type="line"/>
			<point x="122" y="-20"/>
			<point x="167" y="-29"/>
			<point x="209" y="-29" type="curve" smooth="yes"/>
			<point x="326" y="-29"/>
			<point x="413" y="37"/>
			<point x="473" y="174" type="curve" smooth="yes"/>
			<point x="662" y="610" type="line"/>
			<point x="617" y="576" type="line"/>
			<point x="697" y="610" type="line"/>
			<point x="697" y="710" type="line"/>
			<point x="416" y="705" type="line"/>
			<point x="416" y="605" type="line"/>
			<point x="492" y="572" type="line"/>
			<point x="476" y="611" type="line"/>
			<point x="358" y="308" type="line"/>
			<point x="386" y="320" type="line"/>
			<point x="262" y="624" type="line"/>
			<point x="238" y="575" type="line"/>
			<point x="323" y="610" type="line"/>
			<point x="323" y="710" type="line"/>
			<point x="1" y="705" type="line"/>
			<point x="1" y="605" type="line"/>
			<point x="82" y="571" type="line"/>
			<point x="36" y="605" type="line"/>
			<point x="286" y="121" type="line"/>
			<point x="307" y="203" type="line"/>
			<point x="279" y="156"/>
			<point x="263" y="137"/>
			<point x="220" y="137" type="curve" smooth="yes"/>
			<point x="195" y="137"/>
			<point x="160" y="144"/>
			<point x="109" y="155" type="curve"/>
		</contour>
	</outline>
</glyph>
<glyph name="Sha-cy" format="2">
	<advance width="1109"/>
	<unicode hex="0428"/>
	<guideline x="554" y="134" angle="0"/>
	<outline>
		<contour>
			<point x="24" y="0" type="line"/>
			<point x="1085" y="0" type="line"/>
			<point x="1085" y="100" type="line"/>
			<point x="1000" y="134" type="line"/>
			<point x="1025" y="95" type="line"/>
			<point x="1025" y="611" type="line"/>
			<point x="999" y="570" type="line"/>
			<point x="1085" y="610" type="line"/>
			<point x="1085" y="710" type="line"/>
			<point x="765" y="705" type="line"/>
			<point x="765" y="605" type="line"/>
			<point x="850" y="569" type="line"/>
			<point x="820" y="610" type="line"/>
			<point x="820" y="95" type="line"/>
			<point x="857" y="145" type="line"/>
			<point x="631" y="145" type="line"/>
			<point x="657" y="95" type="line"/>
			<point x="657" y="611" type="line"/>
			<point x="631" y="570" type="line"/>
			<point x="712" y="610" type="line"/>
			<point x="712" y="710" type="line"/>
			<point x="397" y="705" type="line"/>
			<point x="397" y="605" type="line"/>
			<point x="482" y="569" type="line"/>
			<point x="452" y="610" type="line"/>
			<point x="452" y="95" type="line"/>
			<point x="489" y="145" type="line"/>
			<point x="265" y="145" type="line"/>
			<point x="289" y="95" type="line"/>
			<point x="289" y="611" type="line"/>
			<point x="260" y="569" type="line"/>
			<point x="344" y="610" type="line"/>
			<point x="344" y="710" type="line"/>
			<point x="24" y="705" type="line"/>
			<point x="24" y="605" type="line"/>
			<point x="116" y="569" type="line"/>
			<point x="84" y="610" type="line"/>
			<point x="84" y="95" type="line"/>
			<point x="109" y="134" type="line"/>
			<point x="24" y="100" type="line"/>
		</contour>
	</outline>
</glyph>
<glyph name="Softsign-cy" format="2">
	<advance width="628"/>
	<unicode hex="042C"/>
	<outline>
		<contour>
			<point x="24" y="0" type="line"/>
			<point x="319" y="0" type="line" smooth="yes"/>
			<point x="531" y="0"/>
			<point x="618" y="101"/>
			<point x="618" y="235" type="curve" smooth="yes"/>
			<point x="618" y="369"/>
			<point x="540" y="447"/>
			<point x="363" y="447" type="curve" smooth="yes"/>
			<point x="254" y="447" type="line"/>
			<point x="289" y="412" type="line"/>
			<point x="289" y="611" type="line"/>
			<point x="260" y="569" type="line"/>
			<point x="349" y="610" type="line"/>
			<point x="349" y="710" type="line"/>
			<point x="24" y="705" type="line"/>
			<point x="24" y="605" type="line"/>
			<point x="111" y="571" type="line"/>
			<point x="84" y="610" type="line"/>
			<point x="84" y="105" type="line"/>
			<point x="103" y="132" type="line"/>
			<point x="24" y="100" type="line"/>
		</contour>
		<contour>
			<point x="289" y="115" type="line"/>
			<point x="289" y="342" type="line"/>
			<point x="259" y="312" type="line"/>
			<point x="333" y="312" type="line" smooth="yes"/>
			<point x="384" y="312"/>
			<point x="410" y="290"/>
			<point x="410" y="229" type="curve" smooth="yes"/>
			<point x="410" y="168"/>
			<point x="380" y="145"/>
			<point x="319" y="145" type="curve" smooth="yes"/>
			<point x="249" y="145" type="line"/>
		</contour>
	</outline>
</glyph>
<glyph name="de-cy" format="2">
	<advance width="685"/>
	<unicode hex="0434"/>
	<outline>
		<contour>
			<point x="20" y="-185" type="line"/>
			<point x="140" y="-185" type="line"/>
			<point x="178" y="23" type="line"/>
			<point x="134" y="0" type="line"/>
			<point x="561" y="0" type="line"/>
			<point x="517" y="23" type="line"/>
			<point x="555" y="-185" type="line"/>
			<point x="675" y="-185" type="line"/>
			<point x="680" y="101" type="line"/>
			<point x="548" y="133" type="line"/>
			<point x="585" y="105" type="line"/>
			<point x="585" y="438" type="line"/>
			<point x="548" y="399" type="line"/>
			<point x="640" y="440" type="line"/>
			<point x="640" y="540" type="line"/>
			<point x="109" y="540" type="line"/>
			<point x="109" y="440" type="line"/>
			<point x="220" y="397" type="line"/>
			<point x="169" y="438" type="line"/>
			<point x="169" y="236"/>
			<point x="132" y="163"/>
			<point x="55" y="105" type="curve"/>
			<point x="147" y="137" type="line"/>
			<point x="15" y="105" type="line"/>
		</contour>
		<contour>
			<point x="225" y="115" type="line"/>
			<point x="303" y="181"/>
			<point x="309" y="287"/>
			<point x="309" y="438" type="curve"/>
			<point x="274" y="395" type="line"/>
			<point x="415" y="395" type="line"/>
			<point x="385" y="438" type="line"/>
			<point x="385" y="115" type="line"/>
			<point x="415" y="145" type="line"/>
			<point x="224" y="145" type="line"/>
		</contour>
	</outline>
</glyph>
<glyph name="en-cy" format="2">
	<advance width="682"/>
	<unicode hex="043D"/>
	<anchor x="662" y="0" name="bottomright"/>
	<outline>
		<contour>
			<point x="21" y="0" type="line"/>
			<point x="324" y="0" type="line"/>
			<point x="324" y="100" type="line"/>
			<point x="245" y="131" type="line"/>
			<point x="276" y="75" type="line"/>
			<point x="276" y="261" type="line"/>
			<point x="226" y="208" type="line"/>
			<point x="457" y="208" type="line"/>
			<point x="407" y="261" type="line"/>
			<point x="407" y="75" type="line"/>
			<point x="438" y="131" type="line"/>
			<point x="359" y="100" type="line"/>
			<point x="359" y="0" type="line"/>
			<point x="662" y="0" type="line"/>
			<point x="662" y="100" type="line"/>
			<point x="570" y="137" type="line"/>
			<point x="607" y="75" type="line"/>
			<point x="607" y="461" type="line"/>
			<point x="570" y="403" type="line"/>
			<point x="662" y="444" type="line"/>
			<point x="662" y="544" type="line"/>
			<point x="359" y="536" type="line"/>
			<point x="359" y="436" type="line"/>
			<point x="437" y="406" type="line"/>
			<point x="407" y="456" type="line"/>
			<point x="407" y="296" type="line"/>
			<point x="457" y="349" type="line"/>
			<point x="226" y="349" type="line"/>
			<point x="276" y="296" type="line"/>
			<point x="276" y="461" type="line"/>
			<point x="235" y="403" type="line"/>
			<point x="324" y="444" type="line"/>
			<point x="324" y="544" type="line"/>
			<point x="21" y="536" type="line"/>
			<point x="21" y="436" type="line"/>
			<point x="127" y="393" type="line"/>
			<point x="76" y="456" type="line"/>
			<point x="76" y="75" type="line"/>
			<point x="113" y="137" type="line"/>
			<point x="21" y="100" type="line"/>
		</contour>
	</outline>
</glyph>
<glyph name="te-cy" format="2">
	<advance width="582"/>
	<unicode hex="0442"/>
	<anchor x="461" y="0" name="bottomright"/>
	<outline>
		<contour>
			<point x="121" y="0" type="line"/>
			<point x="461" y="0" type="line"/>
			<point x="461" y="100" type="line"/>
			<point x="357" y="132" type="line"/>
			<point x="391" y="83" type="line"/>
			<point x="391" y="424" type="line"/>
			<point x="350" y="395" type="line"/>
			<point x="462" y="395" type="line"/>
			<point x="427" y="424" type="line"/>
			<point x="453" y="325" type="line"/>
			<point x="573" y="325" type="line"/>
			<point x="573" y="540" type="line"/>
			<point x="9" y="540" type="line"/>
			<point x="9" y="325" type="line"/>
			<point x="129" y="325" type="line"/>
			<point x="157" y="432" type="line"/>
			<point x="119" y="395" type="line"/>
			<point x="233" y="395" type="line"/>
			<point x="191" y="424" type="line"/>
			<point x="191" y="83" type="line"/>
			<point x="228" y="132" type="line"/>
			<point x="121" y="100" type="line"/>
		</contour>
	</outline>
</glyph>
<glyph name="che-cy" format="2">
	<advance width="641"/>
	<unicode hex="0447"/>
	<anchor x="621" y="0" name="bottomright"/>
	<anchor x="308" y="240" name="center"/>
	<anchor x="308" y="540" name="top"/>
	<outline>
		<contour>
			<point x="55" y="444" type="line"/>
			<point x="55" y="338" type="line" smooth="yes"/>
			<point x="55" y="216"/>
			<point x="132" y="159"/>
			<point x="240" y="159" type="curve" smooth="yes"/>
			<point x="287" y="159"/>
			<point x="340" y="170"/>
			<point x="396" y="191" type="curve"/>
			<point x="366" y="241" type="line"/>
			<point x="366" y="95" type="line"/>
			<point x="397" y="131" type="line"/>
			<point x="296" y="100" type="line"/>
			<point x="296" y="0" type="line"/>
			<point x="621" y="0" type="line"/>
			<point x="621" y="100" type="line"/>
			<point x="529" y="136" type="line"/>
			<point x="566" y="95" type="line"/>
			<point x="566" y="444" type="line"/>
			<point x="529" y="403" type="line"/>
			<point x="621" y="444" type="line"/>
			<point x="621" y="544" type="line"/>
			<point x="326" y="536" type="line"/>
			<point x="326" y="436" type="line"/>
			<point x="396" y="406" type="line"/>
			<point x="366" y="444" type="line"/>
			<point x="366" y="276" type="line"/>
			<point x="396" y="313" type="line"/>
			<point x="362" y="304"/>
			<point x="335" y="298"/>
			<point x="314" y="298" type="curve" smooth="yes"/>
			<point x="273" y="298"/>
			<point x="255" y="318"/>
			<point x="255" y="369" type="curve" smooth="yes"/>
			<point x="255" y="444" type="line"/>
			<point x="214" y="403" type="line"/>
			<point x="295" y="444" type="line"/>
			<point x="295" y="544" type="line"/>
			<point x="0" y="536" type="line"/>
			<point x="0" y="436" type="line"/>
			<point x="106" y="393" type="line"/>
		</contour>
	</outline>
</glyph>
<glyph name="iu-cy" format="2">
	<advance width="895"/>
	<unicode hex="044E"/>
	<outline>
		<contour>
			<point x="21" y="0" type="line"/>
			<point x="324" y="0" type="line"/>
			<point x="324" y="100" type="line"/>
			<point x="245" y="131" type="line"/>
			<point x="276" y="75" type="line"/>
			<point x="276" y="261" type="line"/>
			<point x="226" y="208" type="line"/>
			<point x="448" y="208" type="line"/>
			<point x="448" y="349" type="line"/>
			<point x="226" y="349" type="line"/>
			<point x="276" y="296" type="line"/>
			<point x="276" y="461" type="line"/>
			<point x="235" y="403" type="line"/>
			<point x="324" y="444" type="line"/>
			<point x="324" y="544" type="line"/>
			<point x="21" y="536" type="line"/>
			<point x="21" y="436" type="line"/>
			<point x="127" y="393" type="line"/>
			<point x="76" y="456" type="line"/>
			<point x="76" y="75" type="line"/>
			<point x="113" y="137" type="line"/>
			<point x="21" y="100" type="line"/>
		</contour>
		<contour>
			<point x="623" y="555" type="curve" smooth="yes"/>
			<point x="453" y="555"/>
			<point x="346" y="460"/>
			<point x="346" y="259" type="curve" smooth="yes"/>
			<point x="346" y="72"/>
			<point x="438" y="-15"/>
			<point x="600" y="-15" type="curve" smooth="yes"/>
			<point x="778" y="-15"/>
			<point x="881" y="91"/>
			<point x="881" y="283" type="curve" smooth="yes"/>
			<point x="881" y="464"/>
			<point x="789" y="555"/>
		</contour>
		<contour>
			<point x="613" y="415" type="curve" smooth="yes"/>
			<point x="651" y="415"/>
			<point x="676" y="393"/>
			<point x="676" y="276" type="curve" smooth="yes"/>
			<point x="676" y="147"/>
			<point x="646" y="125"/>
			<point x="613" y="125" type="curve" smooth="yes"/>
			<point x="576" y="125"/>
			<point x="551" y="150"/>
			<point x="551" y="270" type="curve" smooth="yes"/>
			<point x="551" y="399"/>
			<point x="580" y="415"/>
		</contour>
	</outline>
</glyph>
<glyph name="dje-cy" format="2">
	<advance width="619"/>
	<unicode hex="0452"/>
	<outline>
		<contour>
			<point x="327" y="-245" type="line"/>
			<point x="468" y="-245"/>
			<point x="588" y="-169"/>
			<point x="588" y="56" type="curve" smooth="yes"/>
			<point x="588" y="321" type="line" smooth="yes"/>
			<point x="588" y="425"/>
			<point x="519" y="488"/>
			<point x="431" y="488" type="curve" smooth="yes"/>
			<point x="368" y="488"/>
			<point x="294" y="457"/>
			<point x="230" y="394" type="curve"/>
			<point x="268" y="386" type="line"/>
			<point x="268" y="785" type="line"/>
			<point x="13" y="775" type="line"/>
			<point x="13" y="675" type="line"/>
			<point x="90" y="645" type="line"/>
			<point x="68" y="675" type="line"/>
			<point x="68" y="103" type="line"/>
			<point x="90" y="130" type="line"/>
			<point x="13" y="100" type="line"/>
			<point x="13" y="0" type="line"/>
			<point x="313" y="0" type="line"/>
			<point x="313" y="100" type="line"/>
			<point x="252" y="126" type="line"/>
			<point x="268" y="99" type="line"/>
			<point x="268" y="327" type="line"/>
			<point x="256" y="299" type="line"/>
			<point x="286" y="325"/>
			<point x="317" y="338"/>
			<point x="341" y="338" type="curve" smooth="yes"/>
			<point x="369" y="338"/>
			<point x="388" y="320"/>
			<point x="388" y="283" type="curve" smooth="yes"/>
			<point x="388" y="3" type="line" smooth="yes"/>
			<point x="388" y="-62"/>
			<point x="368" y="-96"/>
			<point x="314" y="-105" type="curve"/>
		</contour>
		<contour>
			<point x="13" y="527" type="line"/>
			<point x="413" y="527" type="line"/>
			<point x="413" y="632" type="line"/>
			<point x="13" y="632" type="line"/>
		</contour>
	</outline>
</glyph>
<glyph name="e-cy" format="2">
	<advance width="517"/>
	<unicode hex="0454"/>
	<outline>
		<contour>
			<point x="376" y="330" type="line"/>
			<point x="116" y="330" type="line"/>
			<point x="116" y="215" type="line"/>
			<point x="373" y="215" type="line"/>
		</contour>
		<contour>
			<point x="273" y="-15" type="curve" smooth="yes"/>
			<point x="355" y="-15"/>
			<point x="436" y="14"/>
			<point x="515" y="75" type="curve"/>
			<point x="450" y="176" type="line"/>
			<point x="402" y="144"/>
			<point x="355" y="130"/>
			<point x="320" y="130" type="curve" smooth="yes"/>
			<point x="254" y="130"/>
			<point x="220" y="176"/>
			<point x="220" y="278" type="curve" smooth="yes"/>
			<point x="220" y="373"/>
			<point x="245" y="415"/>
			<point x="315" y="415" type="curve" smooth="yes"/>
			<point x="329" y="415"/>
			<point x="345" y="413"/>
			<point x="363" y="410" type="curve"/>
			<point x="353" y="420" type="line"/>
			<point x="366" y="368" type="line"/>
			<point x="486" y="368" type="line"/>
			<point x="491" y="519" type="line"/>
			<point x="425" y="543"/>
			<point x="361" y="555"/>
			<point x="302" y="555" type="curve" smooth="yes"/>
			<point x="136" y="555"/>
			<point x="12" y="460"/>
			<point x="12" y="267" type="curve" smooth="yes"/>
			<point x="12" y="86"/>
			<point x="124" y="-15"/>
		</contour>
	</outline>
</glyph>
<glyph name="dzhe-cy" format="2">
	<advance width="675"/>
	<unicode hex="045F"/>
	<outline>
		<contour>
			<point x="277" y="-185" type="line"/>
			<point x="397" y="-185" type="line"/>
			<point x="416" y="23" type="line"/>
			<point x="387" y="0" type="line"/>
			<point x="654" y="0" type="line"/>
			<point x="654" y="105" type="line"/>
			<point x="562" y="137" type="line"/>
			<point x="599" y="75" type="line"/>
			<point x="599" y="461" type="line"/>
			<point x="562" y="403" type="line"/>
			<point x="654" y="444" type="line"/>
			<point x="654" y="544" type="line"/>
			<point x="354" y="536" type="line"/>
			<point x="354" y="436" type="line"/>
			<point x="429" y="406" type="line"/>
			<point x="399" y="456" type="line"/>
			<point x="399" y="85" type="line"/>
			<point x="449" y="145" type="line"/>
			<point x="226" y="145" type="line"/>
			<point x="276" y="85" type="line"/>
			<point x="276" y="461" type="line"/>
			<point x="235" y="403" type="line"/>
			<point x="321" y="444" type="line"/>
			<point x="321" y="544" type="line"/>
			<point x="21" y="536" type="line"/>
			<point x="21" y="436" type="line"/>
			<point x="127" y="393" type="line"/>
			<point x="76" y="456" type="line"/>
			<point x="76" y="75" type="line"/>
			<point x="113" y="137" type="line"/>
			<point x="21" y="100" type="line"/>
			<point x="21" y="0" type="line"/>
			<point x="287" y="0" type="line"/>
			<point x="258" y="23" type="line"/>
		</contour>
	</outline>
</glyph>
<glyph name="Yusbig-cy" format="2">
	<advance width="1087"/>
	<unicode hex="046A"/>
	<guideline x="161" y="451" angle="90"/>
	<guideline x="928" y="451" angle="90"/>
	<guideline x="434" y="423" angle="0"/>
	<outline>
		<contour>
			<point x="10" y="0" type="line"/>
			<point x="323" y="0" type="line"/>
			<point x="323" y="100" type="line"/>
			<point x="261" y="133" type="line"/>
			<point x="262" y="99" type="line"/>
			<point x="359" y="255" type="line" smooth="yes"/>
			<point x="376" y="283"/>
			<point x="393" y="299"/>
			<point x="415" y="299" type="curve" smooth="yes"/>
			<point x="482" y="299" type="line"/>
			<point x="452" y="324" type="line"/>
			<point x="452" y="95" type="line"/>
			<point x="472" y="132" type="line"/>
			<point x="397" y="100" type="line"/>
			<point x="397" y="0" type="line"/>
			<point x="692" y="0" type="line"/>
			<point x="692" y="100" type="line"/>
			<point x="618" y="137" type="line"/>
			<point x="642" y="95" type="line"/>
			<point x="642" y="324" type="line"/>
			<point x="612" y="299" type="line"/>
			<point x="669" y="299" type="line" smooth="yes"/>
			<point x="696" y="299"/>
			<point x="717" y="282"/>
			<point x="738" y="246" type="curve" smooth="yes"/>
			<point x="824" y="99" type="line"/>
			<point x="826" y="133" type="line"/>
			<point x="764" y="100" type="line"/>
			<point x="764" y="0" type="line"/>
			<point x="1077" y="0" type="line"/>
			<point x="1077" y="100" type="line"/>
			<point x="1000" y="133" type="line"/>
			<point x="1054" y="91" type="line"/>
			<point x="878" y="352" type="line" smooth="yes"/>
			<point x="836" y="414"/>
			<point x="797" y="424"/>
			<point x="735" y="424" type="curve" smooth="yes"/>
			<point x="730" y="424" type="line"/>
			<point x="735" y="408" type="line"/>
			<point x="934" y="630" type="line"/>
			<point x="934" y="710" type="line"/>
			<point x="159" y="710" type="line"/>
			<point x="159" y="629" type="line"/>
			<point x="348" y="409" type="line"/>
			<point x="355" y="423" type="line"/>
			<point x="348" y="423" type="line" smooth="yes"/>
			<point x="285" y="423"/>
			<point x="252" y="397"/>
			<point x="219" y="349" type="curve" smooth="yes"/>
			<point x="38" y="91" type="line"/>
			<point x="87" y="133" type="line"/>
			<point x="10" y="100" type="line"/>
		</contour>
		<contour>
			<point x="519" y="391" type="line"/>
			<point x="571" y="391" type="line"/>
			<point x="395" y="591" type="line"/>
			<point x="366" y="570" type="line"/>
			<point x="730" y="570" type="line"/>
			<point x="701" y="590" type="line"/>
		</contour>
	</outline>
</glyph>
<glyph name="yusbig-cy" format="2">
	<advance width="897"/>
	<unicode hex="046B"/>
	<guideline x="220" y="329" angle="0"/>
	<guideline x="447" y="501" angle="90"/>
	<outline>
		<contour>
			<point x="11" y="0" type="line"/>
			<point x="205" y="0" type="line"/>
			<point x="296" y="177" type="line" smooth="yes"/>
			<point x="307" y="198"/>
			<point x="315" y="209"/>
			<point x="341" y="209" type="curve" smooth="yes"/>
			<point x="388" y="209" type="line"/>
			<point x="357" y="234" type="line"/>
			<point x="357" y="95" type="line"/>
			<point x="379" y="129" type="line"/>
			<point x="308" y="100" type="line"/>
			<point x="308" y="0" type="line"/>
			<point x="587" y="0" type="line"/>
			<point x="587" y="100" type="line"/>
			<point x="519" y="130" type="line"/>
			<point x="537" y="95" type="line"/>
			<point x="537" y="234" type="line"/>
			<point x="506" y="209" type="line"/>
			<point x="559" y="209" type="line" smooth="yes"/>
			<point x="582" y="209"/>
			<point x="589" y="201"/>
			<point x="601" y="178" type="curve" smooth="yes"/>
			<point x="692" y="0" type="line"/>
			<point x="888" y="0" type="line"/>
			<point x="888" y="100" type="line"/>
			<point x="817" y="123" type="line"/>
			<point x="843" y="99" type="line"/>
			<point x="754" y="251" type="line" smooth="yes"/>
			<point x="725" y="300"/>
			<point x="690" y="329"/>
			<point x="630" y="329" type="curve" smooth="yes"/>
			<point x="557" y="329" type="line"/>
			<point x="561" y="270" type="line"/>
			<point x="746" y="453" type="line"/>
			<point x="746" y="540" type="line"/>
			<point x="139" y="540" type="line"/>
			<point x="139" y="453" type="line"/>
			<point x="322" y="270" type="line"/>
			<point x="328" y="329" type="line"/>
			<point x="252" y="329" type="line" smooth="yes"/>
			<point x="202" y="329"/>
			<point x="172" y="300"/>
			<point x="143" y="251" type="curve" smooth="yes"/>
			<point x="54" y="99" type="line"/>
			<point x="80" y="123" type="line"/>
			<point x="11" y="100" type="line"/>
		</contour>
		<contour>
			<point x="432" y="309" type="line"/>
			<point x="471" y="309" type="line"/>
			<point x="336" y="459" type="line"/>
			<point x="331" y="420" type="line"/>
			<point x="566" y="420" type="line"/>
			<point x="567" y="459" type="line"/>
		</contour>
	</outline>
</glyph>
<glyph name="Izhitsa-cy" format="2">
	<advance width="803"/>
	<unicode hex="0474"/>
	<anchor x="379" y="710" name="top"/>
	<outline>
		<contour>
			<point x="248" y="0" type="line"/>
			<point x="466" y="0" type="line"/>
			<point x="613" y="426" type="line" smooth="yes"/>
			<point x="644" y="517"/>
			<point x="677" y="542"/>
			<point x="746" y="545" type="curve" smooth="yes"/>
			<point x="776" y="545" type="line"/>
			<point x="801" y="709" type="line"/>
			<point x="753" y="720"/>
			<point x="711" y="725"/>
			<point x="676" y="725" type="curve" smooth="yes"/>
			<point x="565" y="725"/>
			<point x="505" y="662"/>
			<point x="449" y="474" type="curve" smooth="yes"/>
			<point x="361" y="177" type="line"/>
			<point x="387" y="177" type="line"/>
			<point x="264" y="624" type="line"/>
			<point x="240" y="575" type="line"/>
			<point x="325" y="610" type="line"/>
			<point x="325" y="710" type="line"/>
			<point x="3" y="705" type="line"/>
			<point x="3" y="605" type="line"/>
			<point x="84" y="571" type="line"/>
			<point x="38" y="605" type="line"/>
		</contour>
	</outline>
</glyph>
<glyph name="Gheupturn-cy" format="2">
	<advance width="546"/>
	<unicode hex="0490"/>
	<outline>
		<contour>
			<point x="24" y="0" type="line"/>
			<point x="364" y="0" type="line"/>
			<point x="364" y="100" type="line"/>
			<point x="266" y="132" type="line"/>
			<point x="289" y="105" type="line"/>
			<point x="289" y="595" type="line"/>
			<point x="259" y="565" type="line"/>
			<point x="541" y="565" type="line"/>
			<point x="542" y="900" type="line"/>
			<point x="422" y="900" type="line"/>
			<point x="355" y="678" type="line"/>
			<point x="417" y="710" type="line"/>
			<point x="284" y="710" type="line"/>
			<point x="24" y="705" type="line"/>
			<point x="24" y="605" type="line"/>
			<point x="111" y="571" type="line"/>
			<point x="84" y="610" type="line"/>
			<point x="84" y="105" type="line"/>
			<point x="103" y="132" type="line"/>
			<point x="24" y="100" type="line"/>
		</contour>
	</outline>
</glyph>
<glyph name="Ghestroke-cy" format="2">
	<advance width="565"/>
	<unicode hex="0492"/>
	<guideline x="21" y="439" angle="0"/>
	<guideline x="24" y="486" angle="90"/>
	<anchor x="364" y="0" name="bottomright"/>
	<anchor x="306" y="710" name="top"/>
	<outline>
		<contour>
			<point x="426" y="414" type="line"/>
			<point x="24" y="414" type="line"/>
			<point x="24" y="279" type="line"/>
			<point x="426" y="279" type="line"/>
		</contour>
		<contour>
			<point x="24" y="0" type="line"/>
			<point x="364" y="0" type="line"/>
			<point x="364" y="100" type="line"/>
			<point x="266" y="132" type="line"/>
			<point x="289" y="105" type="line"/>
			<point x="289" y="595" type="line"/>
			<point x="259" y="565" type="line"/>
			<point x="440" y="565" type="line"/>
			<point x="397" y="584" type="line"/>
			<point x="427" y="474" type="line"/>
			<point x="547" y="474" type="line"/>
			<point x="546" y="710" type="line"/>
			<point x="284" y="710" type="line"/>
			<point x="24" y="705" type="line"/>
			<point x="24" y="605" type="line"/>
			<point x="111" y="571" type="line"/>
			<point x="84" y="610" type="line"/>
			<point x="84" y="105" type="line"/>
			<point x="103" y="132" type="line"/>
			<point x="24" y="100" type="line"/>
		</contour>
	</outline>
</glyph>
<glyph name="ghestroke-cy" format="2">
	<advance width="540"/>
	<unicode hex="0493"/>
	<guideline x="21" y="143" angle="90"/>
	<anchor x="346" y="0" name="bottomright"/>
	<anchor x="285" y="540" name="top"/>
	<outline>
		<contour>
			<point x="21" y="178" type="line"/>
			<point x="380" y="178" type="line"/>
			<point x="380" y="288" type="line"/>
			<point x="21" y="288" type="line"/>
		</contour>
		<contour>
			<point x="526" y="540" type="line"/>
			<point x="232" y="540" type="line"/>
			<point x="21" y="536" type="line"/>
			<point x="21" y="436" type="line"/>
			<point x="96" y="406" type="line"/>
			<point x="76" y="437" type="line"/>
			<point x="76" y="100" type="line"/>
			<point x="93" y="128" type="line"/>
			<point x="21" y="100" type="line"/>
			<point x="21" y="0" type="line"/>
			<point x="346" y="0" type="line"/>
			<point x="346" y="100" type="line"/>
			<point x="255" y="128" type="line"/>
			<point x="276" y="100" type="line"/>
			<point x="276" y="413" type="line"/>
			<point x="267" y="395" type="line"/>
			<point x="405" y="395" type="line"/>
			<point x="380" y="418" type="line"/>
			<point x="399" y="291" type="line"/>
			<point x="519" y="291" type="line"/>
		</contour>
	</outline>
</glyph>
<glyph name="ghemiddlehook-cy" format="2">
	<advance width="599"/>
	<unicode hex="0495"/>
	<guideline x="544" y="309" angle="0"/>
	<outline>
		<contour>
			<point x="329" y="-245" type="curve" smooth="yes"/>
			<point x="508" y="-245"/>
			<point x="581" y="-132"/>
			<point x="581" y="53" type="curve" smooth="yes"/>
			<point x="581" y="121" type="line" smooth="yes"/>
			<point x="581" y="258"/>
			<point x="511" y="319"/>
			<point x="419" y="319" type="curve" smooth="yes"/>
			<point x="363" y="319"/>
			<point x="299" y="297"/>
			<point x="238" y="257" type="curve"/>
			<point x="276" y="249" type="line"/>
			<point x="276" y="413" type="line"/>
			<point x="267" y="395" type="line"/>
			<point x="415" y="395" type="line"/>
			<point x="393" y="418" type="line"/>
			<point x="409" y="356" type="line"/>
			<point x="529" y="356" type="line"/>
			<point x="536" y="540" type="line"/>
			<point x="232" y="540" type="line"/>
			<point x="21" y="536" type="line"/>
			<point x="21" y="436" type="line"/>
			<point x="96" y="406" type="line"/>
			<point x="76" y="437" type="line"/>
			<point x="76" y="100" type="line"/>
			<point x="93" y="128" type="line"/>
			<point x="21" y="100" type="line"/>
			<point x="21" y="0" type="line"/>
			<point x="326" y="0" type="line"/>
			<point x="326" y="100" type="line"/>
			<point x="255" y="128" type="line"/>
			<point x="276" y="100" type="line"/>
			<point x="276" y="188" type="line"/>
			<point x="264" y="163" type="line"/>
			<point x="286" y="170"/>
			<point x="306" y="174"/>
			<point x="322" y="174" type="curve" smooth="yes"/>
			<point x="360" y="174"/>
			<point x="381" y="150"/>
			<point x="381" y="83" type="curve" smooth="yes"/>
			<point x="381" y="13" type="line" smooth="yes"/>
			<point x="381" y="-48"/>
			<point x="375" y="-99"/>
			<point x="303" y="-99" type="curve" smooth="yes"/>
			<point x="291" y="-99"/>
			<point x="274" y="-98"/>
			<point x="255" y="-96" type="curve"/>
			<point x="240" y="-237" type="line"/>
			<point x="272" y="-242"/>
			<point x="302" y="-245"/>
		</contour>
	</outline>
</glyph>
<glyph name="Zedescender-cy" format="2">
	<advance width="594"/>
	<unicode hex="0498"/>
	<anchor x="292" y="710" name="top"/>
	<outline>
		<contour>
			<point x="219" y="-205" type="line"/>
			<point x="339" y="-205" type="line"/>
			<point x="368" y="20" type="line"/>
			<point x="190" y="20" type="line"/>
		</contour>
		<contour>
			<point x="13" y="33" type="line"/>
			<point x="90" y="1"/>
			<point x="177" y="-16"/>
			<point x="259" y="-16" type="curve" smooth="yes"/>
			<point x="427" y="-16"/>
			<point x="571" y="55"/>
			<point x="571" y="211" type="curve" smooth="yes"/>
			<point x="571" y="313"/>
			<point x="513" y="373"/>
			<point x="368" y="381" type="curve"/>
			<point x="369" y="364" type="line"/>
			<point x="475" y="373"/>
			<point x="557" y="432"/>
			<point x="557" y="542" type="curve" smooth="yes"/>
			<point x="557" y="673"/>
			<point x="445" y="725"/>
			<point x="293" y="725" type="curve" smooth="yes"/>
			<point x="211" y="725"/>
			<point x="125" y="709"/>
			<point x="39" y="682" type="curve"/>
			<point x="48" y="486" type="line"/>
			<point x="168" y="486" type="line"/>
			<point x="183" y="585" type="line"/>
			<point x="156" y="561" type="line"/>
			<point x="192" y="572"/>
			<point x="229" y="579"/>
			<point x="255" y="579" type="curve" smooth="yes"/>
			<point x="313" y="579"/>
			<point x="350" y="559"/>
			<point x="350" y="508" type="curve" smooth="yes"/>
			<point x="350" y="456"/>
			<point x="314" y="434"/>
			<point x="250" y="434" type="curve" smooth="yes"/>
			<point x="179" y="434" type="line"/>
			<point x="179" y="292" type="line"/>
			<point x="259" y="292" type="line" smooth="yes"/>
			<point x="330" y="292"/>
			<point x="363" y="270"/>
			<point x="363" y="220" type="curve" smooth="yes"/>
			<point x="363" y="163"/>
			<point x="313" y="142"/>
			<point x="244" y="142" type="curve" smooth="yes"/>
			<point x="189" y="142"/>
			<point x="122" y="156"/>
			<point x="64" y="176" type="curve"/>
		</contour>
	</outline>
</glyph>
<glyph name="kaverticalstroke-cy" format="2">
	<advance width="702"/>
	<unicode hex="049D"/>
	<guideline x="176" y="352" angle="0"/>
	<guideline x="405" y="357" angle="180"/>
	<outline>
		<contour>
			<point x="21" y="0" type="line"/>
			<point x="326" y="0" type="line"/>
			<point x="326" y="100" type="line"/>
			<point x="258" y="131" type="line"/>
			<point x="276" y="95" type="line"/>
			<point x="276" y="254" type="line"/>
			<point x="245" y="222" type="line"/>
			<point x="413" y="222" type="line"/>
			<point x="389" y="236" type="line"/>
			<point x="495" y="0" type="line"/>
			<point x="694" y="0" type="line"/>
			<point x="694" y="100" type="line"/>
			<point x="626" y="123" type="line"/>
			<point x="651" y="99" type="line"/>
			<point x="535" y="332" type="line"/>
			<point x="531" y="284" type="line"/>
			<point x="653" y="453" type="line"/>
			<point x="605" y="424" type="line"/>
			<point x="680" y="445" type="line"/>
			<point x="680" y="545" type="line"/>
			<point x="415" y="535" type="line"/>
			<point x="415" y="435" type="line"/>
			<point x="473" y="420" type="line"/>
			<point x="458" y="439" type="line"/>
			<point x="373" y="317" type="line"/>
			<point x="430" y="352" type="line"/>
			<point x="245" y="352" type="line"/>
			<point x="276" y="311" type="line"/>
			<point x="276" y="444" type="line"/>
			<point x="260" y="415" type="line"/>
			<point x="321" y="444" type="line"/>
			<point x="321" y="544" type="line"/>
			<point x="21" y="536" type="line"/>
			<point x="21" y="436" type="line"/>
			<point x="103" y="406" type="line"/>
			<point x="76" y="444" type="line"/>
			<point x="76" y="95" type="line"/>
			<point x="98" y="130" type="line"/>
			<point x="21" y="100" type="line"/>
		</contour>
		<contour>
			<point x="307" y="138" type="line"/>
			<point x="382" y="138" type="line"/>
			<point x="382" y="414" type="line"/>
			<point x="307" y="414" type="line"/>
		</contour>
	</outline>
</glyph>
<glyph name="kabashkir-cy" format="2">
	<advance width="738"/>
	<unicode hex="04A1"/>
	<guideline x="405" y="357" angle="180"/>
	<outline>
		<contour>
			<point x="122" y="0" type="line"/>
			<point x="427" y="0" type="line"/>
			<point x="427" y="100" type="line"/>
			<point x="359" y="131" type="line"/>
			<point x="377" y="95" type="line"/>
			<point x="377" y="238" type="line"/>
			<point x="346" y="222" type="line"/>
			<point x="448" y="222" type="line"/>
			<point x="422" y="238" type="line"/>
			<point x="528" y="0" type="line"/>
			<point x="727" y="0" type="line"/>
			<point x="727" y="100" type="line"/>
			<point x="657" y="123" type="line"/>
			<point x="684" y="99" type="line"/>
			<point x="569" y="332" type="line"/>
			<point x="565" y="284" type="line"/>
			<point x="687" y="453" type="line"/>
			<point x="635" y="423" type="line"/>
			<point x="713" y="445" type="line"/>
			<point x="713" y="545" type="line"/>
			<point x="446" y="535" type="line"/>
			<point x="446" y="435" type="line"/>
			<point x="504" y="420" type="line"/>
			<point x="491" y="439" type="line"/>
			<point x="417" y="336" type="line"/>
			<point x="464" y="352" type="line"/>
			<point x="346" y="352" type="line"/>
			<point x="377" y="330" type="line"/>
			<point x="377" y="540" type="line"/>
			<point x="9" y="540" type="line"/>
			<point x="9" y="325" type="line"/>
			<point x="129" y="325" type="line"/>
			<point x="157" y="432" type="line"/>
			<point x="119" y="395" type="line"/>
			<point x="218" y="395" type="line"/>
			<point x="177" y="429" type="line"/>
			<point x="177" y="95" type="line"/>
			<point x="199" y="130" type="line"/>
			<point x="122" y="100" type="line"/>
		</contour>
	</outline>
</glyph>
<glyph name="enghe-cy" format="2">
	<advance width="879"/>
	<unicode hex="04A5"/>
	<anchor x="662" y="0" name="bottomright"/>
	<outline>
		<contour>
			<point x="607" y="540" type="line"/>
			<point x="357" y="536" type="line"/>
			<point x="357" y="436" type="line"/>
			<point x="437" y="406" type="line"/>
			<point x="407" y="456" type="line"/>
			<point x="407" y="296" type="line"/>
			<point x="457" y="349" type="line"/>
			<point x="226" y="349" type="line"/>
			<point x="276" y="296" type="line"/>
			<point x="276" y="461" type="line"/>
			<point x="235" y="403" type="line"/>
			<point x="326" y="444" type="line"/>
			<point x="326" y="544" type="line"/>
			<point x="21" y="536" type="line"/>
			<point x="21" y="436" type="line"/>
			<point x="127" y="393" type="line"/>
			<point x="76" y="456" type="line"/>
			<point x="76" y="75" type="line"/>
			<point x="113" y="137" type="line"/>
			<point x="21" y="100" type="line"/>
			<point x="21" y="0" type="line"/>
			<point x="326" y="0" type="line"/>
			<point x="326" y="100" type="line"/>
			<point x="245" y="131" type="line"/>
			<point x="276" y="75" type="line"/>
			<point x="276" y="261" type="line"/>
			<point x="226" y="208" type="line"/>
			<point x="457" y="208" type="line"/>
			<point x="407" y="261" type="line"/>
			<point x="407" y="75" type="line"/>
			<point x="438" y="131" type="line"/>
			<point x="357" y="100" type="line"/>
			<point x="357" y="0" type="line"/>
			<point x="662" y="0" type="line"/>
			<point x="662" y="100" type="line"/>
			<point x="570" y="137" type="line"/>
			<point x="607" y="75" type="line"/>
			<point x="607" y="413" type="line"/>
			<point x="598" y="395" type="line"/>
			<point x="744" y="395" type="line"/>
			<point x="719" y="418" type="line"/>
			<point x="738" y="291" type="line"/>
			<point x="858" y="291" type="line"/>
			<point x="865" y="540" type="line"/>
		</contour>
	</outline>
</glyph>
<glyph name="cheverticalstroke-cy" format="2">
	<advance width="661"/>
	<unicode hex="04B9"/>
	<outline>
		<contour>
			<point x="316" y="0" type="line"/>
			<point x="641" y="0" type="line"/>
			<point x="641" y="100" type="line"/>
			<point x="549" y="137" type="line"/>
			<point x="586" y="95" type="line"/>
			<point x="586" y="444" type="line"/>
			<point x="549" y="403" type="line"/>
			<point x="641" y="444" type="line"/>
			<point x="641" y="544" type="line"/>
			<point x="346" y="536" type="line"/>
			<point x="346" y="436" type="line"/>
			<point x="416" y="406" type="line"/>
			<point x="386" y="444" type="line"/>
			<point x="386" y="280" type="line"/>
			<point x="416" y="319" type="line"/>
			<point x="369" y="310"/>
			<point x="334" y="302"/>
			<point x="309" y="302" type="curve" smooth="yes"/>
			<point x="271" y="302"/>
			<point x="255" y="319"/>
			<point x="255" y="369" type="curve" smooth="yes"/>
			<point x="255" y="444" type="line"/>
			<point x="214" y="403" type="line"/>
			<point x="295" y="444" type="line"/>
			<point x="295" y="544" type="line"/>
			<point x="0" y="536" type="line"/>
			<point x="0" y="436" type="line"/>
			<point x="106" y="393" type="line"/>
			<point x="55" y="444" type="line"/>
			<point x="55" y="338" type="line" smooth="yes"/>
			<point x="55" y="217"/>
			<point x="131" y="164"/>
			<point x="242" y="164" type="curve" smooth="yes"/>
			<point x="294" y="164"/>
			<point x="353" y="176"/>
			<point x="416" y="197" type="curve"/>
			<point x="386" y="245" type="line"/>
			<point x="386" y="95" type="line"/>
			<point x="417" y="129" type="line"/>
			<point x="316" y="100" type="line"/>
		</contour>
		<contour>
			<point x="284" y="123" type="line"/>
			<point x="359" y="123" type="line"/>
			<point x="359" y="387" type="line"/>
			<point x="284" y="387" type="line"/>
		</contour>
	</outline>
</glyph>
<glyph name="cheabkhasian-cy" format="2">
	<advance width="735"/>
	<unicode hex="04BD"/>
	<outline>
		<contour>
			<point x="456" y="-15" type="curve" smooth="yes"/>
			<point x="540" y="-15"/>
			<point x="627" y="12"/>
			<point x="708" y="68" type="curve"/>
			<point x="643" y="171" type="line"/>
			<point x="591" y="144"/>
			<point x="542" y="130"/>
			<point x="504" y="130" type="curve" smooth="yes"/>
			<point x="415" y="130"/>
			<point x="402" y="205"/>
			<point x="402" y="290" type="curve" smooth="yes"/>
			<point x="402" y="352"/>
			<point x="409" y="415"/>
			<point x="462" y="415" type="curve" smooth="yes"/>
			<point x="499" y="415"/>
			<point x="511" y="386"/>
			<point x="511" y="325" type="curve"/>
			<point x="220" y="325" type="line" smooth="yes"/>
			<point x="178" y="325"/>
			<point x="163" y="346"/>
			<point x="163" y="378" type="curve" smooth="yes"/>
			<point x="163" y="401"/>
			<point x="171" y="429"/>
			<point x="181" y="460" type="curve"/>
			<point x="47" y="489" type="line"/>
			<point x="14" y="442"/>
			<point x="-2" y="396"/>
			<point x="-2" y="357" type="curve" smooth="yes"/>
			<point x="-2" y="278"/>
			<point x="63" y="222"/>
			<point x="194" y="222" type="curve" smooth="yes"/>
			<point x="708" y="222" type="line"/>
			<point x="714" y="253"/>
			<point x="717" y="283"/>
			<point x="717" y="312" type="curve" smooth="yes"/>
			<point x="717" y="449"/>
			<point x="649" y="555"/>
			<point x="479" y="555" type="curve" smooth="yes"/>
			<point x="305" y="555"/>
			<point x="197" y="444"/>
			<point x="197" y="259" type="curve" smooth="yes"/>
			<point x="197" y="79"/>
			<point x="299" y="-15"/>
		</contour>
	</outline>
</glyph>
<glyph name="Chedescenderabkhasian-cy" format="2">
	<advance width="880"/>
	<unicode hex="04BE"/>
	<outline>
		<contour>
			<point x="471" y="-205" type="line"/>
			<point x="591" y="-205" type="line"/>
			<point x="620" y="20" type="line"/>
			<point x="442" y="20" type="line"/>
		</contour>
		<contour>
			<point x="550" y="-15" type="curve" smooth="yes"/>
			<point x="647" y="-15"/>
			<point x="752" y="21"/>
			<point x="853" y="96" type="curve"/>
			<point x="776" y="213" type="line"/>
			<point x="705" y="169"/>
			<point x="641" y="146"/>
			<point x="585" y="146" type="curve" smooth="yes"/>
			<point x="490" y="146"/>
			<point x="439" y="214"/>
			<point x="439" y="380" type="curve" smooth="yes"/>
			<point x="439" y="531"/>
			<point x="481" y="570"/>
			<point x="541" y="570" type="curve" smooth="yes"/>
			<point x="607" y="570"/>
			<point x="634" y="522"/>
			<point x="634" y="403" type="curve"/>
			<point x="653" y="425" type="line"/>
			<point x="247" y="428" type="line" smooth="yes"/>
			<point x="189" y="429"/>
			<point x="167" y="446"/>
			<point x="167" y="479" type="curve" smooth="yes"/>
			<point x="167" y="498"/>
			<point x="174" y="522"/>
			<point x="187" y="551" type="curve"/>
			<point x="60" y="579" type="line"/>
			<point x="24" y="525"/>
			<point x="6" y="474"/>
			<point x="6" y="430" type="curve" smooth="yes"/>
			<point x="6" y="344"/>
			<point x="74" y="285"/>
			<point x="199" y="285" type="curve" smooth="yes"/>
			<point x="854" y="285" type="line"/>
			<point x="854" y="371" type="line" smooth="yes"/>
			<point x="854" y="595"/>
			<point x="746" y="725"/>
			<point x="548" y="725" type="curve" smooth="yes"/>
			<point x="347" y="725"/>
			<point x="219" y="591"/>
			<point x="219" y="361" type="curve" smooth="yes"/>
			<point x="219" y="115"/>
			<point x="366" y="-15"/>
		</contour>
	</outline>
</glyph>
<glyph name="enhook-cy" format="2">
	<advance width="669"/>
	<unicode hex="04C8"/>
	<outline>
		<contour>
			<point x="355" y="-245" type="curve" smooth="yes"/>
			<point x="497" y="-245"/>
			<point x="607" y="-159"/>
			<point x="607" y="3" type="curve" smooth="yes"/>
			<point x="607" y="461" type="line"/>
			<point x="570" y="403" type="line"/>
			<point x="662" y="444" type="line"/>
			<point x="662" y="544" type="line"/>
			<point x="357" y="536" type="line"/>
			<point x="357" y="436" type="line"/>
			<point x="437" y="406" type="line"/>
			<point x="407" y="456" type="line"/>
			<point x="407" y="296" type="line"/>
			<point x="457" y="349" type="line"/>
			<point x="226" y="349" type="line"/>
			<point x="276" y="296" type="line"/>
			<point x="276" y="461" type="line"/>
			<point x="235" y="403" type="line"/>
			<point x="326" y="444" type="line"/>
			<point x="326" y="544" type="line"/>
			<point x="21" y="536" type="line"/>
			<point x="21" y="436" type="line"/>
			<point x="127" y="393" type="line"/>
			<point x="76" y="456" type="line"/>
			<point x="76" y="75" type="line"/>
			<point x="113" y="137" type="line"/>
			<point x="21" y="100" type="line"/>
			<point x="21" y="0" type="line"/>
			<point x="326" y="0" type="line"/>
			<point x="326" y="100" type="line"/>
			<point x="245" y="131" type="line"/>
			<point x="276" y="75" type="line"/>
			<point x="276" y="261" type="line"/>
			<point x="226" y="208" type="line"/>
			<point x="457" y="208" type="line"/>
			<point x="407" y="261" type="line"/>
			<point x="407" y="-23" type="line" smooth="yes"/>
			<point x="407" y="-80"/>
			<point x="381" y="-100"/>
			<point x="329" y="-100" type="curve" smooth="yes"/>
			<point x="317" y="-100"/>
			<point x="304" y="-99"/>
			<point x="289" y="-97" type="curve"/>
			<point x="274" y="-236" type="line"/>
			<point x="302" y="-242"/>
			<point x="329" y="-245"/>
		</contour>
	</outline>
</glyph>
<glyph name="dzeabkhasian-cy" format="2">
	<advance width="521"/>
	<unicode hex="04E1"/>
	<guideline x="518" y="395" angle="90"/>
	<guideline x="-11" y="398" angle="90"/>
	<outline>
		<contour>
			<point x="238" y="-245" type="curve" smooth="yes"/>
			<point x="410" y="-245"/>
			<point x="515" y="-141"/>
			<point x="515" y="8" type="curve" smooth="yes"/>
			<point x="515" y="130"/>
			<point x="446" y="215"/>
			<point x="319" y="215" type="curve" smooth="yes"/>
			<point x="294" y="215" type="line"/>
			<point x="328" y="163" type="line"/>
			<point x="479" y="414" type="line"/>
			<point x="479" y="540" type="line"/>
			<point x="25" y="540" type="line"/>
			<point x="31" y="340" type="line"/>
			<point x="151" y="340" type="line"/>
			<point x="178" y="448" type="line"/>
			<point x="118" y="400" type="line"/>
			<point x="330" y="400" type="line"/>
			<point x="304" y="445" type="line"/>
			<point x="178" y="197" type="line"/>
			<point x="209" y="217" type="line"/>
			<point x="119" y="202" type="line"/>
			<point x="119" y="78" type="line"/>
			<point x="211" y="78" type="line" smooth="yes"/>
			<point x="245" y="78"/>
			<point x="311" y="78"/>
			<point x="311" y="-4" type="curve" smooth="yes"/>
			<point x="311" y="-66"/>
			<point x="271" y="-91"/>
			<point x="213" y="-91" type="curve" smooth="yes"/>
			<point x="165" y="-91"/>
			<point x="106" y="-75"/>
			<point x="46" y="-51" type="curve"/>
			<point x="0" y="-191" type="line"/>
			<point x="83" y="-226"/>
			<point x="165" y="-245"/>
		</contour>
	</outline>
</glyph>
<glyph name="Gestrokehook-cy" format="2">
	<advance width="581"/>
	<unicode hex="04FA"/>
	<guideline x="-172" y="-245" angle="0"/>
	<anchor x="334" y="710" name="top"/>
	<outline>
		<contour>
			<point x="336" y="0" type="line"/>
			<point x="180" y="32" type="line"/>
			<point x="180" y="-23" type="line" smooth="yes"/>
			<point x="180" y="-80"/>
			<point x="155" y="-100"/>
			<point x="97" y="-100" type="curve" smooth="yes"/>
			<point x="85" y="-100"/>
			<point x="70" y="-99"/>
			<point x="54" y="-97" type="curve"/>
			<point x="39" y="-237" type="line"/>
			<point x="69" y="-243"/>
			<point x="98" y="-245"/>
			<point x="121" y="-245" type="curve" smooth="yes"/>
			<point x="278" y="-245"/>
			<point x="380" y="-154"/>
			<point x="380" y="3" type="curve" smooth="yes"/>
			<point x="380" y="100" type="line"/>
			<point x="282" y="132" type="line"/>
			<point x="305" y="105" type="line"/>
			<point x="305" y="595" type="line"/>
			<point x="275" y="565" type="line"/>
			<point x="456" y="565" type="line"/>
			<point x="413" y="584" type="line"/>
			<point x="443" y="474" type="line"/>
			<point x="563" y="474" type="line"/>
			<point x="562" y="710" type="line"/>
			<point x="300" y="710" type="line"/>
			<point x="40" y="705" type="line"/>
			<point x="40" y="605" type="line"/>
			<point x="127" y="571" type="line"/>
			<point x="100" y="610" type="line"/>
			<point x="100" y="105" type="line"/>
			<point x="119" y="132" type="line"/>
			<point x="40" y="100" type="line"/>
			<point x="40" y="0" type="line"/>
		</contour>
		<contour>
			<point x="442" y="414" type="line"/>
			<point x="40" y="414" type="line"/>
			<point x="40" y="279" type="line"/>
			<point x="442" y="279" type="line"/>
		</contour>
	</outline>
</glyph>
<glyph name="Hastroke-cy" format="2">
	<advance width="726"/>
	<unicode hex="04FE"/>
	<outline>
		<contour>
			<point x="121" y="412" type="line"/>
			<point x="121" y="302" type="line"/>
			<point x="597" y="302" type="line"/>
			<point x="597" y="412" type="line"/>
		</contour>
		<contour>
			<point x="698" y="91" type="line"/>
			<point x="473" y="387" type="line"/>
			<point x="464" y="339" type="line"/>
			<point x="678" y="610" type="line"/>
			<point x="631" y="568" type="line"/>
			<point x="702" y="610" type="line"/>
			<point x="702" y="710" type="line"/>
			<point x="436" y="705" type="line"/>
			<point x="436" y="605" type="line"/>
			<point x="501" y="576" type="line"/>
			<point x="491" y="604" type="line"/>
			<point x="374" y="449" type="line"/>
			<point x="413" y="448" type="line"/>
			<point x="293" y="604" type="line"/>
			<point x="286" y="580" type="line"/>
			<point x="347" y="610" type="line"/>
			<point x="347" y="710" type="line"/>
			<point x="24" y="705" type="line"/>
			<point x="24" y="605" type="line"/>
			<point x="90" y="581" type="line"/>
			<point x="46" y="610" type="line"/>
			<point x="258" y="334" type="line"/>
			<point x="263" y="373" type="line"/>
			<point x="34" y="89" type="line"/>
			<point x="86" y="134" type="line"/>
			<point x="14" y="100" type="line"/>
			<point x="14" y="0" type="line"/>
			<point x="283" y="0" type="line"/>
			<point x="283" y="100" type="line"/>
			<point x="212" y="135" type="line"/>
			<point x="221" y="92" type="line"/>
			<point x="365" y="275" type="line"/>
			<point x="317" y="274" type="line"/>
			<point x="456" y="100" type="line"/>
			<point x="449" y="130" type="line"/>
			<point x="384" y="100" type="line"/>
			<point x="384" y="0" type="line"/>
			<point x="713" y="0" type="line"/>
			<point x="713" y="100" type="line"/>
			<point x="640" y="133" type="line"/>
		</contour>
	</outline>
</glyph>
<glyph name="hastroke-cy" format="2">
	<advance width="588"/>
	<unicode hex="04FF"/>
	<outline>
		<contour>
			<point x="74" y="222" type="line"/>
			<point x="499" y="222" type="line"/>
			<point x="499" y="332" type="line"/>
			<point x="74" y="332" type="line"/>
		</contour>
		<contour>
			<point x="14" y="0" type="line"/>
			<point x="176" y="0" type="line"/>
			<point x="347" y="261" type="line"/>
			<point x="390" y="261" type="line"/>
			<point x="539" y="450" type="line"/>
			<point x="484" y="420" type="line"/>
			<point x="570" y="445" type="line"/>
			<point x="570" y="545" type="line"/>
			<point x="405" y="535" type="line"/>
			<point x="244" y="297" type="line"/>
			<point x="198" y="297" type="line"/>
			<point x="47" y="96" type="line"/>
			<point x="93" y="120" type="line"/>
			<point x="14" y="100" type="line"/>
		</contour>
		<contour>
			<point x="273" y="0" type="line"/>
			<point x="578" y="0" type="line"/>
			<point x="578" y="100" type="line"/>
			<point x="504" y="123" type="line"/>
			<point x="535" y="97" type="line"/>
			<point x="352" y="338" type="line"/>
			<point x="264" y="457" type="line"/>
			<point x="251" y="429" type="line"/>
			<point x="307" y="445" type="line"/>
			<point x="307" y="545" type="line"/>
			<point x="20" y="535" type="line"/>
			<point x="20" y="435" type="line"/>
			<point x="88" y="414" type="line"/>
			<point x="48" y="447" type="line"/>
			<point x="209" y="235" type="line"/>
			<point x="318" y="87" type="line"/>
			<point x="328" y="113" type="line"/>
			<point x="273" y="100" type="line"/>
		</contour>
	</outline>
</glyph>
<glyph name="Reversedze-cy" format="2">
	<advance width="579"/>
	<unicode hex="0510"/>
	<outline>
		<contour>
			<point x="293" y="-15" type="curve" smooth="yes"/>
			<point x="385" y="-15"/>
			<point x="482" y="12"/>
			<point x="558" y="63" type="curve"/>
			<point x="490" y="184" type="line"/>
			<point x="443" y="157"/>
			<point x="383" y="141"/>
			<point x="332" y="141" type="curve" smooth="yes"/>
			<point x="275" y="141"/>
			<point x="228" y="161"/>
			<point x="228" y="216" type="curve" smooth="yes"/>
			<point x="228" y="265"/>
			<point x="264" y="292"/>
			<point x="334" y="292" type="curve" smooth="yes"/>
			<point x="415" y="292" type="line"/>
			<point x="415" y="434" type="line"/>
			<point x="343" y="434" type="line" smooth="yes"/>
			<point x="288" y="434"/>
			<point x="249" y="459"/>
			<point x="249" y="509" type="curve" smooth="yes"/>
			<point x="249" y="558"/>
			<point x="285" y="579"/>
			<point x="338" y="579" type="curve" smooth="yes"/>
			<point x="368" y="579"/>
			<point x="404" y="572"/>
			<point x="441" y="561" type="curve"/>
			<point x="402" y="585" type="line"/>
			<point x="428" y="486" type="line"/>
			<point x="548" y="486" type="line"/>
			<point x="559" y="682" type="line"/>
			<point x="483" y="710"/>
			<point x="399" y="725"/>
			<point x="321" y="725" type="curve" smooth="yes"/>
			<point x="170" y="725"/>
			<point x="42" y="669"/>
			<point x="42" y="533" type="curve" smooth="yes"/>
			<point x="42" y="432"/>
			<point x="113" y="367"/>
			<point x="232" y="356" type="curve"/>
			<point x="226" y="373" type="line"/>
			<point x="90" y="364"/>
			<point x="20" y="295"/>
			<point x="20" y="191" type="curve" smooth="yes"/>
			<point x="20" y="51"/>
			<point x="149" y="-15"/>
		</contour>
	</outline>
</glyph>
<glyph name="figuredash" format="2">
	<advance width="644"/>
	<unicode hex="2012"/>
	<outline>
		<contour>
			<point x="597" y="435" type="line"/>
			<point x="47" y="435" type="line"/>
			<point x="47" y="285" type="line"/>
			<point x="597" y="285" type="line"/>
		</contour>
	</outline>
</glyph>
<glyph name="endash" format="2">
	<advance width="594"/>
	<unicode hex="2013"/>
	<outline>
		<contour>
			<point x="547" y="368" type="line"/>
			<point x="47" y="368" type="line"/>
			<point x="47" y="218" type="line"/>
			<point x="547" y="218" type="line"/>
		</contour>
	</outline>
</glyph>
<glyph name="daggerdbl" format="2">
	<advance width="506"/>
	<unicode hex="2021"/>
	<outline>
		<contour>
			<point x="252" y="386" type="line"/>
			<point x="491" y="430" type="line"/>
			<point x="491" y="540" type="line"/>
			<point x="294" y="540" type="line"/>
			<point x="324" y="480" type="line"/>
			<point x="336" y="685" type="line"/>
			<point x="170" y="678" type="line"/>
			<point x="182" y="480" type="line"/>
			<point x="211" y="540" type="line"/>
			<point x="15" y="540" type="line"/>
			<point x="15" y="430" type="line"/>
		</contour>
		<contour>
			<point x="252" y="-80" type="line"/>
			<point x="336" y="-18" type="line"/>
			<point x="348" y="184" type="line"/>
			<point x="252" y="162" type="line"/>
			<point x="158" y="184" type="line"/>
			<point x="170" y="-18" type="line"/>
		</contour>
		<contour>
			<point x="252" y="212" type="line"/>
			<point x="438" y="254" type="line"/>
			<point x="438" y="370" type="line"/>
			<point x="252" y="336" type="line"/>
			<point x="66" y="370" type="line"/>
			<point x="66" y="254" type="line"/>
		</contour>
	</outline>
</glyph>
<glyph name="perthousand" format="2">
	<advance width="1298"/>
	<unicode hex="2030"/>
	<outline>
		<contour>
			<point x="1087" y="-15" type="curve" smooth="yes"/>
			<point x="1207" y="-15"/>
			<point x="1278" y="65"/>
			<point x="1278" y="181" type="curve" smooth="yes"/>
			<point x="1278" y="286"/>
			<point x="1215" y="364"/>
			<point x="1093" y="364" type="curve" smooth="yes"/>
			<point x="970" y="364"/>
			<point x="901" y="286"/>
			<point x="901" y="174" type="curve" smooth="yes"/>
			<point x="901" y="59"/>
			<point x="973" y="-15"/>
		</contour>
		<contour>
			<point x="1090" y="90" type="curve" smooth="yes"/>
			<point x="1055" y="90"/>
			<point x="1046" y="117"/>
			<point x="1046" y="172" type="curve" smooth="yes"/>
			<point x="1046" y="233"/>
			<point x="1056" y="259"/>
			<point x="1091" y="259" type="curve" smooth="yes"/>
			<point x="1124" y="259"/>
			<point x="1133" y="234"/>
			<point x="1133" y="175" type="curve" smooth="yes"/>
			<point x="1133" y="116"/>
			<point x="1124" y="90"/>
		</contour>
		<contour>
			<point x="124" y="-16" type="line"/>
			<point x="284" y="-16" type="line"/>
			<point x="762" y="724" type="line"/>
			<point x="602" y="724" type="line"/>
		</contour>
		<contour>
			<point x="206" y="346" type="curve" smooth="yes"/>
			<point x="326" y="346"/>
			<point x="397" y="426"/>
			<point x="397" y="542" type="curve" smooth="yes"/>
			<point x="397" y="647"/>
			<point x="334" y="725"/>
			<point x="212" y="725" type="curve" smooth="yes"/>
			<point x="89" y="725"/>
			<point x="20" y="647"/>
			<point x="20" y="535" type="curve" smooth="yes"/>
			<point x="20" y="420"/>
			<point x="92" y="346"/>
		</contour>
		<contour>
			<point x="209" y="451" type="curve" smooth="yes"/>
			<point x="174" y="451"/>
			<point x="165" y="478"/>
			<point x="165" y="533" type="curve" smooth="yes"/>
			<point x="165" y="594"/>
			<point x="175" y="620"/>
			<point x="210" y="620" type="curve" smooth="yes"/>
			<point x="243" y="620"/>
			<point x="252" y="595"/>
			<point x="252" y="536" type="curve" smooth="yes"/>
			<point x="252" y="477"/>
			<point x="243" y="451"/>
		</contour>
		<contour>
			<point x="680" y="-15" type="curve" smooth="yes"/>
			<point x="800" y="-15"/>
			<point x="871" y="65"/>
			<point x="871" y="181" type="curve" smooth="yes"/>
			<point x="871" y="286"/>
			<point x="808" y="364"/>
			<point x="686" y="364" type="curve" smooth="yes"/>
			<point x="563" y="364"/>
			<point x="494" y="286"/>
			<point x="494" y="174" type="curve" smooth="yes"/>
			<point x="494" y="59"/>
			<point x="566" y="-15"/>
		</contour>
		<contour>
			<point x="683" y="90" type="curve" smooth="yes"/>
			<point x="648" y="90"/>
			<point x="639" y="117"/>
			<point x="639" y="172" type="curve" smooth="yes"/>
			<point x="639" y="233"/>
			<point x="649" y="259"/>
			<point x="684" y="259" type="curve" smooth="yes"/>
			<point x="717" y="259"/>
			<point x="726" y="234"/>
			<point x="726" y="175" type="curve" smooth="yes"/>
			<point x="726" y="116"/>
			<point x="717" y="90"/>
		</contour>
	</outline>
</glyph>
<glyph name="minute" format="2">
	<advance width="317"/>
	<unicode hex="2032"/>
	<outline>
		<contour>
			<point x="50" y="482" type="line"/>
			<point x="172" y="482" type="line"/>
			<point x="267" y="780" type="line"/>
			<point x="95" y="780" type="line"/>
		</contour>
	</outline>
</glyph>
<glyph name="overline" format="2">
	<advance width="450"/>
	<unicode hex="203E"/>
	<outline>
		<contour>
			<point x="420" y="674" type="line"/>
			<point x="30" y="674" type="line"/>
			<point x="30" y="564" type="line"/>
			<point x="420" y="564" type="line"/>
		</contour>
	</outline>
</glyph>
<glyph name="nmod" format="2">
	<advance width="538"/>
	<unicode hex="207F"/>
	<guideline x="131" y="325" angle="0"/>
	<outline>
		<contour>
			<point x="23" y="325" type="line"/>
			<point x="253" y="325" type="line"/>
			<point x="253" y="402" type="line"/>
			<point x="206" y="422" type="line"/>
			<point x="218" y="401" type="line"/>
			<point x="218" y="601" type="line"/>
			<point x="209" y="580" type="line"/>
			<point x="232" y="600"/>
			<point x="255" y="610"/>
			<point x="273" y="610" type="curve" smooth="yes"/>
			<point x="295" y="610"/>
			<point x="310" y="596"/>
			<point x="310" y="567" type="curve" smooth="yes"/>
			<point x="310" y="401" type="line"/>
			<point x="326" y="423" type="line"/>
			<point x="275" y="402" type="line"/>
			<point x="275" y="325" type="line"/>
			<point x="503" y="325" type="line"/>
			<point x="503" y="402" type="line"/>
			<point x="453" y="424" type="line"/>
			<point x="465" y="404" type="line"/>
			<point x="465" y="596" type="line" smooth="yes"/>
			<point x="465" y="676"/>
			<point x="410" y="725"/>
			<point x="343" y="725" type="curve" smooth="yes"/>
			<point x="294" y="725"/>
			<point x="237" y="701"/>
			<point x="188" y="653" type="curve"/>
			<point x="202" y="646" type="line"/>
			<point x="183" y="718" type="line"/>
			<point x="23" y="710" type="line"/>
			<point x="23" y="633" type="line"/>
			<point x="80" y="610" type="line"/>
			<point x="63" y="633" type="line"/>
			<point x="63" y="404" type="line"/>
			<point x="80" y="425" type="line"/>
			<point x="23" y="402" type="line"/>
		</contour>
	</outline>
</glyph>
<glyph name="colonsign" format="2">
	<advance width="635"/>
	<unicode hex="20A1"/>
	<outline>
		<contour>
			<point x="160" y="-125" type="line"/>
			<point x="250" y="-125" type="line"/>
			<point x="308" y="185" type="line"/>
			<point x="257" y="220"/>
			<point x="237" y="293"/>
			<point x="237" y="375" type="curve" smooth="yes"/>
			<point x="237" y="473"/>
			<point x="266" y="543"/>
			<point x="349" y="553" type="curve"/>
			<point x="403" y="833" type="line"/>
			<point x="313" y="833" type="line"/>
			<point x="282" y="673" type="line"/>
			<point x="301" y="706" type="line"/>
			<point x="131" y="681"/>
			<point x="17" y="558"/>
			<point x="17" y="357" type="curve" smooth="yes"/>
			<point x="17" y="195"/>
			<point x="91" y="79"/>
			<point x="202" y="29" type="curve"/>
			<point x="198" y="79" type="line"/>
		</contour>
		<contour>
			<point x="293" y="-125" type="line"/>
			<point x="383" y="-125" type="line"/>
			<point x="416" y="52" type="line"/>
			<point x="374" y="2" type="line"/>
			<point x="451" y="9"/>
			<point x="536" y="39"/>
			<point x="619" y="101" type="curve"/>
			<point x="542" y="217" type="line"/>
			<point x="491" y="186"/>
			<point x="437" y="162"/>
			<point x="384" y="162" type="curve" smooth="yes"/>
			<point x="372" y="162"/>
			<point x="359" y="163"/>
			<point x="347" y="166" type="curve"/>
		</contour>
		<contour>
			<point x="474" y="457" type="line"/>
			<point x="594" y="457" type="line"/>
			<point x="606" y="656" type="line"/>
			<point x="561" y="674"/>
			<point x="520" y="687"/>
			<point x="481" y="696" type="curve"/>
			<point x="501" y="653" type="line"/>
			<point x="536" y="833" type="line"/>
			<point x="446" y="833" type="line"/>
			<point x="392" y="554" type="line"/>
			<point x="419" y="551"/>
			<point x="443" y="546"/>
			<point x="477" y="534" type="curve"/>
			<point x="443" y="564" type="line"/>
		</contour>
	</outline>
</glyph>
<glyph name="franc" format="2">
	<advance width="595"/>
	<unicode hex="20A3"/>
	<guideline x="52" y="156" angle="90"/>
	<guideline x="497" y="156" angle="90"/>
	<outline>
		<contour>
			<point x="52" y="0" type="line"/>
			<point x="392" y="0" type="line"/>
			<point x="392" y="100" type="line"/>
			<point x="294" y="132" type="line"/>
			<point x="317" y="105" type="line"/>
			<point x="317" y="200" type="line"/>
			<point x="287" y="171" type="line"/>
			<point x="427" y="171" type="line"/>
			<point x="427" y="266" type="line"/>
			<point x="287" y="266" type="line"/>
			<point x="317" y="242" type="line"/>
			<point x="317" y="345" type="line"/>
			<point x="287" y="315" type="line"/>
			<point x="497" y="315" type="line"/>
			<point x="497" y="435" type="line"/>
			<point x="287" y="435" type="line"/>
			<point x="317" y="408" type="line"/>
			<point x="317" y="595" type="line"/>
			<point x="287" y="565" type="line"/>
			<point x="470" y="565" type="line"/>
			<point x="435" y="584" type="line"/>
			<point x="457" y="505" type="line"/>
			<point x="577" y="505" type="line"/>
			<point x="576" y="710" type="line"/>
			<point x="312" y="710" type="line"/>
			<point x="52" y="705" type="line"/>
			<point x="52" y="605" type="line"/>
			<point x="139" y="571" type="line"/>
			<point x="112" y="610" type="line"/>
			<point x="112" y="242" type="line"/>
			<point x="136" y="266" type="line"/>
			<point x="52" y="266" type="line"/>
			<point x="52" y="171" type="line"/>
			<point x="136" y="171" type="line"/>
			<point x="112" y="200" type="line"/>
			<point x="112" y="105" type="line"/>
			<point x="131" y="132" type="line"/>
			<point x="52" y="100" type="line"/>
		</contour>
	</outline>
</glyph>
<glyph name="lira" format="2">
	<advance width="635"/>
	<unicode hex="20A4"/>
	<guideline x="34" y="586" angle="90"/>
	<outline>
		<contour>
			<point x="44" y="0" type="line"/>
			<point x="591" y="0" type="line"/>
			<point x="591" y="220" type="line"/>
			<point x="471" y="220" type="line"/>
			<point x="446" y="114" type="line"/>
			<point x="472" y="145" type="line"/>
			<point x="248" y="145" type="line"/>
			<point x="270" y="124" type="line"/>
			<point x="319" y="174"/>
			<point x="324" y="207"/>
			<point x="329" y="257" type="curve" smooth="yes"/>
			<point x="329" y="263"/>
			<point x="329" y="258"/>
			<point x="329" y="270" type="curve"/>
			<point x="284" y="253" type="line"/>
			<point x="447" y="253" type="line"/>
			<point x="447" y="343" type="line"/>
			<point x="44" y="343" type="line"/>
			<point x="44" y="253" type="line"/>
			<point x="169" y="253" type="line"/>
			<point x="123" y="295" type="line"/>
			<point x="127" y="260"/>
			<point x="130" y="229"/>
			<point x="130" y="201" type="curve" smooth="yes"/>
			<point x="130" y="156"/>
			<point x="122" y="119"/>
			<point x="96" y="95" type="curve"/>
			<point x="151" y="140" type="line"/>
			<point x="44" y="100" type="line"/>
		</contour>
		<contour>
			<point x="44" y="383" type="line"/>
			<point x="447" y="383" type="line"/>
			<point x="447" y="473" type="line"/>
			<point x="262" y="473" type="line"/>
			<point x="313" y="428" type="line"/>
			<point x="312" y="439"/>
			<point x="309" y="488"/>
			<point x="309" y="506" type="curve" smooth="yes"/>
			<point x="309" y="568"/>
			<point x="346" y="581"/>
			<point x="383" y="581" type="curve" smooth="yes"/>
			<point x="403" y="581"/>
			<point x="423" y="577"/>
			<point x="440" y="569" type="curve"/>
			<point x="426" y="594" type="line"/>
			<point x="449" y="510" type="line"/>
			<point x="569" y="510" type="line"/>
			<point x="582" y="689" type="line"/>
			<point x="503" y="712"/>
			<point x="426" y="725"/>
			<point x="357" y="725" type="curve" smooth="yes"/>
			<point x="210" y="725"/>
			<point x="104" y="666"/>
			<point x="104" y="502" type="curve" smooth="yes"/>
			<point x="104" y="479"/>
			<point x="106" y="448"/>
			<point x="108" y="429" type="curve"/>
			<point x="151" y="473" type="line"/>
			<point x="44" y="473" type="line"/>
		</contour>
	</outline>
</glyph>
<glyph name="naira" format="2">
	<advance width="830"/>
	<unicode hex="20A6"/>
	<guideline x="63" y="595" angle="90"/>
	<guideline x="779" y="595" angle="90"/>
	<guideline x="369" y="469" angle="0"/>
	<guideline x="369" y="249" angle="0"/>
	<outline>
		<contour>
			<point x="63" y="0" type="line"/>
			<point x="351" y="0" type="line"/>
			<point x="351" y="100" type="line"/>
			<point x="262" y="135" type="line"/>
			<point x="291" y="95" type="line"/>
			<point x="291" y="318" type="line"/>
			<point x="123" y="318" type="line"/>
			<point x="123" y="95" type="line"/>
			<point x="152" y="135" type="line"/>
			<point x="63" y="100" type="line"/>
		</contour>
		<contour>
			<point x="482" y="0" type="line"/>
			<point x="719" y="0" type="line"/>
			<point x="719" y="318" type="line"/>
			<point x="551" y="318" type="line"/>
			<point x="551" y="228" type="line"/>
			<point x="580" y="228" type="line"/>
			<point x="540" y="318" type="line"/>
			<point x="341" y="318" type="line"/>
		</contour>
		<contour>
			<point x="63" y="249" type="line"/>
			<point x="779" y="249" type="line"/>
			<point x="779" y="339" type="line"/>
			<point x="63" y="339" type="line"/>
		</contour>
		<contour>
			<point x="63" y="379" type="line"/>
			<point x="779" y="379" type="line"/>
			<point x="779" y="469" type="line"/>
			<point x="63" y="469" type="line"/>
		</contour>
		<contour>
			<point x="551" y="403" type="line"/>
			<point x="719" y="403" type="line"/>
			<point x="719" y="611" type="line"/>
			<point x="692" y="570" type="line"/>
			<point x="779" y="610" type="line"/>
			<point x="779" y="710" type="line"/>
			<point x="491" y="705" type="line"/>
			<point x="491" y="605" type="line"/>
			<point x="580" y="570" type="line"/>
			<point x="551" y="610" type="line"/>
		</contour>
		<contour>
			<point x="123" y="403" type="line"/>
			<point x="291" y="403" type="line"/>
			<point x="291" y="495" type="line"/>
			<point x="263" y="495" type="line"/>
			<point x="304" y="402" type="line"/>
			<point x="502" y="403" type="line"/>
			<point x="366" y="710" type="line"/>
			<point x="63" y="705" type="line"/>
			<point x="63" y="605" type="line"/>
			<point x="141" y="574" type="line"/>
			<point x="123" y="610" type="line"/>
		</contour>
	</outline>
</glyph>
<glyph name="tenge" format="2">
	<advance width="653"/>
	<unicode hex="20B8"/>
	<outline>
		<contour>
			<point x="154" y="0" type="line"/>
			<point x="499" y="0" type="line"/>
			<point x="499" y="100" type="line"/>
			<point x="396" y="135" type="line"/>
			<point x="429" y="85" type="line"/>
			<point x="429" y="475" type="line"/>
			<point x="389" y="445" type="line"/>
			<point x="531" y="445" type="line"/>
			<point x="489" y="475" type="line"/>
			<point x="519" y="354" type="line"/>
			<point x="639" y="354" type="line"/>
			<point x="639" y="580" type="line"/>
			<point x="14" y="580" type="line"/>
			<point x="14" y="354" type="line"/>
			<point x="134" y="354" type="line"/>
			<point x="166" y="483" type="line"/>
			<point x="122" y="445" type="line"/>
			<point x="264" y="445" type="line"/>
			<point x="224" y="475" type="line"/>
			<point x="224" y="85" type="line"/>
			<point x="259" y="135" type="line"/>
			<point x="154" y="100" type="line"/>
		</contour>
		<contour>
			<point x="14" y="620" type="line"/>
			<point x="639" y="620" type="line"/>
			<point x="639" y="710" type="line"/>
			<point x="14" y="710" type="line"/>
		</contour>
	</outline>
</glyph>
<glyph name="manat" format="2">
	<advance width="895"/>
	<unicode hex="20BC"/>
	<outline>
		<contour>
			<point x="7" y="0" type="line"/>
			<point x="247" y="0" type="line"/>
			<point x="268" y="374"/>
			<point x="288" y="515"/>
			<point x="407" y="541" type="curve"/>
			<point x="377" y="568" type="line"/>
			<point x="377" y="111" type="line"/>
			<point x="517" y="111" type="line"/>
			<point x="517" y="568" type="line"/>
			<point x="480" y="544" type="line"/>
			<point x="608" y="529"/>
			<point x="620" y="400"/>
			<point x="642" y="0" type="curve"/>
			<point x="887" y="0" type="line"/>
			<point x="887" y="100" type="line"/>
			<point x="826" y="122" type="line"/>
			<point x="847" y="75" type="line"/>
			<point x="815" y="490"/>
			<point x="737" y="684"/>
			<point x="490" y="699" type="curve"/>
			<point x="517" y="661" type="line"/>
			<point x="517" y="833" type="line"/>
			<point x="377" y="833" type="line"/>
			<point x="377" y="661" type="line"/>
			<point x="408" y="697" type="line"/>
			<point x="170" y="673"/>
			<point x="78" y="472"/>
			<point x="47" y="74" type="curve"/>
			<point x="68" y="123" type="line"/>
			<point x="7" y="100" type="line"/>
		</contour>
	</outline>
</glyph>
<glyph name="ruble" format="2">
	<advance width="664"/>
	<unicode hex="20BD"/>
	<outline>
		<contour>
			<point x="63" y="285" type="line"/>
			<point x="403" y="285" type="line" smooth="yes"/>
			<point x="563" y="285"/>
			<point x="653" y="373"/>
			<point x="653" y="500" type="curve" smooth="yes"/>
			<point x="653" y="626"/>
			<point x="565" y="710"/>
			<point x="398" y="710" type="curve" smooth="yes"/>
			<point x="332" y="710" type="line"/>
			<point x="63" y="705" type="line"/>
			<point x="63" y="605" type="line"/>
			<point x="158" y="570" type="line"/>
			<point x="123" y="612" type="line"/>
			<point x="123" y="360" type="line"/>
			<point x="155" y="380" type="line"/>
			<point x="63" y="380" type="line"/>
		</contour>
		<contour>
			<point x="63" y="0" type="line"/>
			<point x="408" y="0" type="line"/>
			<point x="408" y="100" type="line"/>
			<point x="301" y="132" type="line"/>
			<point x="328" y="95" type="line"/>
			<point x="328" y="179" type="line"/>
			<point x="296" y="155" type="line"/>
			<point x="460" y="155" type="line"/>
			<point x="460" y="245" type="line"/>
			<point x="63" y="245" type="line"/>
			<point x="63" y="155" type="line"/>
			<point x="155" y="155" type="line"/>
			<point x="123" y="179" type="line"/>
			<point x="123" y="95" type="line"/>
			<point x="153" y="135" type="line"/>
			<point x="63" y="100" type="line"/>
		</contour>
		<contour>
			<point x="328" y="360" type="line"/>
			<point x="328" y="596" type="line"/>
			<point x="298" y="566" type="line"/>
			<point x="368" y="566" type="line" smooth="yes"/>
			<point x="419" y="566"/>
			<point x="445" y="537"/>
			<point x="445" y="475" type="curve" smooth="yes"/>
			<point x="445" y="418"/>
			<point x="419" y="380"/>
			<point x="358" y="380" type="curve" smooth="yes"/>
			<point x="288" y="380" type="line"/>
		</contour>
	</outline>
</glyph>
<glyph name="trademark" format="2">
	<advance width="1032"/>
	<unicode hex="2122"/>
	<guideline x="428" y="317" angle="0"/>
	<guideline x="428" y="402" angle="0"/>
	<outline>
		<contour>
			<point x="108" y="317" type="line"/>
			<point x="355" y="317" type="line"/>
			<point x="355" y="392" type="line"/>
			<point x="284" y="414" type="line"/>
			<point x="306" y="377" type="line"/>
			<point x="306" y="624" type="line"/>
			<point x="279" y="605" type="line"/>
			<point x="354" y="605" type="line"/>
			<point x="328" y="624" type="line"/>
			<point x="345" y="559" type="line"/>
			<point x="435" y="559" type="line"/>
			<point x="435" y="710" type="line"/>
			<point x="28" y="710" type="line"/>
			<point x="28" y="559" type="line"/>
			<point x="118" y="559" type="line"/>
			<point x="136" y="630" type="line"/>
			<point x="108" y="605" type="line"/>
			<point x="184" y="605" type="line"/>
			<point x="156" y="624" type="line"/>
			<point x="156" y="377" type="line"/>
			<point x="181" y="414" type="line"/>
			<point x="108" y="392" type="line"/>
		</contour>
		<contour>
			<point x="978" y="637" type="line"/>
			<point x="978" y="712" type="line"/>
			<point x="767" y="709" type="line"/>
			<point x="691" y="513" type="line"/>
			<point x="752" y="513" type="line"/>
			<point x="674" y="712" type="line"/>
			<point x="456" y="709" type="line"/>
			<point x="456" y="635" type="line"/>
			<point x="512" y="613" type="line"/>
			<point x="495" y="645" type="line"/>
			<point x="495" y="388" type="line"/>
			<point x="512" y="413" type="line"/>
			<point x="456" y="392" type="line"/>
			<point x="461" y="317" type="line"/>
			<point x="641" y="317" type="line"/>
			<point x="641" y="392" type="line"/>
			<point x="591" y="412" type="line"/>
			<point x="608" y="388" type="line"/>
			<point x="608" y="595" type="line"/>
			<point x="586" y="578" type="line"/>
			<point x="662" y="413" type="line"/>
			<point x="745" y="416" type="line"/>
			<point x="820" y="585" type="line"/>
			<point x="797" y="595" type="line"/>
			<point x="797" y="388" type="line"/>
			<point x="823" y="414" type="line"/>
			<point x="764" y="392" type="line"/>
			<point x="764" y="317" type="line"/>
			<point x="978" y="317" type="line"/>
			<point x="978" y="392" type="line"/>
			<point x="922" y="414" type="line"/>
			<point x="940" y="388" type="line"/>
			<point x="940" y="645" type="line"/>
			<point x="922" y="611" type="line"/>
		</contour>
	</outline>
</glyph>
<glyph name="upDownbaseArrow" format="2">
	<advance width="695"/>
	<unicode hex="21A8"/>
	<outline>
		<contour>
			<point x="309" y="-46" type="line"/>
			<point x="386" y="-46" type="line"/>
			<point x="695" y="249" type="line"/>
			<point x="606" y="343" type="line"/>
			<point x="380" y="142" type="line"/>
			<point x="435" y="141" type="line"/>
			<point x="435" y="702" type="line"/>
			<point x="371" y="702" type="line"/>
			<point x="598" y="497" type="line"/>
			<point x="695" y="595" type="line"/>
			<point x="386" y="890" type="line"/>
			<point x="309" y="890" type="line"/>
			<point x="0" y="595" type="line"/>
			<point x="89" y="501" type="line"/>
			<point x="315" y="702" type="line"/>
			<point x="260" y="703" type="line"/>
			<point x="260" y="142" type="line"/>
			<point x="324" y="142" type="line"/>
			<point x="97" y="347" type="line"/>
			<point x="0" y="249" type="line"/>
		</contour>
		<contour>
			<point x="20" y="-230" type="line"/>
			<point x="675" y="-230" type="line"/>
			<point x="675" y="-90" type="line"/>
			<point x="20" y="-90" type="line"/>
		</contour>
	</outline>
</glyph>
<glyph name="increment" format="2">
	<advance width="673"/>
	<unicode hex="2206"/>
	<outline>
		<contour>
			<point x="427" y="713" type="line"/>
			<point x="249" y="713" type="line"/>
			<point x="10" y="130" type="line"/>
			<point x="10" y="0" type="line"/>
			<point x="662" y="0" type="line"/>
			<point x="662" y="131" type="line"/>
		</contour>
		<contour>
			<point x="556" y="140" type="line"/>
			<point x="92" y="140" type="line"/>
			<point x="154" y="61" type="line"/>
			<point x="365" y="596" type="line"/>
			<point x="276" y="596" type="line"/>
			<point x="484" y="61" type="line"/>
		</contour>
	</outline>
</glyph>
<glyph name="product" format="2">
	<advance width="763"/>
	<unicode hex="220F"/>
	<outline>
		<contour>
			<point x="31" y="-230" type="line"/>
			<point x="351" y="-230" type="line"/>
			<point x="351" y="-130" type="line"/>
			<point x="272" y="-96" type="line"/>
			<point x="296" y="-135" type="line"/>
			<point x="296" y="611" type="line"/>
			<point x="267" y="565" type="line"/>
			<point x="497" y="565" type="line"/>
			<point x="467" y="610" type="line"/>
			<point x="467" y="-135" type="line"/>
			<point x="491" y="-96" type="line"/>
			<point x="412" y="-130" type="line"/>
			<point x="412" y="-230" type="line"/>
			<point x="732" y="-230" type="line"/>
			<point x="732" y="-130" type="line"/>
			<point x="646" y="-96" type="line"/>
			<point x="672" y="-135" type="line"/>
			<point x="672" y="611" type="line"/>
			<point x="646" y="570" type="line"/>
			<point x="732" y="610" type="line"/>
			<point x="732" y="710" type="line"/>
			<point x="296" y="710" type="line"/>
			<point x="31" y="705" type="line"/>
			<point x="31" y="605" type="line"/>
			<point x="123" y="569" type="line"/>
			<point x="91" y="610" type="line"/>
			<point x="91" y="-135" type="line"/>
			<point x="116" y="-96" type="line"/>
			<point x="31" y="-130" type="line"/>
		</contour>
	</outline>
</glyph>
<glyph name="intersection" format="2">
	<advance width="673"/>
	<unicode hex="2229"/>
	<outline>
		<contour>
			<point x="56" y="0" type="line"/>
			<point x="256" y="0" type="line"/>
			<point x="256" y="425" type="line" smooth="yes"/>
			<point x="256" y="527"/>
			<point x="275" y="570"/>
			<point x="339" y="570" type="curve" smooth="yes"/>
			<point x="400" y="570"/>
			<point x="416" y="530"/>
			<point x="416" y="440" type="curve" smooth="yes"/>
			<point x="416" y="0" type="line"/>
			<point x="616" y="0" type="line"/>
			<point x="616" y="440" type="line" smooth="yes"/>
			<point x="616" y="640"/>
			<point x="534" y="725"/>
			<point x="345" y="725" type="curve" smooth="yes"/>
			<point x="150" y="725"/>
			<point x="56" y="637"/>
			<point x="56" y="425" type="curve" smooth="yes"/>
		</contour>
	</outline>
</glyph>
<glyph name="notequal" format="2">
	<advance width="514"/>
	<unicode hex="2260"/>
	<outline>
		<contour>
			<point x="139" y="30" type="line"/>
			<point x="471" y="605" type="line"/>
			<point x="375" y="660" type="line"/>
			<point x="43" y="85" type="line"/>
		</contour>
		<contour>
			<point x="20" y="167" type="line"/>
			<point x="494" y="167" type="line"/>
			<point x="494" y="307" type="line"/>
			<point x="20" y="307" type="line"/>
		</contour>
		<contour>
			<point x="20" y="382" type="line"/>
			<point x="494" y="382" type="line"/>
			<point x="494" y="522" type="line"/>
			<point x="20" y="522" type="line"/>
		</contour>
	</outline>
</glyph>
<glyph name="lessequal" format="2">
	<advance width="563"/>
	<unicode hex="2264"/>
	<guideline x="39" y="365" angle="90"/>
	<outline>
		<contour>
			<point x="464" y="196" type="line"/>
			<point x="516" y="341" type="line"/>
			<point x="191" y="463" type="line"/>
			<point x="191" y="417" type="line"/>
			<point x="515" y="544" type="line"/>
			<point x="466" y="682" type="line"/>
			<point x="39" y="509" type="line"/>
			<point x="39" y="365" type="line"/>
		</contour>
		<contour>
			<point x="513" y="169" type="line"/>
			<point x="39" y="169" type="line"/>
			<point x="39" y="29" type="line"/>
			<point x="513" y="29" type="line"/>
		</contour>
	</outline>
</glyph>
<glyph name="upWhiteTriangle" format="2">
	<advance width="631"/>
	<unicode hex="25B3"/>
	<outline>
		<contour>
			<point x="316" y="561" type="line"/>
			<point x="59" y="117" type="line"/>
			<point x="572" y="117" type="line"/>
		</contour>
		<contour>
			<point x="284" y="389" type="line"/>
			<point x="403" y="182" type="line"/>
			<point x="433" y="236" type="line"/>
			<point x="196" y="236" type="line"/>
			<point x="226" y="183" type="line"/>
			<point x="345" y="389" type="line"/>
		</contour>
	</outline>
</glyph>
<glyph name="blackDiamond" format="2">
	<advance width="676"/>
	<unicode hex="25C6"/>
	<outline>
		<contour>
			<point x="10" y="307" type="line"/>
			<point x="336" y="-21" type="line"/>
			<point x="666" y="311" type="line"/>
			<point x="340" y="638" type="line"/>
		</contour>
	</outline>
</glyph>
<glyph name="whiteDiamond" format="2">
	<advance width="676"/>
	<unicode hex="25C7"/>
	<outline>
		<contour>
			<point x="10" y="307" type="line"/>
			<point x="336" y="-21" type="line"/>
			<point x="666" y="311" type="line"/>
			<point x="340" y="638" type="line"/>
		</contour>
		<contour>
			<point x="173" y="257" type="line"/>
			<point x="389" y="475" type="line"/>
			<point x="269" y="482" type="line"/>
			<point x="511" y="240" type="line"/>
			<point x="504" y="360" type="line"/>
			<point x="287" y="143" type="line"/>
			<point x="407" y="136" type="line"/>
			<point x="166" y="377" type="line"/>
		</contour>
	</outline>
</glyph>
<glyph name="El-cy.loclBGR" format="2">
	<advance width="718"/>
	<outline>
		<contour>
			<point x="327" y="605" type="line"/>
			<point x="453" y="104" type="line"/>
			<point x="471" y="131" type="line"/>
			<point x="403" y="100" type="line"/>
			<point x="403" y="0" type="line"/>
			<point x="716" y="0" type="line"/>
			<point x="716" y="100" type="line"/>
			<point x="638" y="135" type="line"/>
			<point x="689" y="89" type="line"/>
			<point x="471" y="713" type="line"/>
			<point x="260" y="708" type="line"/>
			<point x="32" y="94" type="line"/>
			<point x="77" y="133" type="line"/>
			<point x="1" y="100" type="line"/>
			<point x="1" y="0" type="line"/>
			<point x="279" y="0" type="line"/>
			<point x="279" y="100" type="line"/>
			<point x="219" y="127" type="line"/>
			<point x="223" y="108" type="line"/>
			<point x="375" y="604" type="line"/>
		</contour>
	</outline>
</glyph>
<glyph name="a.sc.ogonekAccent" format="2">
	<advance width="678"/>
	<anchor x="322" y="0" name="bottom"/>
	<anchor x="564" y="0" name="ogonek"/>
	<anchor x="347" y="591" name="top"/>
	<outline>
		<contour>
			<point x="650" y="91" type="line"/>
			<point x="459" y="596" type="line"/>
			<point x="235" y="591" type="line"/>
			<point x="35" y="99" type="line"/>
			<point x="75" y="130" type="line"/>
			<point x="-3" y="100" type="line"/>
			<point x="-3" y="0" type="line"/>
			<point x="280" y="0" type="line"/>
			<point x="280" y="100" type="line"/>
			<point x="227" y="130" type="line"/>
			<point x="229" y="106" type="line"/>
			<point x="250" y="174" type="line"/>
			<point x="230" y="151" type="line"/>
			<point x="420" y="151" type="line"/>
			<point x="394" y="179" type="line"/>
			<point x="445" y="0" type="line"/>
			<point x="681" y="0" type="line"/>
			<point x="681" y="100" type="line"/>
			<point x="606" y="132" type="line"/>
		</contour>
		<contour>
			<point x="270" y="246" type="line"/>
			<point x="351" y="489" type="line"/>
			<point x="314" y="490" type="line"/>
			<point x="376" y="244" type="line"/>
			<point x="386" y="277" type="line"/>
			<point x="268" y="277" type="line"/>
		</contour>
	</outline>
</glyph>
<glyph name="acutedbl" format="2">
	<advance width="338"/>
	<anchor x="125" y="540" name="_top"/>
	<anchor x="48" y="540" name="_topright"/>
	<outline>
		<contour>
			<point x="125" y="602" type="line"/>
			<point x="309" y="750" type="line"/>
			<point x="210" y="851" type="line"/>
			<point x="48" y="679" type="line"/>
		</contour>
	</outline>
</glyph>
<glyph name="c_h" format="2">
	<advance width="1129"/>
	<outline>
		<contour>
			<point x="272" y="-15" type="curve" smooth="yes"/>
			<point x="347" y="-15"/>
			<point x="429" y="14"/>
			<point x="507" y="75" type="curve"/>
			<point x="443" y="174" type="line"/>
			<point x="395" y="146"/>
			<point x="353" y="130"/>
			<point x="319" y="130" type="curve" smooth="yes"/>
			<point x="257" y="130"/>
			<point x="221" y="181"/>
			<point x="221" y="285" type="curve" smooth="yes"/>
			<point x="221" y="379"/>
			<point x="248" y="415"/>
			<point x="320" y="415" type="curve" smooth="yes"/>
			<point x="335" y="415"/>
			<point x="351" y="414"/>
			<point x="370" y="411" type="curve"/>
			<point x="350" y="419" type="line"/>
			<point x="366" y="354" type="line"/>
			<point x="496" y="354" type="line"/>
			<point x="487" y="446"/>
			<point x="479" y="591"/>
			<point x="479" y="622" type="curve" smooth="yes"/>
			<point x="479" y="663"/>
			<point x="496" y="679"/>
			<point x="533" y="679" type="curve" smooth="yes"/>
			<point x="547" y="679"/>
			<point x="565" y="677"/>
			<point x="587" y="672" type="curve"/>
			<point x="561" y="704" type="line"/>
			<point x="561" y="103" type="line"/>
			<point x="583" y="130" type="line"/>
			<point x="516" y="100" type="line"/>
			<point x="516" y="0" type="line"/>
			<point x="806" y="0" type="line"/>
			<point x="806" y="100" type="line"/>
			<point x="745" y="126" type="line"/>
			<point x="761" y="99" type="line"/>
			<point x="761" y="394" type="line"/>
			<point x="749" y="366" type="line"/>
			<point x="779" y="392"/>
			<point x="810" y="405"/>
			<point x="834" y="405" type="curve" smooth="yes"/>
			<point x="862" y="405"/>
			<point x="881" y="387"/>
			<point x="881" y="350" type="curve" smooth="yes"/>
			<point x="881" y="99" type="line"/>
			<point x="902" y="127" type="line"/>
			<point x="836" y="100" type="line"/>
			<point x="836" y="0" type="line"/>
			<point x="1126" y="0" type="line"/>
			<point x="1126" y="100" type="line"/>
			<point x="1065" y="129" type="line"/>
			<point x="1081" y="103" type="line"/>
			<point x="1081" y="388" type="line" smooth="yes"/>
			<point x="1081" y="492"/>
			<point x="1012" y="555"/>
			<point x="924" y="555" type="curve" smooth="yes"/>
			<point x="861" y="555"/>
			<point x="787" y="524"/>
			<point x="723" y="461" type="curve"/>
			<point x="761" y="453" type="line"/>
			<point x="761" y="765" type="line"/>
			<point x="669" y="784"/>
			<point x="593" y="794"/>
			<point x="532" y="794" type="curve" smooth="yes"/>
			<point x="401" y="794"/>
			<point x="340" y="747"/>
			<point x="340" y="640" type="curve" smooth="yes"/>
			<point x="340" y="610"/>
			<point x="345" y="578"/>
			<point x="353" y="540" type="curve"/>
			<point x="384" y="549" type="line"/>
			<point x="362" y="553"/>
			<point x="329" y="555"/>
			<point x="305" y="555" type="curve" smooth="yes"/>
			<point x="166" y="555"/>
			<point x="13" y="488"/>
			<point x="13" y="275" type="curve" smooth="yes"/>
			<point x="13" y="90"/>
			<point x="128" y="-15"/>
		</contour>
	</outline>
</glyph>
<glyph name="caroncomb.alt" format="2">
	<advance width="224"/>
	<anchor x="31" y="780" name="_topright"/>
	<outline>
		<contour>
			<point x="142" y="560" type="line"/>
			<point x="168" y="633"/>
			<point x="186" y="713"/>
			<point x="194" y="793" type="curve"/>
			<point x="31" y="799" type="line"/>
			<point x="39" y="710"/>
			<point x="36" y="639"/>
			<point x="26" y="575" type="curve"/>
		</contour>
	</outline>
</glyph>
<glyph name="dieresiscaroncomb.case" format="2">
	<advance width="536"/>
	<anchor x="258" y="710" name="_top"/>
	<outline>
		<contour>
			<point x="413" y="746" type="curve" smooth="yes"/>
			<point x="465" y="746"/>
			<point x="506" y="782"/>
			<point x="506" y="843" type="curve" smooth="yes"/>
			<point x="506" y="903"/>
			<point x="471" y="940"/>
			<point x="413" y="940" type="curve" smooth="yes"/>
			<point x="361" y="940"/>
			<point x="320" y="903"/>
			<point x="321" y="843" type="curve" smooth="yes"/>
			<point x="322" y="782"/>
			<point x="354" y="746"/>
		</contour>
		<contour>
			<point x="101" y="746" type="curve" smooth="yes"/>
			<point x="153" y="746"/>
			<point x="195" y="782"/>
			<point x="195" y="843" type="curve" smooth="yes"/>
			<point x="195" y="903"/>
			<point x="160" y="940"/>
			<point x="101" y="940" type="curve" smooth="yes"/>
			<point x="49" y="940"/>
			<point x="9" y="903"/>
			<point x="10" y="843" type="curve" smooth="yes"/>
			<point x="11" y="782"/>
			<point x="43" y="746"/>
		</contour>
		<contour>
			<point x="417" y="1129" type="line"/>
			<point x="195" y="989" type="line"/>
			<point x="336" y="987" type="line"/>
			<point x="111" y="1129" type="line"/>
			<point x="54" y="1058" type="line"/>
			<point x="227" y="900" type="line"/>
			<point x="309" y="911" type="line"/>
			<point x="472" y="1050" type="line"/>
		</contour>
	</outline>
</glyph>
<glyph name="e.sc" format="2">
	<advance width="557"/>
	<anchor x="275" y="0" name="bottom"/>
	<anchor x="525" y="0" name="ogonek"/>
	<anchor x="275" y="591" name="top"/>
	<anchor x="16" y="591" name="topleft"/>
	<outline>
		<contour>
			<point x="407" y="189" type="line"/>
			<point x="386" y="109" type="line"/>
			<point x="415" y="138" type="line"/>
			<point x="247" y="138" type="line"/>
			<point x="279" y="109" type="line"/>
			<point x="279" y="264" type="line"/>
			<point x="247" y="237" type="line"/>
			<point x="434" y="237" type="line"/>
			<point x="434" y="363" type="line"/>
			<point x="247" y="363" type="line"/>
			<point x="279" y="335" type="line"/>
			<point x="279" y="482" type="line"/>
			<point x="247" y="453" type="line"/>
			<point x="405" y="453" type="line"/>
			<point x="376" y="478" type="line"/>
			<point x="396" y="407" type="line"/>
			<point x="516" y="407" type="line"/>
			<point x="516" y="591" type="line"/>
			<point x="256" y="591" type="line"/>
			<point x="26" y="587" type="line"/>
			<point x="26" y="487" type="line"/>
			<point x="100" y="457" type="line"/>
			<point x="76" y="493" type="line"/>
			<point x="76" y="93" type="line"/>
			<point x="101" y="131" type="line"/>
			<point x="26" y="100" type="line"/>
			<point x="26" y="0" type="line"/>
			<point x="525" y="0" type="line"/>
			<point x="527" y="189" type="line"/>
		</contour>
	</outline>
</glyph>
<glyph name="eight.dnom" format="2">
	<advance width="392"/>
	<outline>
		<contour>
			<point x="189" y="-12" type="curve" smooth="yes"/>
			<point x="301" y="-12"/>
			<point x="388" y="36"/>
			<point x="388" y="122" type="curve" smooth="yes"/>
			<point x="388" y="270"/>
			<point x="165" y="256"/>
			<point x="165" y="317" type="curve" smooth="yes"/>
			<point x="165" y="335"/>
			<point x="181" y="346"/>
			<point x="200" y="346" type="curve" smooth="yes"/>
			<point x="222" y="346"/>
			<point x="232" y="332"/>
			<point x="232" y="315" type="curve" smooth="yes"/>
			<point x="232" y="288"/>
			<point x="206" y="246"/>
			<point x="139" y="246" type="curve"/>
			<point x="244" y="215" type="line"/>
			<point x="328" y="235"/>
			<point x="374" y="275"/>
			<point x="374" y="331" type="curve" smooth="yes"/>
			<point x="374" y="399"/>
			<point x="307" y="447"/>
			<point x="201" y="447" type="curve" smooth="yes"/>
			<point x="98" y="447"/>
			<point x="17" y="401"/>
			<point x="17" y="317" type="curve" smooth="yes"/>
			<point x="17" y="167"/>
			<point x="238" y="184"/>
			<point x="238" y="118" type="curve" smooth="yes"/>
			<point x="238" y="96"/>
			<point x="216" y="90"/>
			<point x="193" y="90" type="curve" smooth="yes"/>
			<point x="165" y="90"/>
			<point x="146" y="98"/>
			<point x="146" y="120" type="curve" smooth="yes"/>
			<point x="146" y="147"/>
			<point x="176" y="180"/>
			<point x="210" y="179" type="curve"/>
			<point x="135" y="216" type="line"/>
			<point x="43" y="205"/>
			<point x="3" y="156"/>
			<point x="3" y="104" type="curve" smooth="yes"/>
			<point x="3" y="30"/>
			<point x="83" y="-12"/>
		</contour>
	</outline>
</glyph>
<glyph name="eight.osf" format="2">
	<advance width="601"/>
	<outline>
		<contour>
			<point x="286" y="-15" type="curve" smooth="yes"/>
			<point x="430" y="-15"/>
			<point x="580" y="59"/>
			<point x="580" y="211" type="curve" smooth="yes"/>
			<point x="580" y="440"/>
			<point x="240" y="399"/>
			<point x="240" y="526" type="curve" smooth="yes"/>
			<point x="240" y="562"/>
			<point x="267" y="583"/>
			<point x="300" y="583" type="curve" smooth="yes"/>
			<point x="336" y="583"/>
			<point x="362" y="558"/>
			<point x="362" y="517" type="curve" smooth="yes"/>
			<point x="362" y="474"/>
			<point x="332" y="433"/>
			<point x="261" y="430" type="curve"/>
			<point x="406" y="371" type="line"/>
			<point x="511" y="397"/>
			<point x="557" y="453"/>
			<point x="557" y="534" type="curve" smooth="yes"/>
			<point x="557" y="662"/>
			<point x="438" y="725"/>
			<point x="308" y="725" type="curve" smooth="yes"/>
			<point x="172" y="725"/>
			<point x="43" y="656"/>
			<point x="43" y="517" type="curve" smooth="yes"/>
			<point x="43" y="290"/>
			<point x="382" y="331"/>
			<point x="382" y="202" type="curve" smooth="yes"/>
			<point x="382" y="164"/>
			<point x="354" y="128"/>
			<point x="299" y="128" type="curve" smooth="yes"/>
			<point x="244" y="128"/>
			<point x="217" y="164"/>
			<point x="217" y="208" type="curve" smooth="yes"/>
			<point x="217" y="252"/>
			<point x="245" y="294"/>
			<point x="309" y="310" type="curve"/>
			<point x="195" y="367" type="line"/>
			<point x="74" y="344"/>
			<point x="20" y="262"/>
			<point x="20" y="179" type="curve" smooth="yes"/>
			<point x="20" y="50"/>
			<point x="152" y="-15"/>
		</contour>
	</outline>
</glyph>
<glyph name="eng.sc" format="2">
	<advance width="699"/>
	<guideline x="480"/>
	<guideline x="118" y="-244" angle="359.7878"/>
	<outline>
		<contour>
			<point x="387" y="-245" type="curve" smooth="yes"/>
			<point x="547" y="-245"/>
			<point x="635" y="-147"/>
			<point x="635" y="36" type="curve" smooth="yes"/>
			<point x="635" y="496" type="line"/>
			<point x="606" y="456" type="line"/>
			<point x="685" y="493" type="line"/>
			<point x="685" y="593" type="line"/>
			<point x="425" y="589" type="line"/>
			<point x="425" y="489" type="line"/>
			<point x="499" y="456" type="line"/>
			<point x="480" y="495" type="line"/>
			<point x="480" y="194" type="line"/>
			<point x="505" y="216" type="line"/>
			<point x="298" y="593" type="line"/>
			<point x="26" y="589" type="line"/>
			<point x="26" y="489" type="line"/>
			<point x="94" y="461" type="line"/>
			<point x="76" y="495" type="line"/>
			<point x="76" y="93" type="line"/>
			<point x="106" y="132" type="line"/>
			<point x="26" y="100" type="line"/>
			<point x="26" y="0" type="line"/>
			<point x="285" y="0" type="line"/>
			<point x="285" y="100" type="line"/>
			<point x="211" y="132" type="line"/>
			<point x="231" y="93" type="line"/>
			<point x="231" y="412" type="line"/>
			<point x="190" y="422" type="line"/>
			<point x="474" y="-47" type="line"/>
			<point x="455" y="50" type="line"/>
			<point x="455" y="-31" type="line" smooth="yes"/>
			<point x="455" y="-81"/>
			<point x="417" y="-101"/>
			<point x="362" y="-101" type="curve" smooth="yes"/>
			<point x="344" y="-101"/>
			<point x="329" y="-99"/>
			<point x="311" y="-97" type="curve"/>
			<point x="296" y="-236" type="line"/>
			<point x="329" y="-242"/>
			<point x="359" y="-245"/>
		</contour>
	</outline>
</glyph>
<glyph name="esdescender-cy.loclBSH" format="2">
	<advance width="521"/>
	<anchor x="283" y="540" name="top"/>
	<outline>
		<contour>
			<point x="297" y="-233" type="curve" smooth="yes"/>
			<point x="349" y="-233"/>
			<point x="402" y="-202"/>
			<point x="402" y="-140" type="curve" smooth="yes"/>
			<point x="402" y="-98"/>
			<point x="377" y="-48"/>
			<point x="316" y="-4" type="curve"/>
			<point x="212" y="-8" type="line"/>
			<point x="234" y="-24"/>
			<point x="255" y="-60"/>
			<point x="260" y="-85" type="curve"/>
			<point x="267" y="-65" type="line"/>
			<point x="193" y="-152" type="line"/>
			<point x="198" y="-206"/>
			<point x="248" y="-233"/>
		</contour>
		<contour>
			<point x="275" y="-15" type="curve" smooth="yes"/>
			<point x="357" y="-15"/>
			<point x="438" y="14"/>
			<point x="517" y="75" type="curve"/>
			<point x="453" y="174" type="line"/>
			<point x="401" y="145"/>
			<point x="357" y="130"/>
			<point x="321" y="130" type="curve" smooth="yes"/>
			<point x="258" y="130"/>
			<point x="222" y="177"/>
			<point x="222" y="278" type="curve" smooth="yes"/>
			<point x="222" y="360"/>
			<point x="241" y="415"/>
			<point x="310" y="415" type="curve" smooth="yes"/>
			<point x="331" y="415"/>
			<point x="353" y="412"/>
			<point x="361" y="411" type="curve"/>
			<point x="347" y="419" type="line"/>
			<point x="363" y="349" type="line"/>
			<point x="488" y="349" type="line"/>
			<point x="493" y="517" type="line"/>
			<point x="455" y="532"/>
			<point x="380" y="555"/>
			<point x="304" y="555" type="curve" smooth="yes"/>
			<point x="166" y="555"/>
			<point x="14" y="493"/>
			<point x="14" y="267" type="curve" smooth="yes"/>
			<point x="14" y="86"/>
			<point x="126" y="-15"/>
		</contour>
	</outline>
</glyph>
<glyph name="f.alt" format="2">
	<advance width="394"/>
	<anchor x="186" y="0" name="bottom"/>
	<anchor x="311" y="780" name="top"/>
	<outline>
		<contour>
			<point x="24" y="0" type="line"/>
			<point x="344" y="0" type="line"/>
			<point x="344" y="100" type="line"/>
			<point x="263" y="128" type="line"/>
			<point x="279" y="110" type="line"/>
			<point x="279" y="424" type="line"/>
			<point x="262" y="405" type="line"/>
			<point x="388" y="405" type="line"/>
			<point x="391" y="535" type="line"/>
			<point x="255" y="535" type="line"/>
			<point x="279" y="513" type="line"/>
			<point x="279" y="574" type="line" smooth="yes"/>
			<point x="279" y="632"/>
			<point x="299" y="654"/>
			<point x="342" y="654" type="curve" smooth="yes"/>
			<point x="368" y="654"/>
			<point x="404" y="645"/>
			<point x="449" y="631" type="curve"/>
			<point x="377" y="578" type="line"/>
			<point x="422" y="818" type="line"/>
			<point x="551" y="731" type="line"/>
			<point x="467" y="774"/>
			<point x="385" y="795"/>
			<point x="312" y="795" type="curve" smooth="yes"/>
			<point x="177" y="795"/>
			<point x="79" y="719"/>
			<point x="79" y="558" type="curve" smooth="yes"/>
			<point x="79" y="513" type="line"/>
			<point x="100" y="540" type="line"/>
			<point x="19" y="510" type="line"/>
			<point x="19" y="405" type="line"/>
			<point x="95" y="405" type="line"/>
			<point x="79" y="424" type="line"/>
			<point x="79" y="109" type="line"/>
			<point x="95" y="128" type="line"/>
			<point x="24" y="100" type="line"/>
		</contour>
	</outline>
</glyph>
<glyph name="f_h.bolder" format="2">
	<advance width="1032"/>
	<anchor x="179" y="0" name="bottom"/>
	<anchor x="714" y="0" name="caret_1"/>
	<anchor x="257" y="780" name="top"/>
	<outline>
		<contour>
			<point x="24" y="0" type="line"/>
			<point x="344" y="0" type="line"/>
			<point x="344" y="100" type="line"/>
			<point x="260" y="129" type="line"/>
			<point x="279" y="100" type="line"/>
			<point x="279" y="428" type="line"/>
			<point x="259" y="405" type="line"/>
			<point x="389" y="405" type="line"/>
			<point x="392" y="535" type="line"/>
			<point x="259" y="535" type="line"/>
			<point x="279" y="513" type="line"/>
			<point x="279" y="559" type="line" smooth="yes"/>
			<point x="279" y="632"/>
			<point x="312" y="655"/>
			<point x="380" y="655" type="curve" smooth="yes"/>
			<point x="411" y="655"/>
			<point x="451" y="651"/>
			<point x="498" y="644" type="curve"/>
			<point x="454" y="675" type="line"/>
			<point x="454" y="103" type="line"/>
			<point x="476" y="130" type="line"/>
			<point x="399" y="100" type="line"/>
			<point x="399" y="0" type="line"/>
			<point x="699" y="0" type="line"/>
			<point x="699" y="100" type="line"/>
			<point x="638" y="126" type="line"/>
			<point x="654" y="99" type="line"/>
			<point x="654" y="395" type="line"/>
			<point x="641" y="368" type="line"/>
			<point x="669" y="392"/>
			<point x="698" y="405"/>
			<point x="721" y="405" type="curve" smooth="yes"/>
			<point x="752" y="405"/>
			<point x="774" y="383"/>
			<point x="774" y="337" type="curve" smooth="yes"/>
			<point x="774" y="0" type="line"/>
			<point x="1029" y="0" type="line"/>
			<point x="1029" y="100" type="line"/>
			<point x="958" y="129" type="line"/>
			<point x="974" y="103" type="line"/>
			<point x="974" y="380" type="line" smooth="yes"/>
			<point x="974" y="496"/>
			<point x="902" y="555"/>
			<point x="812" y="555" type="curve" smooth="yes"/>
			<point x="747" y="555"/>
			<point x="672" y="523"/>
			<point x="609" y="461" type="curve"/>
			<point x="654" y="453" type="line"/>
			<point x="654" y="785" type="line"/>
			<point x="371" y="772" type="line"/>
			<point x="552" y="763" type="line"/>
			<point x="483" y="784"/>
			<point x="416" y="795"/>
			<point x="355" y="795" type="curve" smooth="yes"/>
			<point x="196" y="795"/>
			<point x="79" y="720"/>
			<point x="79" y="557" type="curve" smooth="yes"/>
			<point x="79" y="513" type="line"/>
			<point x="95" y="540" type="line"/>
			<point x="19" y="510" type="line"/>
			<point x="19" y="405" type="line"/>
			<point x="98" y="405" type="line"/>
			<point x="79" y="428" type="line"/>
			<point x="79" y="100" type="line"/>
			<point x="98" y="129" type="line"/>
			<point x="24" y="100" type="line"/>
		</contour>
	</outline>
</glyph>
<glyph name="f_t" format="2">
	<advance width="814"/>
	<anchor x="179" y="0" name="bottom"/>
	<anchor x="623" y="0" name="caret_1"/>
	<anchor x="202" y="780" name="top"/>
	<outline>
		<contour>
			<point x="620" y="-15" type="curve" smooth="yes"/>
			<point x="679" y="-15"/>
			<point x="741" y="2"/>
			<point x="808" y="39" type="curve"/>
			<point x="772" y="146" type="line"/>
			<point x="742" y="136"/>
			<point x="719" y="130"/>
			<point x="701" y="130" type="curve" smooth="yes"/>
			<point x="665" y="130"/>
			<point x="651" y="153"/>
			<point x="651" y="211" type="curve" smooth="yes"/>
			<point x="651" y="431" type="line"/>
			<point x="632" y="407" type="line"/>
			<point x="786" y="407" type="line"/>
			<point x="786" y="537" type="line"/>
			<point x="632" y="537" type="line"/>
			<point x="651" y="512" type="line"/>
			<point x="651" y="693" type="line"/>
			<point x="450" y="656" type="line"/>
			<point x="450" y="512" type="line"/>
			<point x="477" y="537" type="line"/>
			<point x="255" y="537" type="line"/>
			<point x="279" y="515" type="line"/>
			<point x="279" y="574" type="line" smooth="yes"/>
			<point x="279" y="637"/>
			<point x="317" y="656"/>
			<point x="361" y="656" type="curve" smooth="yes"/>
			<point x="383" y="656"/>
			<point x="407" y="651"/>
			<point x="428" y="644" type="curve"/>
			<point x="455" y="775" type="line"/>
			<point x="405" y="788"/>
			<point x="364" y="795"/>
			<point x="322" y="795" type="curve" smooth="yes"/>
			<point x="174" y="795"/>
			<point x="79" y="719"/>
			<point x="79" y="558" type="curve" smooth="yes"/>
			<point x="79" y="515" type="line"/>
			<point x="100" y="542" type="line"/>
			<point x="19" y="512" type="line"/>
			<point x="19" y="407" type="line"/>
			<point x="95" y="407" type="line"/>
			<point x="79" y="426" type="line"/>
			<point x="79" y="109" type="line"/>
			<point x="95" y="128" type="line"/>
			<point x="24" y="100" type="line"/>
			<point x="24" y="0" type="line"/>
			<point x="344" y="0" type="line"/>
			<point x="344" y="100" type="line"/>
			<point x="263" y="128" type="line"/>
			<point x="279" y="110" type="line"/>
			<point x="279" y="426" type="line"/>
			<point x="262" y="407" type="line"/>
			<point x="474" y="407" type="line"/>
			<point x="450" y="431" type="line"/>
			<point x="450" y="184" type="line" smooth="yes"/>
			<point x="450" y="51"/>
			<point x="505" y="-15"/>
		</contour>
	</outline>
</glyph>
<glyph name="g.sc" format="2">
	<advance width="636"/>
	<anchor x="320" y="0" name="bottom"/>
	<anchor x="322" y="591" name="top"/>
	<outline>
		<contour>
			<point x="324" y="-15" type="curve" smooth="yes"/>
			<point x="403" y="-15"/>
			<point x="490" y="5"/>
			<point x="581" y="47" type="curve"/>
			<point x="581" y="229" type="line"/>
			<point x="562" y="202" type="line"/>
			<point x="631" y="225" type="line"/>
			<point x="631" y="325" type="line"/>
			<point x="341" y="320" type="line"/>
			<point x="341" y="220" type="line"/>
			<point x="424" y="199" type="line"/>
			<point x="396" y="227" type="line"/>
			<point x="396" y="98" type="line"/>
			<point x="415" y="137" type="line"/>
			<point x="393" y="133"/>
			<point x="374" y="130"/>
			<point x="356" y="130" type="curve" smooth="yes"/>
			<point x="266" y="130"/>
			<point x="227" y="190"/>
			<point x="227" y="314" type="curve" smooth="yes"/>
			<point x="227" y="415"/>
			<point x="260" y="461"/>
			<point x="338" y="461" type="curve" smooth="yes"/>
			<point x="365" y="461"/>
			<point x="397" y="456"/>
			<point x="434" y="446" type="curve"/>
			<point x="401" y="473" type="line"/>
			<point x="432" y="382" type="line"/>
			<point x="552" y="382" type="line"/>
			<point x="564" y="554" type="line"/>
			<point x="478" y="589"/>
			<point x="395" y="606"/>
			<point x="321" y="606" type="curve" smooth="yes"/>
			<point x="142" y="606"/>
			<point x="16" y="503"/>
			<point x="16" y="296" type="curve" smooth="yes"/>
			<point x="16" y="92"/>
			<point x="144" y="-15"/>
		</contour>
	</outline>
</glyph>
<glyph name="germandbls.sc" format="2">
	<advance width="663"/>
	<outline>
		<contour>
			<point x="429" y="-11" type="curve" smooth="yes"/>
			<point x="557" y="-11"/>
			<point x="656" y="41"/>
			<point x="656" y="168" type="curve" smooth="yes"/>
			<point x="656" y="289"/>
			<point x="563" y="319"/>
			<point x="472" y="348" type="curve"/>
			<point x="496" y="324" type="line"/>
			<point x="598" y="457" type="line"/>
			<point x="598" y="591" type="line"/>
			<point x="274" y="591" type="line"/>
			<point x="27" y="589" type="line"/>
			<point x="27" y="489" type="line"/>
			<point x="98" y="458" type="line"/>
			<point x="74" y="495" type="line"/>
			<point x="74" y="98" type="line"/>
			<point x="98" y="131" type="line"/>
			<point x="27" y="99" type="line"/>
			<point x="27" y="0" type="line"/>
			<point x="280" y="0" type="line"/>
			<point x="280" y="478" type="line"/>
			<point x="250" y="449" type="line"/>
			<point x="445" y="449" type="line"/>
			<point x="449" y="501" type="line"/>
			<point x="339" y="356" type="line"/>
			<point x="341" y="250" type="line"/>
			<point x="421" y="244"/>
			<point x="458" y="218"/>
			<point x="458" y="179" type="curve" smooth="yes"/>
			<point x="458" y="151"/>
			<point x="440" y="132"/>
			<point x="413" y="132" type="curve" smooth="yes"/>
			<point x="404" y="132"/>
			<point x="395" y="134"/>
			<point x="385" y="138" type="curve"/>
			<point x="428" y="110" type="line"/>
			<point x="414" y="172" type="line"/>
			<point x="311" y="172" type="line"/>
			<point x="301" y="4" type="line"/>
			<point x="345" y="-6"/>
			<point x="388" y="-11"/>
		</contour>
	</outline>
</glyph>
<glyph name="gravedbl" format="2">
	<advance width="321"/>
	<anchor x="133" y="522" name="_top"/>
	<anchor x="119" y="522" name="_topright"/>
	<outline>
		<contour>
			<point x="214" y="602" type="line"/>
			<point x="291" y="679" type="line"/>
			<point x="129" y="851" type="line"/>
			<point x="30" y="750" type="line"/>
		</contour>
	</outline>
</glyph>
<glyph name="h.bolder" format="2">
	<advance width="640"/>
	<anchor x="315" y="0" name="bottom"/>
	<anchor x="162" y="655" name="center"/>
	<anchor x="145" y="710" name="top"/>
	<outline>
		<contour>
			<point x="9" y="0" type="line"/>
			<point x="309" y="0" type="line"/>
			<point x="309" y="100" type="line"/>
			<point x="248" y="126" type="line"/>
			<point x="264" y="99" type="line"/>
			<point x="264" y="395" type="line"/>
			<point x="251" y="368" type="line"/>
			<point x="279" y="392"/>
			<point x="308" y="405"/>
			<point x="331" y="405" type="curve" smooth="yes"/>
			<point x="362" y="405"/>
			<point x="384" y="383"/>
			<point x="384" y="337" type="curve" smooth="yes"/>
			<point x="384" y="0" type="line"/>
			<point x="639" y="0" type="line"/>
			<point x="639" y="100" type="line"/>
			<point x="568" y="129" type="line"/>
			<point x="584" y="103" type="line"/>
			<point x="584" y="380" type="line" smooth="yes"/>
			<point x="584" y="496"/>
			<point x="512" y="555"/>
			<point x="422" y="555" type="curve" smooth="yes"/>
			<point x="357" y="555"/>
			<point x="282" y="523"/>
			<point x="219" y="461" type="curve"/>
			<point x="264" y="453" type="line"/>
			<point x="264" y="785" type="line"/>
			<point x="9" y="775" type="line"/>
			<point x="9" y="675" type="line"/>
			<point x="86" y="645" type="line"/>
			<point x="64" y="675" type="line"/>
			<point x="64" y="103" type="line"/>
			<point x="86" y="130" type="line"/>
			<point x="9" y="100" type="line"/>
		</contour>
	</outline>
</glyph>
<glyph name="hardsign-cy.loclBGR" format="2">
	<advance width="692"/>
	<outline>
		<contour>
			<point x="426" y="-15" type="curve" smooth="yes"/>
			<point x="610" y="-15"/>
			<point x="688" y="89"/>
			<point x="688" y="202" type="curve" smooth="yes"/>
			<point x="688" y="325"/>
			<point x="615" y="391"/>
			<point x="510" y="391" type="curve" smooth="yes"/>
			<point x="457" y="391"/>
			<point x="401" y="374"/>
			<point x="340" y="339" type="curve"/>
			<point x="341" y="225" type="line"/>
			<point x="371" y="238"/>
			<point x="407" y="247"/>
			<point x="430" y="247" type="curve" smooth="yes"/>
			<point x="460" y="247"/>
			<point x="480" y="235"/>
			<point x="480" y="192" type="curve" smooth="yes"/>
			<point x="480" y="145"/>
			<point x="462" y="125"/>
			<point x="432" y="125" type="curve" smooth="yes"/>
			<point x="402" y="125"/>
			<point x="377" y="150"/>
			<point x="377" y="197" type="curve" smooth="yes"/>
			<point x="377" y="540" type="line"/>
			<point x="9" y="540" type="line"/>
			<point x="9" y="325" type="line"/>
			<point x="129" y="325" type="line"/>
			<point x="157" y="432" type="line"/>
			<point x="119" y="395" type="line"/>
			<point x="218" y="395" type="line"/>
			<point x="177" y="429" type="line"/>
			<point x="177" y="192" type="line" smooth="yes"/>
			<point x="177" y="47"/>
			<point x="297" y="-15"/>
		</contour>
	</outline>
</glyph>
<glyph name="hbar.bolder" format="2">
	<advance width="639"/>
	<guideline x="11" y="702" angle="90"/>
	<outline>
		<contour>
			<point x="6" y="0" type="line"/>
			<point x="306" y="0" type="line"/>
			<point x="306" y="100" type="line"/>
			<point x="245" y="126" type="line"/>
			<point x="261" y="99" type="line"/>
			<point x="261" y="379" type="line"/>
			<point x="249" y="351" type="line"/>
			<point x="279" y="377"/>
			<point x="310" y="390"/>
			<point x="334" y="390" type="curve" smooth="yes"/>
			<point x="362" y="390"/>
			<point x="381" y="372"/>
			<point x="381" y="335" type="curve" smooth="yes"/>
			<point x="381" y="0" type="line"/>
			<point x="626" y="0" type="line"/>
			<point x="626" y="100" type="line"/>
			<point x="565" y="129" type="line"/>
			<point x="581" y="103" type="line"/>
			<point x="581" y="373" type="line" smooth="yes"/>
			<point x="581" y="477"/>
			<point x="512" y="540"/>
			<point x="424" y="540" type="curve" smooth="yes"/>
			<point x="361" y="540"/>
			<point x="287" y="509"/>
			<point x="223" y="446" type="curve"/>
			<point x="261" y="438" type="line"/>
			<point x="261" y="780" type="line"/>
			<point x="61" y="780" type="line"/>
			<point x="61" y="103" type="line"/>
			<point x="83" y="130" type="line"/>
			<point x="6" y="100" type="line"/>
		</contour>
		<contour>
			<point x="1" y="591" type="line"/>
			<point x="430" y="591" type="line"/>
			<point x="430" y="696" type="line"/>
			<point x="1" y="696" type="line"/>
		</contour>
	</outline>
</glyph>
<glyph name="iu-cy.loclBGR" format="2">
	<advance width="887"/>
	<outline>
		<contour>
			<point x="383" y="206" type="line"/>
			<point x="383" y="341" type="line"/>
			<point x="212" y="341" type="line"/>
			<point x="262" y="294" type="line"/>
			<point x="262" y="785" type="line"/>
			<point x="7" y="775" type="line"/>
			<point x="7" y="675" type="line"/>
			<point x="72" y="650" type="line"/>
			<point x="62" y="661" type="line"/>
			<point x="62" y="112" type="line"/>
			<point x="74" y="127" type="line"/>
			<point x="7" y="100" type="line"/>
			<point x="7" y="0" type="line"/>
			<point x="317" y="0" type="line"/>
			<point x="317" y="100" type="line"/>
			<point x="250" y="127" type="line"/>
			<point x="262" y="112" type="line"/>
			<point x="262" y="259" type="line"/>
			<point x="212" y="206" type="line"/>
		</contour>
		<contour>
			<point x="616" y="555" type="curve" smooth="yes"/>
			<point x="450" y="555"/>
			<point x="340" y="460"/>
			<point x="340" y="259" type="curve" smooth="yes"/>
			<point x="340" y="72"/>
			<point x="435" y="-15"/>
			<point x="593" y="-15" type="curve" smooth="yes"/>
			<point x="767" y="-15"/>
			<point x="873" y="91"/>
			<point x="873" y="283" type="curve" smooth="yes"/>
			<point x="873" y="464"/>
			<point x="778" y="555"/>
		</contour>
		<contour>
			<point x="606" y="415" type="curve" smooth="yes"/>
			<point x="645" y="415"/>
			<point x="665" y="394"/>
			<point x="665" y="273" type="curve" smooth="yes"/>
			<point x="665" y="149"/>
			<point x="644" y="125"/>
			<point x="607" y="125" type="curve" smooth="yes"/>
			<point x="569" y="125"/>
			<point x="548" y="149"/>
			<point x="548" y="269" type="curve" smooth="yes"/>
			<point x="548" y="400"/>
			<point x="573" y="415"/>
		</contour>
	</outline>
</glyph>
<glyph name="l.sc" format="2">
	<advance width="525"/>
	<anchor x="267" y="0" name="bottom"/>
	<anchor x="432" y="382" name="center"/>
	<anchor x="204" y="591" name="top"/>
	<anchor x="362" y="591" name="topright"/>
	<outline>
		<contour>
			<point x="392" y="237" type="line"/>
			<point x="362" y="105" type="line"/>
			<point x="389" y="138" type="line"/>
			<point x="247" y="138" type="line"/>
			<point x="279" y="106" type="line"/>
			<point x="279" y="495" type="line"/>
			<point x="259" y="459" type="line"/>
			<point x="329" y="493" type="line"/>
			<point x="329" y="593" type="line"/>
			<point x="26" y="589" type="line"/>
			<point x="26" y="489" type="line"/>
			<point x="97" y="459" type="line"/>
			<point x="76" y="495" type="line"/>
			<point x="76" y="93" type="line"/>
			<point x="97" y="129" type="line"/>
			<point x="26" y="100" type="line"/>
			<point x="26" y="0" type="line"/>
			<point x="512" y="0" type="line"/>
			<point x="512" y="237" type="line"/>
		</contour>
	</outline>
</glyph>
<glyph name="lslash.sc" format="2">
	<advance width="547"/>
	<outline>
		<contour>
			<point x="17" y="264" type="line"/>
			<point x="54" y="177" type="line"/>
			<point x="425" y="355" type="line"/>
			<point x="388" y="442" type="line"/>
		</contour>
		<contour>
			<point x="414" y="237" type="line"/>
			<point x="384" y="105" type="line"/>
			<point x="411" y="138" type="line"/>
			<point x="269" y="138" type="line"/>
			<point x="301" y="106" type="line"/>
			<point x="301" y="495" type="line"/>
			<point x="281" y="459" type="line"/>
			<point x="351" y="493" type="line"/>
			<point x="351" y="593" type="line"/>
			<point x="48" y="589" type="line"/>
			<point x="48" y="489" type="line"/>
			<point x="119" y="459" type="line"/>
			<point x="98" y="495" type="line"/>
			<point x="98" y="93" type="line"/>
			<point x="119" y="129" type="line"/>
			<point x="48" y="100" type="line"/>
			<point x="48" y="0" type="line"/>
			<point x="534" y="0" type="line"/>
			<point x="534" y="237" type="line"/>
		</contour>
	</outline>
</glyph>
<glyph name="m.bolder" format="2">
	<advance width="954"/>
	<anchor x="486" y="0" name="bottom"/>
	<anchor x="486" y="540" name="top"/>
	<outline>
		<contour>
			<point x="569" y="470" type="line"/>
			<point x="541" y="529"/>
			<point x="490" y="555"/>
			<point x="432" y="555" type="curve" smooth="yes"/>
			<point x="367" y="555"/>
			<point x="292" y="521"/>
			<point x="231" y="461" type="curve"/>
			<point x="256" y="453" type="line"/>
			<point x="232" y="546" type="line"/>
			<point x="21" y="536" type="line"/>
			<point x="21" y="436" type="line"/>
			<point x="98" y="406" type="line"/>
			<point x="76" y="436" type="line"/>
			<point x="76" y="103" type="line"/>
			<point x="98" y="130" type="line"/>
			<point x="21" y="100" type="line"/>
			<point x="21" y="0" type="line"/>
			<point x="331" y="0" type="line"/>
			<point x="331" y="100" type="line"/>
			<point x="260" y="126" type="line"/>
			<point x="276" y="99" type="line"/>
			<point x="276" y="394" type="line"/>
			<point x="264" y="369" type="line"/>
			<point x="291" y="392"/>
			<point x="318" y="405"/>
			<point x="340" y="405" type="curve" smooth="yes"/>
			<point x="367" y="405"/>
			<point x="386" y="384"/>
			<point x="386" y="337" type="curve" smooth="yes"/>
			<point x="386" y="0" type="line"/>
			<point x="641" y="0" type="line"/>
			<point x="641" y="100" type="line"/>
			<point x="570" y="129" type="line"/>
			<point x="586" y="103" type="line"/>
			<point x="586" y="389" type="line" smooth="yes"/>
			<point x="586" y="392"/>
			<point x="586" y="397"/>
			<point x="585" y="408" type="curve"/>
			<point x="571" y="366" type="line"/>
			<point x="600" y="391"/>
			<point x="628" y="405"/>
			<point x="650" y="405" type="curve" smooth="yes"/>
			<point x="678" y="405"/>
			<point x="696" y="384"/>
			<point x="696" y="337" type="curve" smooth="yes"/>
			<point x="696" y="0" type="line"/>
			<point x="951" y="0" type="line"/>
			<point x="951" y="100" type="line"/>
			<point x="880" y="129" type="line"/>
			<point x="896" y="103" type="line"/>
			<point x="896" y="381" type="line" smooth="yes"/>
			<point x="896" y="498"/>
			<point x="828" y="555"/>
			<point x="742" y="555" type="curve" smooth="yes"/>
			<point x="678" y="555"/>
			<point x="604" y="524"/>
			<point x="541" y="461" type="curve"/>
		</contour>
	</outline>
</glyph>
<glyph name="m.sc" format="2">
	<advance width="774"/>
	<anchor x="387" y="0" name="bottom"/>
	<anchor x="387" y="591" name="top"/>
	<outline>
		<contour>
			<point x="749" y="493" type="line"/>
			<point x="749" y="593" type="line"/>
			<point x="486" y="589" type="line"/>
			<point x="365" y="295" type="line"/>
			<point x="426" y="295" type="line"/>
			<point x="304" y="593" type="line"/>
			<point x="26" y="589" type="line"/>
			<point x="26" y="489" type="line"/>
			<point x="102" y="457" type="line"/>
			<point x="76" y="504" type="line"/>
			<point x="76" y="94" type="line"/>
			<point x="102" y="131" type="line"/>
			<point x="26" y="100" type="line"/>
			<point x="26" y="0" type="line"/>
			<point x="281" y="0" type="line"/>
			<point x="281" y="100" type="line"/>
			<point x="205" y="129" type="line"/>
			<point x="231" y="94" type="line"/>
			<point x="231" y="417" type="line"/>
			<point x="210" y="392" type="line"/>
			<point x="324" y="149" type="line"/>
			<point x="429" y="153" type="line"/>
			<point x="550" y="402" type="line"/>
			<point x="520" y="417" type="line"/>
			<point x="520" y="94" type="line"/>
			<point x="559" y="133" type="line"/>
			<point x="470" y="100" type="line"/>
			<point x="470" y="0" type="line"/>
			<point x="749" y="0" type="line"/>
			<point x="749" y="100" type="line"/>
			<point x="672" y="132" type="line"/>
			<point x="699" y="94" type="line"/>
			<point x="699" y="504" type="line"/>
			<point x="672" y="454" type="line"/>
		</contour>
	</outline>
</glyph>
<glyph name="n.sc" format="2">
	<advance width="699"/>
	<anchor x="350" y="0" name="bottom"/>
	<anchor x="359" y="591" name="top"/>
	<outline>
		<contour>
			<point x="425" y="589" type="line"/>
			<point x="425" y="489" type="line"/>
			<point x="499" y="456" type="line"/>
			<point x="480" y="495" type="line"/>
			<point x="480" y="177" type="line"/>
			<point x="504" y="177" type="line"/>
			<point x="308" y="593" type="line"/>
			<point x="26" y="589" type="line"/>
			<point x="26" y="489" type="line"/>
			<point x="94" y="461" type="line"/>
			<point x="76" y="495" type="line"/>
			<point x="76" y="93" type="line"/>
			<point x="106" y="132" type="line"/>
			<point x="26" y="100" type="line"/>
			<point x="26" y="0" type="line"/>
			<point x="286" y="0" type="line"/>
			<point x="286" y="100" type="line"/>
			<point x="212" y="132" type="line"/>
			<point x="231" y="93" type="line"/>
			<point x="231" y="412" type="line"/>
			<point x="211" y="412" type="line"/>
			<point x="405" y="0" type="line"/>
			<point x="635" y="0" type="line"/>
			<point x="635" y="496" type="line"/>
			<point x="606" y="456" type="line"/>
			<point x="685" y="493" type="line"/>
			<point x="685" y="593" type="line"/>
		</contour>
	</outline>
</glyph>
<glyph name="naira.bolder" format="2">
	<advance width="830"/>
	<guideline x="63" y="595" angle="90"/>
	<guideline x="779" y="595" angle="90"/>
	<guideline x="369" y="469" angle="0"/>
	<guideline x="369" y="249" angle="0"/>
	<outline>
		<contour>
			<point x="482" y="0" type="line"/>
			<point x="719" y="0" type="line"/>
			<point x="719" y="276" type="line"/>
			<point x="693" y="249" type="line"/>
			<point x="779" y="249" type="line"/>
			<point x="779" y="339" type="line"/>
			<point x="551" y="339" type="line"/>
			<point x="551" y="228" type="line"/>
			<point x="580" y="228" type="line"/>
			<point x="366" y="710" type="line"/>
			<point x="63" y="705" type="line"/>
			<point x="63" y="605" type="line"/>
			<point x="141" y="574" type="line"/>
			<point x="123" y="610" type="line"/>
			<point x="123" y="444" type="line"/>
			<point x="154" y="469" type="line"/>
			<point x="63" y="469" type="line"/>
			<point x="63" y="379" type="line"/>
			<point x="291" y="379" type="line"/>
			<point x="291" y="495" type="line"/>
			<point x="263" y="495" type="line"/>
		</contour>
		<contour>
			<point x="63" y="0" type="line"/>
			<point x="351" y="0" type="line"/>
			<point x="351" y="100" type="line"/>
			<point x="262" y="135" type="line"/>
			<point x="291" y="95" type="line"/>
			<point x="291" y="339" type="line"/>
			<point x="63" y="339" type="line"/>
			<point x="63" y="249" type="line"/>
			<point x="154" y="249" type="line"/>
			<point x="123" y="274" type="line"/>
			<point x="123" y="95" type="line"/>
			<point x="152" y="135" type="line"/>
			<point x="63" y="100" type="line"/>
		</contour>
		<contour>
			<point x="551" y="379" type="line"/>
			<point x="779" y="379" type="line"/>
			<point x="779" y="469" type="line"/>
			<point x="697" y="469" type="line"/>
			<point x="719" y="447" type="line"/>
			<point x="719" y="611" type="line"/>
			<point x="692" y="570" type="line"/>
			<point x="779" y="610" type="line"/>
			<point x="779" y="710" type="line"/>
			<point x="491" y="705" type="line"/>
			<point x="491" y="605" type="line"/>
			<point x="580" y="570" type="line"/>
			<point x="551" y="610" type="line"/>
		</contour>
	</outline>
</glyph>
<glyph name="nine.tf" format="2">
	<advance width="630"/>
	<outline>
		<contour>
			<point x="404" y="430" type="line"/>
			<point x="373" y="406"/>
			<point x="342" y="396"/>
			<point x="313" y="396" type="curve" smooth="yes"/>
			<point x="265" y="396"/>
			<point x="235" y="425"/>
			<point x="235" y="486" type="curve" smooth="yes"/>
			<point x="235" y="540"/>
			<point x="261" y="570"/>
			<point x="304" y="570" type="curve" smooth="yes"/>
			<point x="363" y="570"/>
			<point x="382" y="514"/>
			<point x="382" y="402" type="curve" smooth="yes"/>
			<point x="382" y="220"/>
			<point x="335" y="138"/>
			<point x="191" y="138" type="curve" smooth="yes"/>
			<point x="164" y="138"/>
			<point x="132" y="141"/>
			<point x="97" y="147" type="curve"/>
			<point x="84" y="4" type="line"/>
			<point x="132" y="-9"/>
			<point x="177" y="-15"/>
			<point x="220" y="-15" type="curve" smooth="yes"/>
			<point x="439" y="-15"/>
			<point x="592" y="137"/>
			<point x="592" y="394" type="curve" smooth="yes"/>
			<point x="592" y="634"/>
			<point x="459" y="725"/>
			<point x="303" y="725" type="curve" smooth="yes"/>
			<point x="147" y="725"/>
			<point x="25" y="634"/>
			<point x="25" y="475" type="curve" smooth="yes"/>
			<point x="25" y="342"/>
			<point x="111" y="257"/>
			<point x="244" y="257" type="curve" smooth="yes"/>
			<point x="309" y="257"/>
			<point x="364" y="277"/>
			<point x="414" y="299" type="curve"/>
		</contour>
	</outline>
</glyph>
<glyph name="o.sc" format="2">
	<advance width="666"/>
	<anchor x="333" y="0" name="bottom"/>
	<anchor x="333" y="296" name="center"/>
	<anchor x="433" y="0" name="ogonek"/>
	<anchor x="333" y="591" name="top"/>
	<anchor x="20" y="591" name="topleft"/>
	<anchor x="546" y="591" name="topright"/>
	<outline>
		<contour>
			<point x="316" y="-15" type="curve" smooth="yes"/>
			<point x="533" y="-15"/>
			<point x="650" y="115"/>
			<point x="650" y="310" type="curve" smooth="yes"/>
			<point x="650" y="489"/>
			<point x="551" y="606"/>
			<point x="340" y="606" type="curve" smooth="yes"/>
			<point x="132" y="606"/>
			<point x="17" y="491"/>
			<point x="17" y="286" type="curve" smooth="yes"/>
			<point x="17" y="98"/>
			<point x="114" y="-15"/>
		</contour>
		<contour>
			<point x="333" y="130" type="curve" smooth="yes"/>
			<point x="243" y="130"/>
			<point x="228" y="190"/>
			<point x="228" y="291" type="curve" smooth="yes"/>
			<point x="228" y="417"/>
			<point x="252" y="461"/>
			<point x="332" y="461" type="curve" smooth="yes"/>
			<point x="419" y="461"/>
			<point x="439" y="409"/>
			<point x="439" y="302" type="curve" smooth="yes"/>
			<point x="439" y="176"/>
			<point x="411" y="130"/>
		</contour>
	</outline>
</glyph>
<glyph name="ohorn.sc" format="2">
	<advance width="670"/>
	<guideline x="190" y="751" angle="0"/>
	<anchor x="333" y="0" name="bottom"/>
	<anchor x="303" y="591" name="top"/>
	<outline>
		<contour>
			<point x="316" y="-15" type="curve" smooth="yes"/>
			<point x="533" y="-15"/>
			<point x="650" y="115"/>
			<point x="650" y="310" type="curve" smooth="yes"/>
			<point x="650" y="489"/>
			<point x="551" y="606"/>
			<point x="340" y="606" type="curve" smooth="yes"/>
			<point x="132" y="606"/>
			<point x="17" y="491"/>
			<point x="17" y="286" type="curve" smooth="yes"/>
			<point x="17" y="98"/>
			<point x="114" y="-15"/>
		</contour>
		<contour>
			<point x="333" y="130" type="curve" smooth="yes"/>
			<point x="243" y="130"/>
			<point x="228" y="190"/>
			<point x="228" y="291" type="curve" smooth="yes"/>
			<point x="228" y="417"/>
			<point x="252" y="461"/>
			<point x="332" y="461" type="curve" smooth="yes"/>
			<point x="419" y="461"/>
			<point x="439" y="409"/>
			<point x="439" y="302" type="curve" smooth="yes"/>
			<point x="439" y="176"/>
			<point x="411" y="130"/>
		</contour>
		<contour>
			<point x="471" y="502" type="line"/>
			<point x="601" y="497"/>
			<point x="675" y="549"/>
			<point x="675" y="636" type="curve" smooth="yes"/>
			<point x="675" y="670"/>
			<point x="664" y="708"/>
			<point x="642" y="751" type="curve"/>
			<point x="500" y="721" type="line"/>
			<point x="512" y="688"/>
			<point x="518" y="661"/>
			<point x="518" y="641" type="curve" smooth="yes"/>
			<point x="518" y="611"/>
			<point x="500" y="594"/>
			<point x="447" y="592" type="curve"/>
		</contour>
	</outline>
</glyph>
<glyph name="one.dnom" format="2">
	<advance width="312"/>
	<outline>
		<contour>
			<point x="257" y="79" type="line"/>
			<point x="257" y="435" type="line"/>
			<point x="132" y="435" type="line"/>
			<point x="-10" y="344" type="line"/>
			<point x="35" y="248" type="line"/>
			<point x="144" y="303" type="line"/>
			<point x="102" y="301" type="line"/>
			<point x="102" y="79" type="line"/>
			<point x="124" y="106" type="line"/>
			<point x="29" y="80" type="line"/>
			<point x="29" y="0" type="line"/>
			<point x="317" y="0" type="line"/>
			<point x="317" y="80" type="line"/>
			<point x="235" y="111" type="line"/>
		</contour>
	</outline>
</glyph>
<glyph name="oslash.sc" format="2">
	<advance width="668"/>
	<outline>
		<contour>
			<point x="519" y="677" type="line"/>
			<point x="434" y="547" type="line"/>
			<point x="425" y="519" type="line"/>
			<point x="177" y="141" type="line"/>
			<point x="148" y="111" type="line"/>
			<point x="57" y="-29" type="line"/>
			<point x="152" y="-86" type="line"/>
			<point x="239" y="47" type="line"/>
			<point x="249" y="78" type="line"/>
			<point x="509" y="475" type="line"/>
			<point x="533" y="497" type="line"/>
			<point x="613" y="620" type="line"/>
		</contour>
		<contour>
			<point x="317" y="-15" type="curve" smooth="yes"/>
			<point x="534" y="-15"/>
			<point x="651" y="115"/>
			<point x="651" y="310" type="curve" smooth="yes"/>
			<point x="651" y="489"/>
			<point x="552" y="606"/>
			<point x="341" y="606" type="curve" smooth="yes"/>
			<point x="133" y="606"/>
			<point x="18" y="491"/>
			<point x="18" y="286" type="curve" smooth="yes"/>
			<point x="18" y="98"/>
			<point x="115" y="-15"/>
		</contour>
		<contour>
			<point x="334" y="130" type="curve" smooth="yes"/>
			<point x="244" y="130"/>
			<point x="229" y="190"/>
			<point x="229" y="291" type="curve" smooth="yes"/>
			<point x="229" y="417"/>
			<point x="253" y="461"/>
			<point x="333" y="461" type="curve" smooth="yes"/>
			<point x="420" y="461"/>
			<point x="440" y="409"/>
			<point x="440" y="302" type="curve" smooth="yes"/>
			<point x="440" y="176"/>
			<point x="412" y="130"/>
		</contour>
	</outline>
</glyph>
<glyph name="peso.bolder" format="2">
	<advance width="696"/>
	<outline>
		<contour>
			<point x="406" y="476" type="curve"/>
			<point x="664" y="476" type="line"/>
			<point x="664" y="566" type="line"/>
			<point x="572" y="566" type="line"/>
			<point x="605" y="542" type="line"/>
			<point x="580" y="643"/>
			<point x="502" y="711"/>
			<point x="359" y="711" type="curve" smooth="yes"/>
			<point x="293" y="711" type="line"/>
			<point x="24" y="705" type="line"/>
			<point x="24" y="605" type="line"/>
			<point x="119" y="578" type="line"/>
			<point x="84" y="612" type="line"/>
			<point x="84" y="546" type="line"/>
			<point x="105" y="566" type="line"/>
			<point x="24" y="566" type="line"/>
			<point x="24" y="476" type="line"/>
			<point x="289" y="476" type="line"/>
			<point x="289" y="596" type="line"/>
			<point x="259" y="566" type="line"/>
			<point x="329" y="566" type="line" smooth="yes"/>
			<point x="376" y="566"/>
			<point x="402" y="537"/>
		</contour>
		<contour>
			<point x="405" y="436" type="line"/>
			<point x="398" y="378"/>
			<point x="369" y="346"/>
			<point x="315" y="346" type="curve" smooth="yes"/>
			<point x="249" y="346" type="line"/>
			<point x="289" y="316" type="line"/>
			<point x="289" y="436" type="line"/>
			<point x="24" y="436" type="line"/>
			<point x="24" y="346" type="line"/>
			<point x="105" y="346" type="line"/>
			<point x="84" y="381" type="line"/>
			<point x="84" y="95" type="line"/>
			<point x="114" y="135" type="line"/>
			<point x="24" y="100" type="line"/>
			<point x="24" y="0" type="line"/>
			<point x="369" y="0" type="line"/>
			<point x="369" y="100" type="line"/>
			<point x="262" y="132" type="line"/>
			<point x="289" y="95" type="line"/>
			<point x="289" y="231" type="line"/>
			<point x="249" y="201" type="line"/>
			<point x="315" y="201" type="line" smooth="yes"/>
			<point x="488" y="201"/>
			<point x="578" y="278"/>
			<point x="605" y="386" type="curve"/>
			<point x="556" y="346" type="line"/>
			<point x="664" y="346" type="line"/>
			<point x="664" y="436" type="line"/>
		</contour>
	</outline>
</glyph>
<glyph name="seven.tf" format="2">
	<advance width="630"/>
	<outline>
		<contour>
			<point x="608" y="568" type="line"/>
			<point x="608" y="710" type="line"/>
			<point x="27" y="710" type="line"/>
			<point x="27" y="458" type="line"/>
			<point x="149" y="458" type="line"/>
			<point x="177" y="579" type="line"/>
			<point x="135" y="550" type="line"/>
			<point x="424" y="550" type="line"/>
			<point x="397" y="579" type="line"/>
			<point x="105" y="0" type="line"/>
			<point x="331" y="0" type="line"/>
		</contour>
	</outline>
</glyph>
<glyph name="six.dnom" format="2">
	<advance width="385"/>
	<outline>
		<contour>
			<point x="134" y="182" type="line"/>
			<point x="152" y="193"/>
			<point x="169" y="199"/>
			<point x="187" y="199" type="curve" smooth="yes"/>
			<point x="215" y="199"/>
			<point x="228" y="181"/>
			<point x="228" y="147" type="curve" smooth="yes"/>
			<point x="228" y="122"/>
			<point x="221" y="102"/>
			<point x="197" y="102" type="curve" smooth="yes"/>
			<point x="168" y="102"/>
			<point x="159" y="126"/>
			<point x="159" y="192" type="curve" smooth="yes"/>
			<point x="159" y="291"/>
			<point x="187" y="336"/>
			<point x="264" y="336" type="curve" smooth="yes"/>
			<point x="284" y="336"/>
			<point x="308" y="333"/>
			<point x="335" y="327" type="curve"/>
			<point x="346" y="432" type="line"/>
			<point x="310" y="442"/>
			<point x="276" y="447"/>
			<point x="243" y="447" type="curve" smooth="yes"/>
			<point x="104" y="447"/>
			<point x="-1" y="358"/>
			<point x="-1" y="199" type="curve" smooth="yes"/>
			<point x="-1" y="48"/>
			<point x="94" y="-14"/>
			<point x="201" y="-14" type="curve" smooth="yes"/>
			<point x="308" y="-14"/>
			<point x="385" y="49"/>
			<point x="385" y="148" type="curve" smooth="yes"/>
			<point x="385" y="238"/>
			<point x="323" y="283"/>
			<point x="239" y="283" type="curve" smooth="yes"/>
			<point x="199" y="283"/>
			<point x="160" y="274"/>
			<point x="123" y="254" type="curve"/>
		</contour>
	</outline>
</glyph>
<glyph name="softsign-cy.loclBGR" format="2">
	<advance width="571"/>
	<guideline x="387" y="377" angle="0"/>
	<outline>
		<contour>
			<point x="307" y="-15" type="curve" smooth="yes"/>
			<point x="486" y="-15"/>
			<point x="568" y="89"/>
			<point x="568" y="202" type="curve" smooth="yes"/>
			<point x="568" y="325"/>
			<point x="491" y="391"/>
			<point x="391" y="391" type="curve" smooth="yes"/>
			<point x="338" y="391"/>
			<point x="281" y="374"/>
			<point x="220" y="339" type="curve"/>
			<point x="221" y="225" type="line"/>
			<point x="251" y="238"/>
			<point x="287" y="247"/>
			<point x="311" y="247" type="curve" smooth="yes"/>
			<point x="341" y="247"/>
			<point x="360" y="235"/>
			<point x="360" y="192" type="curve" smooth="yes"/>
			<point x="360" y="145"/>
			<point x="343" y="125"/>
			<point x="313" y="125" type="curve" smooth="yes"/>
			<point x="282" y="125"/>
			<point x="257" y="150"/>
			<point x="257" y="197" type="curve" smooth="yes"/>
			<point x="257" y="544" type="line"/>
			<point x="2" y="536" type="line"/>
			<point x="2" y="436" type="line"/>
			<point x="67" y="411" type="line"/>
			<point x="57" y="421" type="line"/>
			<point x="57" y="192" type="line" smooth="yes"/>
			<point x="57" y="47"/>
			<point x="177" y="-15"/>
		</contour>
	</outline>
</glyph>
<glyph name="t.sc" format="2">
	<advance width="576"/>
	<anchor x="288" y="0" name="bottom"/>
	<anchor x="288" y="285" name="center"/>
	<anchor x="288" y="591" name="top"/>
	<outline>
		<contour>
			<point x="121" y="0" type="line"/>
			<point x="454" y="0" type="line"/>
			<point x="454" y="100" type="line"/>
			<point x="355" y="132" type="line"/>
			<point x="389" y="83" type="line"/>
			<point x="389" y="482" type="line"/>
			<point x="348" y="453" type="line"/>
			<point x="461" y="453" type="line"/>
			<point x="422" y="482" type="line"/>
			<point x="447" y="381" type="line"/>
			<point x="567" y="381" type="line"/>
			<point x="567" y="591" type="line"/>
			<point x="9" y="591" type="line"/>
			<point x="9" y="381" type="line"/>
			<point x="129" y="381" type="line"/>
			<point x="156" y="490" type="line"/>
			<point x="114" y="453" type="line"/>
			<point x="228" y="453" type="line"/>
			<point x="186" y="482" type="line"/>
			<point x="186" y="83" type="line"/>
			<point x="223" y="132" type="line"/>
			<point x="121" y="100" type="line"/>
		</contour>
	</outline>
</glyph>
<glyph name="tail-cy.case" format="2">
	<advance width="264"/>
	<guideline x="156" y="124" angle="0"/>
	<guideline x="156" y="100" angle="0"/>
	<anchor x="217" y="0" name="_bottomright"/>
	<outline>
		<contour>
			<point x="41" y="163" type="line"/>
			<point x="41" y="0" type="line"/>
			<point x="103" y="0" type="line"/>
			<point x="65" y="18" type="line"/>
			<point x="47" y="-200" type="line"/>
			<point x="162" y="-200" type="line"/>
			<point x="256" y="51" type="line"/>
			<point x="256" y="101" type="line"/>
		</contour>
	</outline>
</glyph>
<glyph name="tetse-cy.bolder" format="2">
	<advance width="838"/>
	<outline>
		<contour>
			<point x="708" y="-185" type="line"/>
			<point x="828" y="-185" type="line"/>
			<point x="833" y="105" type="line"/>
			<point x="701" y="137" type="line"/>
			<point x="738" y="75" type="line"/>
			<point x="738" y="461" type="line"/>
			<point x="701" y="403" type="line"/>
			<point x="793" y="444" type="line"/>
			<point x="793" y="544" type="line"/>
			<point x="538" y="540" type="line"/>
			<point x="538" y="85" type="line"/>
			<point x="586" y="145" type="line"/>
			<point x="306" y="145" type="line"/>
			<point x="351" y="85" type="line"/>
			<point x="351" y="424" type="line"/>
			<point x="315" y="395" type="line"/>
			<point x="400" y="395" type="line"/>
			<point x="371" y="424" type="line"/>
			<point x="392" y="315" type="line"/>
			<point x="497" y="315" type="line"/>
			<point x="497" y="540" type="line"/>
			<point x="9" y="540" type="line"/>
			<point x="9" y="315" type="line"/>
			<point x="124" y="315" type="line"/>
			<point x="152" y="432" type="line"/>
			<point x="119" y="395" type="line"/>
			<point x="208" y="395" type="line"/>
			<point x="166" y="424" type="line"/>
			<point x="166" y="75" type="line"/>
			<point x="203" y="137" type="line"/>
			<point x="111" y="100" type="line"/>
			<point x="111" y="0" type="line"/>
			<point x="714" y="0" type="line"/>
			<point x="670" y="23" type="line"/>
		</contour>
	</outline>
</glyph>
